<svg width="20" height="20" viewBox="0 0 20 20" fill="none" xmlns="http://www.w3.org/2000/svg">
<g clip-path="url(#clip0_40_4864)">
<path d="M16.6151 6.66732H17.5C18.4205 6.66732 19.1667 7.41351 19.1667 8.33398V11.6673C19.1667 12.5878 18.4205 13.334 17.5 13.334H16.6151C16.205 16.6226 13.3997 19.1673 10 19.1673V17.5007C12.7614 17.5007 15 15.2621 15 12.5007V7.50065C15 4.73923 12.7614 2.50065 10 2.50065C7.23858 2.50065 5 4.73923 5 7.50065V13.334H2.5C1.57952 13.334 0.833333 12.5878 0.833333 11.6673V8.33398C0.833333 7.41351 1.57952 6.66732 2.5 6.66732H3.38491C3.79499 3.37873 6.60032 0.833984 10 0.833984C13.3997 0.833984 16.205 3.37873 16.6151 6.66732ZM2.5 8.33398V11.6673H3.33333V8.33398H2.5ZM16.6667 8.33398V11.6673H17.5V8.33398H16.6667ZM6.4662 13.1547L7.34965 11.7412C8.11801 12.2225 9.0265 12.5007 10 12.5007C10.9735 12.5007 11.882 12.2225 12.6503 11.7412L13.5338 13.1547C12.5093 13.7964 11.298 14.1673 10 14.1673C8.702 14.1673 7.49068 13.7964 6.4662 13.1547Z" fill="#FDFDFF"/>
</g>
<defs>
<clipPath id="clip0_40_4864">
<rect width="20" height="20" fill="white"/>
</clipPath>
</defs>
</svg>
