<svg width="1440" height="423" viewBox="0 0 1440 423" fill="none" xmlns="http://www.w3.org/2000/svg">
<path d="M1440 422.231L0 422.231L3.45624e-05 26.884C53.5 48.3386 97 -4.11892 149.5 24.5874C190 54.326 227 -4.11888 271 20.353C308.5 46.3429 354 -10.5368 388.5 15.1809C443.5 40.3556 501.499 -20.5157 548.999 7.58897C614.499 46.3439 660.999 -16.0252 709.499 20.7259C789.999 70.7912 855.999 -3.55153 922.999 15.839C1012.5 55.324 1074 -11.5346 1136 21.739C1196.5 62.8081 1273.01 3.49266 1324 15.839C1394 39.7884 1440 16.9052 1440 16.9052L1440 422.231Z" fill="#222222"/>
</svg>
