<svg width="245" height="142" viewBox="0 0 245 142" fill="none" xmlns="http://www.w3.org/2000/svg">
<g clip-path="url(#clip0_392_3591)">
<path d="M212.857 131.961C210.046 132.14 207.236 132.342 204.423 132.49C194.984 132.992 185.543 133.488 176.104 133.963C166.49 134.449 156.874 134.904 147.26 135.379C136.881 135.891 126.501 136.408 116.121 136.927C107.366 137.366 98.6083 137.797 89.8534 138.252C77.3806 138.899 64.9103 139.564 52.44 140.208C51.0773 140.278 49.7094 140.247 48.3441 140.26C45.6598 140.431 42.9677 140.457 40.2783 140.504C36.3109 140.574 32.359 140.964 28.3968 141.13C25.8539 141.236 23.2878 141.309 20.7423 141.548C19.8193 141.634 19.4799 141.234 19.3899 140.299C18.9734 135.917 15.2117 131.69 10.8998 130.651C9.98962 130.433 9.08713 130.202 8.1435 130.16C7.0636 130.111 6.48251 129.483 6.46451 128.42C6.40023 124.89 6.04541 121.376 5.87057 117.851C5.66744 113.762 5.44375 109.679 5.39233 105.585C5.38461 104.938 5.00922 104.385 4.97836 103.712C4.92951 102.577 5.3229 101.777 6.27939 101.25C8.07408 100.26 9.83278 99.2237 11.5041 98.0132C12.8796 97.0184 14.011 95.8469 15.0574 94.5273C16.5024 92.7064 17.8266 90.8232 18.8474 88.727C19.1482 87.1087 20.1535 85.7684 20.5624 84.1761C21.506 80.5109 21.7888 76.8484 21.0972 73.1053C20.8863 71.9676 20.4467 70.8766 20.4209 69.7051C18.022 62.3177 13.3605 56.907 6.46194 53.4783C5.78315 53.1406 5.03236 52.925 4.31243 52.6548C2.99598 52.1587 2.4046 51.2002 2.4226 49.7638C2.45602 47.3039 2.51002 44.8232 2.14234 42.3971C1.82865 40.3295 1.92379 38.267 1.88008 36.2072C1.80294 32.5862 1.16786 29.0016 1.3067 25.3702C1.36327 23.8922 1.41212 23.7545 2.8597 23.5415C5.94513 23.0844 8.5009 21.5518 10.4216 19.2036C11.9592 17.3256 12.8462 14.9982 13.1213 12.5097C13.1908 11.8889 13.2756 11.2837 14.0392 11.1382C15.3223 11.0421 16.6053 11.1019 17.8883 11.0993C18.3203 11.0993 18.7394 11.1226 19.0505 10.7434C20.2821 10.3953 21.5394 10.6473 22.7813 10.5642C24.8254 10.6629 26.8823 10.3018 28.9162 10.7564C30.0963 9.34852 31.6725 10.2265 33.0532 10.0836C34.6216 9.92258 36.2929 10.3278 37.7842 9.95375C40.7616 9.20825 43.7545 9.85244 46.7011 9.4784C50.563 8.99006 54.479 9.37709 58.292 8.87836C62.1848 8.37184 66.1033 9.04461 69.8804 8.39782C73.0121 7.86272 76.0924 8.33028 79.1573 7.91987C85.6829 7.04709 92.2446 7.08865 98.7986 6.81851C102.622 6.66006 106.471 6.67045 110.269 6.30679C113.632 5.98469 117.026 6.22886 120.327 5.75351C122.68 5.41583 124.994 5.42882 127.323 5.38466C131.795 5.29894 136.266 4.97165 140.714 4.67553C143.99 4.45733 147.266 4.56124 150.528 4.29369C151.408 4.22096 152.38 4.79761 153.19 3.90146C153.398 3.67028 153.93 3.81314 154.316 3.81314C156.414 3.82094 158.576 4.12745 160.595 3.71444C163.801 3.05985 167.079 3.73002 170.237 2.87543C173.528 2.64425 176.847 3.06505 180.11 2.6962C183.81 2.27799 187.541 2.60009 191.187 2.11954C193.971 1.75329 196.746 2.09357 199.468 1.68056C203.688 1.04156 207.959 1.64159 212.124 1.08832C215.502 0.638939 218.85 0.95584 222.193 0.641537C223.36 0.53244 224.489 0.0674786 225.705 0.173978C227.034 0.28827 227.407 0.599976 227.685 1.91174C228.333 4.97944 229.935 7.38477 232.431 9.29397C234 10.4914 235.661 11.1252 237.579 11.2032C238.715 11.6577 238.563 12.7435 238.656 13.6371C238.983 16.8554 238.805 20.1154 239.124 23.3181C239.505 27.1495 239.484 30.9757 239.61 34.8071C239.641 35.7292 240.032 36.6254 239.985 37.5943C239.944 38.4488 239.589 38.9761 238.823 39.2619C236.219 40.2282 233.688 41.3373 231.328 42.8335C230.552 43.3244 229.863 43.8621 229.405 44.6726L229.42 44.6648C227.376 45.3843 226.42 47.1896 225.324 48.8572V48.852C223.802 50.1846 222.925 51.9821 222.121 53.764C221.187 55.8264 220.529 58.0447 220.125 60.2657C219.701 62.5931 219.758 65.0166 219.958 67.3803C220.411 72.6715 222.584 77.316 225.738 81.472C226.913 83.0202 228.333 84.4774 229.911 85.5736C232.485 87.3633 235.144 89.1244 238.221 89.94C239.235 90.2076 240.338 90.1271 241.34 90.5816C242.071 90.9115 242.5 91.3609 242.546 92.2259C242.783 96.7041 242.976 101.185 243.235 105.658C243.441 109.229 243.611 112.801 243.675 116.375C243.708 118.272 243.649 118.204 241.939 118.877C238.008 120.425 235.301 123.121 234.254 127.379C234.066 128.14 233.904 128.877 233.894 129.651C233.884 130.485 233.493 130.88 232.645 130.955C230.726 131.122 228.803 131.015 226.88 131.14C222.326 131.436 217.768 131.709 213.204 131.828C213.075 131.831 212.96 131.901 212.844 131.961H212.857Z" fill="#F50927"/>
<path d="M212.857 131.961C213.95 131.561 215.102 131.459 216.235 131.462C221.452 131.477 226.631 130.615 231.855 130.851C233.033 130.903 233.555 130.441 233.637 129.038C233.799 126.251 234.956 123.828 236.98 121.809C238.646 120.147 240.441 118.809 242.788 118.394C243.331 118.297 243.338 117.918 243.336 117.534C243.318 114.248 243.611 110.915 243.166 107.689C242.804 105.063 242.904 102.473 242.788 99.8679C242.675 97.2833 242.197 94.7351 242.241 92.1324C242.264 90.6855 240.76 90.6024 239.844 90.5063C236.442 90.1452 233.717 88.4335 230.958 86.6074C229.248 85.4749 227.857 84.1008 226.448 82.6383C223.574 79.6512 221.987 76.0458 220.627 72.1988C219.228 68.2505 219.287 64.175 219.851 60.2734C220.419 56.3511 221.861 52.4886 224.337 49.1975C224.638 48.8001 224.96 48.826 225.34 48.8598C224.625 50.0755 223.838 51.2574 223.206 52.5146C219.015 60.8631 219.095 69.1726 223.525 77.4199C225.075 79.4693 226.482 81.6279 228.374 83.402C232.069 86.8671 236.365 89.1062 241.323 90.0336C241.87 90.1349 242.436 90.1582 242.798 90.6777C243.246 99.5718 243.683 108.466 244.153 117.357C244.2 118.217 244.038 118.617 243.112 118.869C237.713 120.334 234.496 124.41 234.288 130.036C234.252 130.974 233.802 131.09 233.11 131.122C228.58 131.332 224.052 131.542 219.521 131.755C217.303 131.859 215.086 132.08 212.86 131.966L212.857 131.961Z" fill="#F50927"/>
<path d="M19.2051 88.8465C17.6419 92.0519 15.6158 94.9352 12.9906 97.3145C11.1445 98.9847 9.01294 100.281 6.76571 101.385C5.21014 102.149 4.94017 103.099 5.61125 104.759C5.76552 105.144 5.75009 105.518 5.75523 105.902C5.78095 107.848 5.75266 109.796 5.82723 111.739C5.97379 115.593 6.28747 119.443 6.4366 123.3C6.50345 125.054 6.70915 126.859 6.81457 128.644C6.86342 129.48 7.35194 129.82 8.16444 129.864C12.1524 130.085 15.3766 131.859 17.7576 135.044C18.8349 136.486 19.5857 138.197 19.6551 140.065C19.6885 140.987 19.9045 141.301 20.8944 141.314C25.7283 141.379 30.5518 140.925 35.3471 140.592C39.6924 140.294 44.012 140.397 48.3419 140.257C45.4107 140.639 42.459 140.657 39.515 140.81C33.1899 141.14 26.8647 141.442 20.5422 141.813C19.5985 141.868 19.3106 141.579 19.1486 140.678C17.9993 134.291 13.5331 130.485 7.15653 130.503C6.12806 130.506 6.17177 129.963 6.13834 129.306C5.8298 123.085 5.52383 116.861 5.21271 110.64C5.151 109.429 5.06615 108.222 4.99159 107.014C4.70362 105.881 5.05587 104.712 4.79618 103.58C4.98388 102.814 4.3745 101.894 5.23585 101.258C6.82228 100.271 8.56555 99.5744 10.0774 98.4366C13.3274 95.995 16.0811 93.1325 17.9581 89.4699C18.0738 89.2439 18.2204 89.0283 18.4261 88.8647L18.4209 88.8751C18.4569 88.7712 18.5263 88.714 18.6343 88.7036C18.8349 88.7036 19.0432 88.6803 19.2051 88.8413V88.8465Z" fill="#F50927"/>
<path d="M12.7671 11.5149C12.9188 10.9954 13.2659 10.8214 13.7981 10.8032C15.8731 10.733 17.9429 10.5045 20.0255 10.6577C21.2906 10.7512 22.517 10.1979 23.7949 10.3798C23.7409 11.1408 23.0081 10.5668 22.7484 10.9253C21.486 10.9408 20.2235 10.9564 18.9611 10.972C18.2077 11.3798 17.3952 11.1279 16.6136 11.185C15.7419 11.2499 14.8472 11.0473 14.0064 11.4344C13.6541 11.4863 13.4973 11.6889 13.4947 12.05C13.4767 13.6813 13.0345 15.2943 12.3634 16.6788C11.6023 18.2555 10.7281 19.8764 9.12882 20.9544C8.08235 21.6583 7.15672 22.5103 5.95597 23.0116C4.90178 23.4506 3.79617 23.687 2.70856 23.8662C1.8832 24.0039 1.68265 24.2325 1.64923 25.0429C1.45381 29.5782 2.30231 34.059 2.25088 38.5943C2.20717 42.4647 2.86283 46.3194 2.76769 50.2106C2.72141 52.0548 4.41583 52.5016 5.68085 52.886C7.54497 53.4549 9.08254 54.5147 10.6278 55.5823C13.1759 57.3408 15.3357 59.528 17.0867 62.0996C18.0894 63.575 19.2079 65.0426 19.5884 66.7985C19.8121 67.8297 20.82 68.4947 20.6658 69.622C20.4858 69.7779 20.2955 69.7753 20.1001 69.6532C18.7991 66.0634 17.0918 62.7204 14.4949 59.8812C11.5663 56.6811 8.12092 54.2446 4.02244 52.9016C2.60057 52.4367 2.24831 51.712 2.19175 50.3301C1.8832 42.9115 1.47953 35.4981 1.10927 28.0821C0.885581 27.1184 1.18898 26.1235 0.939576 25.1598C0.615606 23.8558 1.16327 23.2194 2.44887 23.1467C3.12509 22.6246 3.98644 22.6844 4.75008 22.4298C7.84066 21.3934 10.0545 19.3881 11.4789 16.458C11.7052 15.9931 11.9546 15.5385 12.1988 15.0839C12.6822 13.9436 12.7902 12.7435 12.7696 11.5227L12.7671 11.5149Z" fill="#F50927"/>
<path d="M168.663 3.09102C170.877 2.94556 173.091 2.76633 175.307 2.65723C191.789 1.83121 208.27 1.01298 224.751 0.21034C225.788 0.160987 226.855 -0.298779 227.87 0.32723C227.914 1.77926 228.228 3.16116 228.922 4.44175C230.416 6.89903 232.249 8.97966 234.969 10.107C235.877 10.4836 236.81 10.733 237.769 10.9148C238.062 10.9694 238.661 10.8655 238.368 11.546C238.101 11.6188 237.844 11.5876 237.592 11.4811C233.802 11.5824 231.421 9.3693 229.318 6.52498C228.192 5.00282 227.536 3.39493 227.343 1.53769C227.289 1.02597 226.893 0.610363 226.412 0.620753C225.325 0.644131 224.196 0.290864 223.155 0.893495C222.797 1.1013 222.404 1.02857 222.023 1.03376C219.627 1.06234 217.177 0.766216 214.845 1.17143C209.988 2.01304 205.051 1.01558 200.23 2.07538C200.106 2.10136 199.973 2.09876 199.847 2.09356C194.38 1.88836 188.929 2.49359 183.494 2.80269C179.113 3.05206 174.739 2.97413 170.371 3.18453C169.797 3.24947 169.214 3.44169 168.663 3.08842V3.09102Z" fill="#F50927"/>
<path d="M237.592 11.4811C237.905 11.4551 238.222 11.4292 238.535 11.4032C238.723 11.4266 238.821 11.5175 238.762 11.7201C239.253 15.2605 239.258 18.8322 239.453 22.3908C239.746 27.6508 239.983 32.9135 240.235 38.1761C240.263 38.7528 240.417 39.3398 239.525 39.5528C235.764 40.4542 232.472 42.3348 229.415 44.67C229.217 43.6855 229.999 43.2024 230.58 42.8439C233.146 41.2646 235.823 39.8879 238.702 38.9684C239.656 38.6645 240.119 37.28 239.517 35.9942C239.258 35.4409 239.24 34.9292 239.235 34.3837C239.201 31.4926 239.471 28.56 239.083 25.7183C238.651 22.5467 238.893 19.3829 238.584 16.2424C238.486 15.2372 238.466 14.2475 238.435 13.2474C238.412 12.5487 238.26 11.8811 237.594 11.4785L237.592 11.4811Z" fill="#F50927"/>
<path d="M20.0973 69.6506C20.285 69.6402 20.4753 69.6298 20.6629 69.6194C21.4652 72.9754 22.0797 76.3652 21.6889 79.8278C21.4472 81.9681 21.2338 84.1527 20.1641 86.0878C19.6808 86.9632 19.637 87.9685 19.2025 88.8438C19.0097 88.8438 18.8014 89.1062 18.6214 88.8179C18.6137 87.8204 19.1459 87.0282 19.6062 86.2099C21.3855 81.0044 21.7814 75.7522 20.177 70.422C20.105 70.1779 20.123 69.9077 20.0973 69.6506Z" fill="#F50927"/>
<path d="M225.335 48.8546C225.477 47.5091 226.343 46.5818 227.248 45.7531C227.837 45.2129 228.349 44.2907 229.428 44.6648C228.063 46.0622 226.698 47.4597 225.333 48.8572L225.335 48.8546Z" fill="#F50927"/>
<path d="M210.898 84.1812L210.949 85.1917C211.386 87.584 211.129 89.9946 211.162 92.3973C211.165 92.6207 211.062 92.8129 210.928 92.9843C210.301 94.8728 209.072 96.143 207.128 96.5819C206.375 96.7534 206.331 97.2183 206.339 97.8184C206.39 102.447 206.815 107.053 207.195 111.658C207.401 114.16 207.475 116.671 207.347 119.178C207.257 120.916 205.082 123.331 203.295 123.526C200.495 123.833 197.682 124.022 194.851 123.763C193.033 123.596 192.295 122.264 191.423 121.007C190.817 119.723 190.511 119.669 189.708 120.853C189.338 121.402 188.855 121.742 188.341 122.085C186.818 123.56 184.939 124.212 182.92 124.69C180.36 125.295 177.848 125.207 175.294 124.732C174.05 124.5 172.97 123.924 171.885 123.36C171.45 123.134 171.234 123.147 170.887 123.428C168.033 125.737 164.673 125.461 161.348 125.269C160.495 125.22 159.762 125.274 158.903 125.565C155.56 126.695 152.141 127.243 148.598 126.339C147.011 125.934 145.371 126.373 143.756 126.55C141.301 126.82 138.837 127.033 136.374 127.23C135.482 127.303 134.587 127.282 133.721 126.914C133.392 126.773 132.954 126.776 132.589 126.846C127.727 127.784 122.814 127.791 117.895 127.747C117.149 127.527 116.383 127.347 115.846 126.711L115.334 126.181C114.995 125.532 114.426 124.978 114.444 124.422C114.468 124.669 114.689 125.23 114.249 125.677C113.231 127.365 111.84 128.246 109.796 128.425C107.626 128.615 105.458 128.799 103.28 128.914C101.581 129.002 100.295 128.41 99.367 127.017C99.1124 126.633 98.8451 126.475 98.5982 126.864C97.3075 128.898 95.14 128.963 93.1601 129.218C90.9232 129.506 88.6734 129.781 86.3799 129.592C85.1843 129.493 83.9373 129.875 82.7262 130.116C80.4173 130.579 78.3064 130.225 76.504 128.625C76.0489 128.223 75.8149 128.29 75.5089 128.753C74.9124 129.659 74.0922 129.981 72.9917 129.872C71.6315 129.737 70.3254 129.828 69.0758 130.688C68.1836 131.298 66.8826 131.145 65.9672 130.745C64.643 130.168 63.5709 130.599 62.4164 130.984C59.948 131.805 57.4874 132.48 55.0114 131.002C54.6463 130.784 54.2837 130.973 53.9109 131.114C51.1031 132.168 48.1308 132.353 45.2074 132.324C42.7725 132.298 40.9187 129.789 40.767 127.311C40.5227 123.256 40.3941 119.194 40.1962 115.136C39.9673 110.437 39.7462 105.736 39.4608 101.039C39.3168 98.6886 39.6305 96.3923 39.9725 94.0857C40.0804 93.361 40.155 92.6285 40.191 91.896C40.3324 88.8932 40.9238 88.1685 43.8292 87.2593C47.992 85.9554 52.2628 85.7683 56.5181 86.3008C59.4724 86.6723 62.113 88.0438 64.1365 90.3894C64.5685 90.8518 65.0056 90.979 65.4478 90.4024C66.7309 88.4049 68.4433 87.1684 70.8988 87.1451C73.7451 87.1191 76.5939 86.4983 79.4325 87.2308C79.5971 87.2723 79.7719 87.2749 79.9365 87.3191C81.5281 87.7607 82.5925 87.6905 83.9887 87.0178C84.9683 86.545 85.9917 86.2957 87.0767 86.2593C87.6629 86.2385 88.2774 86.3346 88.8071 85.9554C90.6815 86.8723 92.6922 86.5892 94.6694 86.6567C95.955 86.7009 97.1249 86.3554 98.2485 85.7891C98.9299 85.4463 99.6113 85.2904 100.347 85.5943C100.719 85.7476 101.077 85.6644 101.468 85.5865C102.987 85.2826 104.502 84.8177 106.052 84.867C107.623 84.9164 109.197 84.8436 110.765 84.9813C111.117 85.0125 111.439 85.0514 111.724 85.2748C111.95 85.4515 112.19 85.5398 112.357 85.2073C112.999 83.9319 113.632 84.4566 114.259 85.2359C115.172 84.6748 115.46 83.8202 115.509 82.8149C115.527 82.4383 115.607 81.9578 116.134 82.0097C116.545 82.0487 116.638 82.4721 116.635 82.8123C116.633 83.8176 117.203 84.0566 118.065 84.428C119.852 85.1969 121.6 85.2384 123.439 84.9449C123.84 84.88 124.176 85.1294 124.521 85.293C125.053 85.3865 125.583 85.4644 125.976 84.9501C126.133 84.8228 126.311 84.7553 126.509 84.7345C127.357 84.854 127.835 84.5475 127.797 83.6176C127.786 83.402 127.797 83.1838 127.822 82.9708C127.869 82.5864 127.869 82.1084 128.319 82.0123C128.838 81.9006 128.879 82.4149 129.028 82.7578C129.604 84.0929 129.836 84.0358 131.191 83.9241C132.571 83.8098 133.947 83.5838 135.335 83.5033C137.164 83.3968 138.997 83.3371 140.825 83.2306C141.329 83.202 141.617 82.75 141.964 82.4409C142.936 81.5681 143.136 81.5655 144.083 82.4695C144.394 82.7682 144.625 83.1656 144.988 83.3812C145.288 83.5578 145.8 84.2955 145.911 83.1786C145.939 82.8825 146.361 82.8097 146.664 82.7916C147.561 82.737 148.487 82.5941 149.341 82.9007C150.709 83.3916 152.002 83.3708 153.305 82.7214C153.725 82.5136 154.19 82.3915 154.617 82.1967C155.365 81.8564 155.995 81.8642 156.568 82.5474C156.964 83.0201 157.504 83.2591 158.026 82.7708C159.574 81.3136 161.577 81.4434 163.441 81.2278C164.914 81.059 166.434 81.0876 167.923 81.3239C168.221 81.3707 168.545 81.4253 168.812 81.298C170.44 80.5213 172.17 80.8174 173.867 80.7811C174.829 80.7603 175.695 80.7759 176.616 81.4512C177.413 82.0357 178.645 81.9941 179.701 81.5473C180.897 81.0408 182.301 80.7213 183.432 80.9083C184.836 81.1395 186.14 80.9889 187.464 80.8434C188.757 80.7031 190.014 80.5836 191.261 81.1006C191.236 79.8563 191.357 79.994 192.506 79.8693C195.89 79.5005 199.322 80.1602 202.68 79.3186C203.721 79.0563 204.835 79.0875 205.871 79.2823C206.694 79.4355 207.624 79.7446 207.74 80.9161C207.802 81.5499 208.419 81.7577 208.866 82.0772L208.91 82.0435C209.687 82.6435 210.79 82.9344 210.903 84.1683L210.898 84.1812Z" fill="black"/>
<path d="M124.572 85.7087C123.433 84.8905 122.148 85.4724 121.009 85.5503C119.502 85.6516 118.438 84.6074 117.052 84.5424C116.689 84.5243 116.327 84.0074 116.314 83.4463C116.306 83.0515 116.494 82.5943 116.049 82.1995C115.504 82.919 116.167 83.8931 115.563 84.4983C115.031 85.0308 114.401 85.4594 113.781 85.9607C113.642 85.862 113.791 85.5295 113.748 85.249C113.704 84.9659 113.619 84.7477 113.298 84.7243C112.92 84.6983 112.791 84.9061 112.727 85.2594C112.555 86.1945 112.395 86.8075 111.529 85.5607C111.058 84.8827 109.996 85.2646 109.274 85.2775C108.132 85.3009 107.001 85.1503 105.867 85.2074C105.211 85.2412 104.491 85.6152 104.023 85.6334C102.846 85.6776 101.555 86.3945 100.676 86.0672C99.4905 85.623 98.7062 85.9711 97.8243 86.3893C95.3611 87.5582 92.7668 86.8724 90.2367 86.9504C89.7714 86.966 89.2854 86.3166 88.8071 85.9763C88.8971 85.888 88.9846 85.8023 89.0746 85.7139C89.6222 85.4282 90.0876 85.1061 89.6402 84.3866C88.7969 82.0514 88.568 79.4539 86.6114 77.6044C85.5006 76.555 85.0069 75.1004 84.593 73.6769C84.3616 72.8847 83.8885 72.5704 83.2277 72.334C80.0651 71.2144 78.8129 69.4169 78.8129 66.0038C79.1112 65.4063 79.1652 64.8686 78.8026 64.2166C78.1907 63.1179 78.2498 61.9412 78.8078 60.8035C79.322 60.0424 78.9826 59.58 78.2807 59.2397C76.4192 58.4189 75.2801 56.8006 74.2105 55.2109C72.1587 52.1614 69.7958 49.3639 67.5794 46.4494C66.7617 45.374 65.8438 44.3895 66.8543 42.9064C67.1474 42.4752 66.8697 41.9063 66.6435 41.4232C66.2809 40.6517 66.4789 40.0179 67.132 39.4828C69.5026 37.5346 72.0353 35.8124 74.5113 34.0149C74.8662 33.7578 75.347 33.4331 75.6864 33.6331C77.5788 34.7475 80.1448 34.4435 81.3636 37.0515C83.3228 41.2387 86.4365 44.748 88.7249 48.7638C89.198 49.5924 89.4962 50.447 89.1285 51.312C88.7094 52.3043 89.0231 52.7589 89.8819 53.2446C91.1367 53.9537 92.2731 54.8733 93.5099 55.6214C95.302 56.7045 95.3174 58.6007 95.7391 60.3177C96.5002 63.4114 96.9887 66.5622 97.6006 69.6845C98.1791 72.6405 99.5676 75.2198 100.635 77.9499C100.91 78.407 101.172 78.6148 101.391 77.9135C101.403 77.4018 101.419 76.8901 101.432 76.381C101.882 74.2588 101.612 72.1054 101.666 69.9676C101.704 68.4636 101.581 66.9519 101.699 65.4557C101.823 63.8556 101.349 62.5282 100.372 61.3256C98.75 58.7878 96.8036 56.4422 95.8034 53.5381C95.6774 53.1745 95.4485 52.9537 95.2043 52.7381C92.9828 50.7691 92.052 48.3015 92.9699 45.4649C93.6847 43.2518 92.6999 41.5193 91.8514 39.7919C89.5708 35.1397 87.9869 30.194 85.7989 25.508C85.4029 24.6612 85.4517 24.0767 86.1563 23.4949C86.6602 23.0793 87.1256 22.5857 87.0125 21.8584C86.8299 20.6817 87.5781 20.144 88.4575 19.8947C91.3655 19.0713 94.1809 17.9855 97.0041 16.9179C97.8192 16.6114 98.2897 17.0867 98.7474 17.5725C99.0456 17.8894 99.2899 18.253 99.7527 18.3128C101.308 18.5076 101.817 19.531 102.005 20.9623C102.064 21.4116 101.992 21.9987 102.409 22.3857C102.887 22.7961 102.62 23.4663 102.944 23.9313C103.502 26.069 103.975 28.2406 104.857 30.2719C105.638 32.072 105.875 34.0331 106.582 35.8514C106.865 36.7164 107.034 37.5788 106.512 38.423C106.317 38.5736 106.14 38.7633 105.921 38.8698C105.507 39.0724 105.209 39.2542 105.386 39.8361C105.566 40.4257 105.952 40.4699 106.446 40.501C107.677 40.5789 109.017 41.579 109.279 42.7999C109.495 43.8025 110.025 44.3688 110.919 44.6909C112.244 45.8624 112.933 47.2884 112.622 49.1015C112.542 49.5665 112.588 50.0392 112.521 50.5042C111.233 52.6394 112.372 54.7018 112.778 56.7539C113.038 58.0708 113.357 59.3774 113.334 60.7125C113.285 63.588 113.982 66.3674 114.337 69.1857C114.501 70.4949 114.524 71.8378 114.815 73.0691C115.638 70.1287 115.424 67.0662 115.44 64.0192C115.447 62.4191 115.648 60.8294 115.836 59.2475C115.982 58.0085 115.879 56.8552 115.44 55.6941C114.738 53.8394 113.987 52.0004 113.46 50.0808C113.465 49.195 113.082 48.408 112.804 47.6027C112.231 45.9429 111.75 44.2571 111.197 42.592C109.477 39.5997 110.408 36.9112 112.112 34.3033C112.2 34.1682 112.192 33.9708 112.228 33.8045C112.436 33.3058 113.03 32.9266 112.701 32.259L112.691 32.2512C111.956 31.9525 111.416 31.459 111.171 30.6771C110.835 29.8069 110.773 28.9367 111.174 28.0666C111.742 23.4689 111.606 18.8401 111.755 14.2216C111.791 13.1411 111.971 12.3124 113.115 11.8631C113.635 11.6578 114.259 11.3799 114.362 10.5617C114.437 9.95646 115.054 9.88632 115.596 9.89152C118.808 9.9097 122.019 9.92529 125.231 9.93308C125.951 9.93308 126.467 10.1461 126.617 10.9565C126.73 11.5721 127.144 12.1826 127.655 12.3228C128.987 12.6917 128.974 13.6943 128.869 14.6684C128.337 19.557 127.771 24.443 127.568 29.3601C127.532 30.2251 127.159 31.0226 127.09 31.8953C127.033 32.6071 126.29 32.8123 125.699 33.0616C125.04 33.3396 124.652 33.737 125.565 34.1578C126.853 34.7501 127.285 35.9008 127.545 37.1346C127.676 37.7606 127.884 38.2931 128.329 38.7165C129.957 40.2569 130.083 42.057 129.278 44.0337C129.116 44.4311 129.015 44.8701 128.776 45.213C127.774 46.665 127.452 48.1092 128.113 49.8756C128.864 51.8861 128.853 53.9979 128.213 56.1097C127.542 58.3176 128.031 60.5749 128.2 62.8036C128.494 66.6324 128.869 70.4559 129.208 74.2795C129.584 75.2848 129.62 76.3316 129.573 77.3888C129.625 76.4874 129.573 75.5679 130.196 74.8094C130.872 71.9755 131.412 69.1 132.271 66.3232C132.967 64.0634 132.731 61.936 132.258 59.7203C131.543 56.3643 130.939 52.9822 130.301 49.608C130.003 48.0313 130.144 46.5351 131.09 45.1662C131.841 44.0804 132.381 42.857 133.23 41.8258C133.656 41.3089 133.867 40.7764 133.183 40.1815C132.134 39.2672 132.363 38.0411 132.762 36.945C133.451 35.0488 133.726 33.059 134.243 31.1265C135.053 28.1029 135.713 25.0404 136.474 22.0039C136.721 21.0194 137.148 20.1285 138.323 19.9388C138.66 19.8843 138.902 19.6843 139.048 19.305C139.452 18.2582 140.36 18.0374 141.277 18.3102C143.736 19.0401 146.237 19.5544 148.739 20.0843C150.076 20.3674 151.272 20.9649 151.215 22.7C151.205 22.991 151.305 23.2975 151.606 23.4715C152.992 24.2689 152.493 25.4326 152.166 26.5444C151.866 27.5678 151.321 28.5159 151.231 29.6069C151.045 30.5394 150.572 31.368 150.297 32.2668C149.161 35.6826 148.626 39.2776 147.212 42.618C146.89 43.3791 146.047 43.2674 145.638 44.0207C148.058 44.8389 147.672 46.9144 147.718 48.8132C148.873 49.7015 149.068 50.9795 149.001 52.4549C149.942 52.0367 150.449 51.2549 151.238 50.9016C151.585 50.5873 151.951 50.2912 152.274 49.9535C152.835 49.3665 153.504 48.8288 153.879 48.1326C154.403 47.1637 153.192 46.9326 152.84 46.3221C152.184 45.187 152.375 44.2441 153.01 43.2051C155.242 39.5633 157.579 35.9891 159.62 32.233C159.906 31.7083 160.204 31.1914 160.443 30.6459C160.801 29.8303 161.286 29.2848 162.266 29.3212C162.775 29.3394 163.292 29.1965 163.575 28.6692C164.084 27.7237 164.904 27.9289 165.573 28.2848C167.637 29.3887 169.669 30.5654 171.672 31.7785C172.001 31.9785 172.332 32.1109 172.664 32.2772C173.7 32.7915 174.538 33.4695 174.433 34.8332C174.389 35.4176 174.487 35.9761 174.736 36.5683C175.078 37.3814 175.073 38.2723 174.608 39.1763C173.158 42.0024 171.304 44.5662 169.656 47.265C168.923 48.4625 168.28 49.7171 167.504 50.886C166.691 52.1095 165.614 53.0784 164.033 53.7148C166.174 54.9875 166.635 56.6526 165.912 58.8449C165.652 59.6294 166.241 60.5489 166.246 61.4736C166.262 63.7517 165.521 65.6349 163.431 66.5362C161.994 67.1545 161.546 68.2844 161.13 69.513C160.423 71.5885 159.59 73.5626 158.299 75.3679C157.648 76.2796 157.646 77.5628 157.425 78.6954C156.993 79.3967 157.283 80.2747 156.882 80.9838C156.568 81.3163 156.517 81.7839 156.833 82.0098C157.304 82.3475 157.947 82.2904 158.427 82.0098C159.731 81.2591 161.163 81.0799 162.6 80.8903C162.896 80.8513 163.194 80.7786 163.49 80.7864C167.288 80.8825 171.065 80.2175 174.868 80.4669C175.418 80.5033 176.091 80.4175 176.49 80.7007C177.853 81.6644 179.064 81.4358 180.483 80.7682C181.368 80.3526 182.489 80.4046 183.507 80.337C190.189 79.8824 196.88 79.5214 203.554 78.9811C206.159 78.7707 208.049 79.3811 208.856 82.0904C208.103 82.1319 207.383 81.9683 207.357 81.0799C207.321 79.7396 206.308 79.5993 205.462 79.537C204.393 79.4591 203.289 79.2928 202.21 79.8902C201.675 80.1864 200.867 79.9526 200.189 80.0149C197.926 80.2175 195.602 79.524 193.383 80.4981C192.976 80.6747 192.57 80.4305 192.221 80.1292C192.028 79.963 191.696 79.9578 191.524 80.1942C191.326 80.4643 191.483 80.6695 191.768 80.7812C192.046 80.8877 192.424 80.9968 192.244 81.3812C192.1 81.6903 191.665 81.6462 191.429 81.5449C189.192 80.5942 186.996 81.3007 184.79 81.6618C184.664 81.6825 184.471 81.7787 184.427 81.7319C183.18 80.3604 181.756 81.5579 180.576 81.7267C179.377 81.8981 178.177 82.0072 176.968 82.08C176.678 82.0982 176.212 82.1839 176.138 81.9085C175.796 80.6513 174.811 81.0643 174.047 81.0669C172.322 81.0721 170.553 80.763 168.928 81.7163C168.27 82.1033 167.596 81.6072 166.928 81.5553C164.41 81.3605 161.947 81.8124 159.466 82.0982C159.011 82.1501 158.859 82.4956 158.615 82.7969C157.769 83.8437 157.188 83.8931 156.345 82.8878C155.866 82.3164 155.566 82.228 154.81 82.532C153.277 83.145 151.67 84.2126 149.991 83.5294C148.662 82.9891 147.417 83.2774 146.137 83.119C146.062 83.7294 146.687 83.5372 146.806 83.997C145.9 84.1892 145.039 84.5217 144.425 83.3995C144.245 83.0696 143.887 82.8463 143.64 82.5475C143.175 81.9839 142.854 81.7787 142.339 82.5995C141.887 83.3216 141.144 83.6879 140.167 83.6827C138.652 83.6749 137.115 83.8359 135.621 83.9372C134.502 84.0126 133.32 84.3606 132.139 84.1944C131.587 84.1165 130.82 83.8749 130.635 84.8931C130.571 85.2438 130.183 85.1035 130.062 84.8568C129.612 83.9372 128.108 83.6749 128.612 82.1397C127.92 82.6514 128.182 83.2385 128.152 83.7424C128.072 85.0723 127.642 85.3711 126.339 84.9451C127.624 83.1242 127.223 81.1189 126.995 79.1188C126.429 74.1834 126.038 69.2325 125.665 64.279C125.555 62.814 125.151 61.3879 125.166 59.8995C125.184 58.3384 125.182 56.7877 125.601 55.2655C125.999 53.8083 125.845 52.3303 125.516 50.8964C125.164 49.3742 124.909 47.8443 124.714 46.3013C124.737 45.5559 124.547 44.7117 125.534 44.3922C126.545 43.9194 127.234 42.0829 126.74 41.1192C126.421 40.501 125.915 40.4283 125.323 40.6932C124.547 41.0413 124.068 41.7115 123.547 42.3427C122.641 43.4389 121.97 43.5453 121.204 42.7583C120.464 41.9998 120.564 41.192 121.49 40.3088C122.114 39.7114 122.855 39.2646 123.516 38.7191C123.814 38.4723 124.112 38.2204 124.344 37.9061C124.549 37.6255 124.768 37.2827 124.418 36.9943C124.133 36.7606 123.824 36.9891 123.621 37.1969C122.662 38.1788 121.772 39.2256 120.759 40.1555C120.507 40.3867 120.297 40.6647 120.011 40.8595C119.566 41.1634 119.111 41.3842 118.594 41.0075C118.101 40.6491 117.867 40.1815 117.964 39.5529C118.075 38.8334 118.456 38.2775 118.949 37.7736C119.793 36.9138 120.657 36.0722 121.482 35.1942C121.713 34.9475 122.053 34.6565 121.875 34.3085C121.654 33.8695 121.199 34.0981 120.839 34.1526C120.286 34.2383 119.978 34.6565 119.649 35.067C118.844 36.0748 118.25 37.2515 117.319 38.1528C116.777 38.6775 116.072 39.4542 115.342 38.9399C114.617 38.4256 114.874 37.4151 115.206 36.6567C115.656 35.628 116.285 34.6903 116.967 33.8019C118.026 32.4226 118.777 30.8719 119.546 29.3264C119.718 28.9783 119.89 28.6146 119.787 28.2094C119.628 27.5834 119.245 27.3366 118.638 27.6328C118.283 27.8068 118 28.1003 117.844 28.4588C117.137 30.0849 116.07 31.5265 115.442 33.1863C114.858 34.7267 114.146 36.1995 113.365 37.6411C112.897 38.5035 112.879 39.3451 113.233 40.2543C114.866 44.4389 116.316 48.6885 117.694 52.9641C118.142 54.3537 119.024 55.6499 118.929 57.1591C118.741 60.1359 118.823 63.1205 118.592 66.0895C118.486 67.4298 118.456 68.7649 118.463 70.1027C118.474 72.0119 118.276 73.9029 117.985 75.7783C117.633 78.0434 117.635 80.3422 117.229 82.6021C117.062 83.5372 117.607 83.8801 118.443 83.7632C119.463 83.6203 120.482 83.4878 121.513 83.5684C122.749 83.6671 123.837 84.1035 124.634 85.1217C124.706 85.3295 124.688 85.5269 124.554 85.7087H124.572Z" fill="black"/>
<path d="M168.663 3.09098C169.231 3.12215 169.802 3.15332 170.37 3.18709C169.483 3.51178 168.565 3.66244 167.622 3.66244C162.857 3.66244 158.126 4.50924 153.349 4.22091C151.557 5.21837 149.618 4.64951 147.764 4.6547C142.861 4.67289 137.973 5.10928 133.098 5.4054C129.532 5.62359 125.93 5.28851 122.423 5.84178C119.106 6.36649 115.751 5.80022 112.521 6.38467C109.189 6.9873 105.854 6.29895 102.604 6.86002C97.5593 7.7302 92.4684 6.84444 87.4469 7.57175C86.3412 7.7328 85.2433 7.78215 84.1352 7.82891C79.7641 8.01074 75.3725 8.16919 71.0298 8.52765C68.4277 8.74325 65.8334 8.63675 63.2468 8.85494C59.012 9.2108 54.7336 9.14067 50.5271 9.54329C47.1177 9.86798 43.7057 9.47575 40.358 9.97708C36.6478 10.533 32.9324 10.2992 29.1219 10.4862C29.3688 10.6395 29.5179 10.733 29.8264 10.9252C27.3427 10.9252 25.044 10.9252 22.7454 10.9252C22.9768 10.5148 23.581 10.8343 23.7893 10.3797C26.1368 10.2316 28.4817 10.0576 30.8292 9.94071C47.3697 9.1095 63.9102 8.29387 80.4481 7.47045C92.2858 6.8808 104.124 6.29116 115.961 5.68853C132.031 4.8677 148.099 4.0287 164.169 3.21047C165.663 3.13514 167.162 3.12994 168.658 3.09358L168.663 3.09098Z" fill="#F50927"/>
<path d="M166.676 67.3908C166.547 66.6791 167.09 66.3466 167.658 66.1414C171.422 64.7777 175.048 63.0893 178.67 61.3931C179.01 61.2346 179.429 61.1151 179.789 61.1593C180.339 61.2242 181.056 61.1177 181.236 61.9282C181.401 62.6711 181.267 63.2841 180.514 63.6607C179.416 64.2114 178.38 64.9127 177.241 65.3491C174.392 66.4375 171.684 67.8687 168.787 68.8376C167.619 69.2273 166.668 68.6636 166.676 67.3908Z" fill="black"/>
<path d="M78.2137 75.2847C77.0053 75.0041 75.748 74.4872 74.4238 74.1729C72.5468 73.7287 70.6519 73.5001 68.7543 73.243C68.0652 73.1495 67.3505 73.069 67.0136 72.3806C66.4891 71.3026 67.3685 70.2376 68.6515 70.4039C71.7703 70.8117 74.8738 71.3156 77.8898 72.2507C78.2549 72.3624 78.5994 72.5391 78.9543 72.6845C79.6536 72.9702 79.9339 73.5261 79.7719 74.2301C79.6073 74.9548 79.0417 75.2457 78.2137 75.2847Z" fill="black"/>
<path d="M169.36 75.3574C168.455 75.3886 167.468 75.5315 167.257 74.2716C167.118 73.456 167.424 72.7858 168.293 72.6092C170.165 72.23 172.042 71.8819 173.926 71.5728C174.685 71.4481 175.284 71.7728 175.456 72.591C175.634 73.43 175.274 74.0431 174.477 74.2794C172.803 74.7808 171.126 75.2951 169.36 75.3522V75.3574Z" fill="black"/>
<path d="M76.6404 79.968C77.5018 80.0719 78.52 80.168 79.5253 80.3265C80.1912 80.433 80.7801 80.7317 80.7878 81.5318C80.7981 82.3864 80.3095 82.9578 79.4919 83.0228C77.9569 83.1422 76.4656 82.6695 74.9563 82.4721C74.2749 82.3812 74.0152 81.7214 74.1052 80.9733C74.1978 80.2018 74.6555 79.968 75.3343 79.968C75.7174 79.968 76.1005 79.968 76.6404 79.968Z" fill="black"/>
<path d="M100.37 61.3229C101.169 62.0061 101.892 62.7724 101.9 63.8971C101.928 67.3986 101.912 70.9027 101.905 74.4042C101.905 75.0925 101.784 75.7653 101.432 76.3731C101.432 72.9418 101.342 69.5078 101.46 66.079C101.519 64.3465 101.131 62.8139 100.37 61.3203V61.3229Z" fill="#F50927"/>
<path d="M112.208 50.3923C112.75 48.2675 112.01 46.4389 110.919 44.6907C111.413 44.6829 111.825 44.6076 111.457 43.9582C111.218 43.5322 111.092 43.0854 111.197 42.5919C112.339 44.9193 113.288 47.3142 113.732 49.8884C113.051 49.5195 112.771 50.3949 112.205 50.3923H112.208Z" fill="#F50927"/>
<path d="M210.926 92.987C210.934 90.3894 210.939 87.7893 210.947 85.1917C211.859 87.623 211.332 90.1453 211.384 92.6285C211.389 92.8675 211.145 92.9506 210.926 92.987Z" fill="#F50927"/>
<path d="M151.243 50.8989C150.513 51.6626 149.783 52.4236 149.052 53.1873C148.834 51.5405 148.772 50.0339 147.726 48.8105C149.158 49.2988 149.06 50.6755 149.369 51.8496C150.096 51.634 150.397 50.6911 151.246 50.9015L151.243 50.8989Z" fill="#F50927"/>
<path d="M14.0061 11.4342C14.8186 10.6082 15.8522 11.0082 16.7958 10.9459C17.5132 10.8965 18.2383 10.9589 18.9608 10.9719C19.0611 11.5693 18.6317 11.429 18.3231 11.4316C16.8858 11.4368 15.446 11.4342 14.0087 11.4368L14.0061 11.4342Z" fill="#F50927"/>
<path d="M188.338 122.09C189.012 121.305 189.686 120.524 190.354 119.739C190.73 119.298 190.992 119.459 191.21 119.892C191.39 120.246 191.449 120.62 191.419 121.012C190.758 120.303 190.231 120.168 189.768 121.251C189.531 121.804 189.025 122.178 188.336 122.09H188.338Z" fill="#F50927"/>
<path d="M130.198 74.8067C130.329 75.838 129.766 76.7108 129.596 78.0433C129.254 76.5549 129.064 75.4328 129.211 74.2769C129.473 74.5834 129.712 74.9288 130.198 74.8067Z" fill="#F50927"/>
<path d="M78.8027 60.7982C78.597 62.1151 78.3347 63.4087 79.2475 64.6322C79.5894 65.0919 79.1703 65.6062 78.8078 65.9959C78.8901 65.2712 78.6767 64.6244 78.4838 63.923C78.2061 62.9126 77.7073 61.7255 78.8027 60.7956V60.7982Z" fill="#F50927"/>
<path d="M210.898 84.1812C210.561 83.1604 209.345 82.9786 208.905 82.0564C210.057 82.298 211.021 82.7188 210.898 84.1812Z" fill="#F50927"/>
<path d="M111.177 28.0638C111.177 28.934 111.177 29.8042 111.174 30.6718C110.475 29.8016 110.367 28.9314 111.177 28.0638Z" fill="#F50927"/>
<path d="M114.244 125.688V123.913C114.547 124.732 115.388 125.264 115.326 126.191C114.869 126.238 114.859 125.3 114.244 125.688Z" fill="#F50927"/>
<path d="M106.51 38.4203C106.533 37.5631 106.556 36.7059 106.579 35.8487C107.33 36.8124 107.302 37.8333 106.51 38.4203Z" fill="#F50927"/>
<path d="M150.305 32.2641C150.2 31.2277 150.786 30.4407 151.238 29.6042C151.226 30.5965 151.058 31.5368 150.305 32.2641Z" fill="#F50927"/>
<path d="M65.4453 90.418C65.4505 90.8076 65.4453 91.2882 64.9774 91.3167C64.4477 91.3505 64.206 90.9115 64.134 90.405C64.5711 90.4102 65.0082 90.4128 65.4453 90.418Z" fill="#F50927"/>
<path d="M115.838 126.721C116.604 126.901 117.229 127.36 117.887 127.758C116.972 127.882 116.154 127.807 115.838 126.721Z" fill="#F50927"/>
<path d="M78.2755 59.237C78.6406 59.1799 79.0571 59.076 79.2216 59.5332C79.4042 60.0345 79.3605 60.5176 78.8026 60.7982C78.944 60.167 78.4554 59.7539 78.2755 59.2344V59.237Z" fill="#F50927"/>
<path d="M111.174 30.6745C111.68 31.1992 112.187 31.7239 112.693 32.2486C111.65 32.2512 111.133 31.7395 111.174 30.6745Z" fill="#F50927"/>
<path d="M89.6376 84.3813C90.0284 84.6332 90.2521 84.9891 90.0541 85.4359C89.8612 85.8723 89.4344 85.7398 89.0719 85.7086C89.1413 85.2125 89.7584 84.9579 89.6376 84.3813Z" fill="#F50927"/>
<path d="M156.89 80.9811C157.039 80.2096 156.622 79.3031 157.432 78.6927C157.527 79.5213 157.432 80.3057 156.89 80.9811Z" fill="#F50927"/>
<path d="M112.704 32.2563C113.146 32.7109 113.033 33.0797 112.231 33.8019C112.151 33.2122 112.696 32.82 112.704 32.2563Z" fill="#F50927"/>
<path d="M102.941 23.9285C102.432 23.5311 102.452 22.944 102.406 22.3829C103.386 22.6141 102.797 23.4012 102.941 23.9285Z" fill="#F50927"/>
<path d="M101.391 77.9108V79.1213C100.804 78.8538 100.73 78.3914 100.635 77.9472C100.889 77.9654 101.149 78.116 101.391 77.9108Z" fill="#F50927"/>
<path d="M52.0468 120.002C52.1574 121.726 52.2165 123.456 52.3991 125.173C52.4788 125.919 52.2628 126.14 51.5737 126.29C50.0207 126.628 48.4729 126.877 46.8736 126.849C46.1331 126.836 45.8323 126.633 45.7963 125.825C45.4903 119.357 45.3232 112.874 44.7395 106.432C44.359 102.239 44.5081 98.0548 44.2895 93.8754C44.2433 93.0052 44.3667 92.587 45.4157 92.322C48.0435 91.6545 50.6764 91.4519 53.3658 91.3558C58.7628 91.1635 62.7944 95.0053 63.8537 100.065C64.6148 103.699 63.6249 106.954 61.4085 109.842C61.0126 110.359 60.7117 110.946 60.1204 111.372C59.4441 111.861 59.8144 112.7 60.0201 113.406C61.0151 116.825 62.3033 120.137 63.63 123.43C63.9257 124.163 63.7457 124.628 63.1132 124.911C61.6297 125.573 60.1229 126.171 58.4799 126.337C57.8603 126.399 57.4952 126.191 57.2843 125.641C56.1942 122.794 55.3688 119.864 54.5974 116.916C54.4432 116.425 54.3506 115.913 54.1989 115.422C53.9444 114.601 53.3041 114.479 52.5611 114.557C51.7614 114.64 51.7614 115.23 51.8051 115.799C51.9131 117.199 51.5172 118.633 52.0494 120.007L52.0468 120.002Z" fill="#F50927"/>
<path d="M149.801 114.051C149.374 106.333 148.976 98.6133 148.508 90.8986C148.315 87.7036 148.251 87.7088 151.295 87.1087C154.532 86.4697 154.892 86.8022 155.131 90.0154C155.383 93.3844 155.35 96.756 155.386 100.128C155.396 101.115 155.753 101.504 156.733 101.559C160.487 101.764 160.803 101.348 160.333 97.5171C159.96 94.478 159.826 91.4103 159.564 88.3581C159.474 87.3009 159.983 86.771 160.939 86.5191C162.114 86.2074 163.307 86.2256 164.506 86.1918C165.691 86.158 166.223 86.6438 166.239 87.8594C166.295 92.2233 166.647 96.5742 166.763 100.941C166.912 106.551 167.37 112.152 167.666 117.76C167.753 119.44 167.352 119.866 165.683 119.991C164.788 120.059 163.886 120.027 162.989 120.056C161.937 120.09 161.42 119.617 161.384 118.526C161.284 115.632 161.14 112.739 161.014 109.845C160.942 108.18 160.744 107.996 159.091 108.029C158.79 108.035 158.492 108.04 158.191 108.053C156.329 108.128 155.841 108.603 155.913 110.52C156.028 113.5 156.178 116.479 156.409 119.451C156.502 120.643 156.118 121.092 154.946 121.118C153.969 121.142 153.002 121.428 152.025 121.505C150.464 121.628 150.092 121.308 149.981 119.76C149.847 117.864 149.773 115.962 149.672 114.063C149.714 114.063 149.755 114.058 149.796 114.056L149.801 114.051Z" fill="#F50927"/>
<path d="M124.544 85.2099C123.027 83.867 121.215 83.7942 119.345 83.9813C119.047 84.0098 118.751 84.0696 118.453 84.0878C116.941 84.1787 116.715 84.0228 116.918 82.5604C117.952 75.1002 118.019 67.5751 118.556 60.0838C118.805 56.6057 117.479 53.79 116.553 50.7456C115.458 47.1402 114.185 43.5972 112.786 40.0983C112.46 39.28 112.547 38.4748 112.976 37.6202C114.481 34.6434 115.887 31.6147 117.33 28.6067C117.366 28.5288 117.355 28.4145 117.412 28.3626C118.024 27.7885 118.384 26.5702 119.489 27.0949C120.572 27.6067 120.333 28.5574 119.89 29.5107C118.836 31.7783 117.391 33.8018 116.031 35.8747C115.429 36.789 115.201 37.7345 115.342 38.8878C116.46 38.5813 117.276 37.9839 117.877 36.9864C118.448 36.0435 119.168 35.1915 119.795 34.2824C120.369 33.4537 121.31 33.5213 122.001 33.6719C122.806 33.846 122.536 34.5915 122.089 35.0668C121.122 36.0929 120.114 37.0825 119.132 38.0956C118.746 38.493 118.384 38.8878 118.286 39.5008C118.204 40.0178 118.188 40.3788 118.664 40.7347C119.15 41.0983 119.487 40.862 119.79 40.5814C120.695 39.7398 121.634 38.9138 122.42 37.9657C122.778 37.5371 123.169 37.163 123.549 36.7682C123.955 36.35 124.513 36.1786 124.902 36.6279C125.298 37.0851 125.221 37.6929 124.704 38.1163C123.686 38.9476 122.634 39.7398 121.636 40.5944C121.148 41.0126 120.685 41.5061 121.153 42.2568C121.729 43.1816 122.346 43.2543 123.058 42.3945C123.686 41.6386 124.213 40.7866 125.123 40.3269C125.583 40.0957 126.036 39.8775 126.558 40.2541C127.092 40.6412 127.362 41.0905 127.262 41.7789C127.139 42.6283 127.064 43.4699 126.655 44.2673C126.437 44.6933 126.208 44.7089 125.853 44.6518C125.254 44.3037 125.305 43.6491 125.167 42.8361C124.943 44.1479 124.544 45.1869 125.041 46.2571C125.444 48.5403 125.912 50.8158 126.218 53.1146C126.326 53.9354 126.136 54.8368 125.917 55.655C125.347 57.7902 125.508 59.915 125.737 62.0709C126.156 66.0504 126.491 70.0402 126.861 74.0249C127.11 76.7237 127.308 79.4278 127.635 82.1188C127.789 83.402 127.537 84.3579 126.342 84.9423C126.246 85.0203 126.154 85.0982 126.059 85.1761C125.562 85.7294 125.053 85.6567 124.534 85.2125L124.544 85.2099Z" fill="#F50927"/>
<path d="M188.225 107.432C188.225 108.77 188.235 109.939 188.225 111.105C188.194 113.689 187.181 115.866 185.497 117.765C184.818 118.531 183.939 118.934 182.988 119.225C180.53 119.978 177.956 120.443 175.601 119.326C173.204 118.191 171.515 116.157 170.836 113.456C169.846 109.526 169.846 105.507 169.772 101.489C169.689 97.0833 169.427 92.6805 169.286 88.275C169.224 86.3347 169.317 86.2723 171.212 86.0359C172.06 85.9294 172.916 85.81 173.767 85.8152C175.356 85.8281 175.832 86.3087 175.873 87.9088C175.925 89.8543 175.914 91.8025 175.945 93.7507C176.022 98.6782 175.863 103.616 176.408 108.531C176.539 109.71 176.809 110.804 177.652 111.695C178.3 112.383 179.056 112.65 179.966 112.422C180.887 112.191 181.378 111.51 181.643 110.656C182.106 109.172 181.867 107.658 181.792 106.149C181.496 100.154 180.794 94.1923 180.326 88.2127C180.175 86.2593 180.486 85.9242 182.461 85.7398C183.481 85.6437 184.52 85.7009 185.538 85.5918C186.572 85.4827 186.927 85.997 186.996 86.9165C187.263 90.4907 187.647 94.0598 187.78 97.6392C187.904 100.964 188.487 104.266 188.225 107.435V107.432Z" fill="#F50927"/>
<path d="M83.9195 115.328C84.3231 117.882 85.2513 120.313 85.5882 122.89C85.7013 123.755 85.5342 124.147 84.6934 124.391C83.4875 124.739 82.2585 124.823 81.0294 124.947C80.0113 125.051 79.5176 124.467 79.3479 123.558C79.1345 122.415 78.9365 121.264 78.8157 120.108C78.7308 119.295 78.3168 118.942 77.5763 118.944C76.0388 118.952 74.5089 118.986 72.9945 119.373C72.2977 119.549 72.1177 119.877 72.0894 120.516C72.0354 121.76 72.1434 123.009 71.8426 124.248C71.6446 125.061 71.2101 125.428 70.4181 125.43C69.3048 125.433 68.1915 125.436 67.0782 125.438C66.1808 125.438 65.7591 125.059 65.8748 124.082C66.3814 119.799 66.8468 115.51 67.3404 111.224C67.8547 106.775 68.77 102.377 69.0837 97.8989C69.1788 96.5274 69.5465 95.1819 69.6365 93.7974C69.6931 92.9532 70.1173 92.483 71.1021 92.3661C73.1153 92.1298 75.126 92.2622 77.1315 92.1531C78.3168 92.0882 78.4454 93.0181 78.8054 93.761C79.0368 94.5273 79.0959 95.3299 79.3093 96.0988C79.7336 96.6391 79.5279 97.3508 79.7979 97.9353C79.9547 98.5535 80.1115 99.1743 80.2684 99.7925C80.7569 100.387 80.4612 101.2 80.8212 101.832C81.4126 104.463 82.0039 107.097 82.6004 109.728C82.8653 110.9 83.143 112.071 83.4129 113.243C83.7781 113.889 83.5621 114.676 83.9169 115.326L83.9195 115.328Z" fill="#F50927"/>
<path d="M134.374 117.474C133.949 111.102 133.51 104.731 133.111 98.3561C132.944 95.6858 132.9 93.0052 132.736 90.3349C132.656 89.0517 133.278 88.3919 134.417 88.3997C137.626 88.4205 140.773 87.6724 143.985 87.7296C145.165 87.7503 145.71 88.1971 145.725 89.405C145.738 90.5245 145.877 91.6441 145.923 92.7662C145.993 94.4936 145.887 94.6702 144.147 94.8936C142.92 95.0495 141.673 95.0702 140.434 95.0676C139.418 95.0676 138.909 95.4183 139.002 96.5171C139.107 97.7639 139.143 99.0159 139.213 100.268C139.254 100.977 139.552 101.387 140.334 101.336C141.401 101.263 142.473 101.281 143.535 101.169C144.645 101.052 145.265 101.45 145.332 102.606C145.401 103.769 145.486 104.933 145.527 106.099C145.558 107.019 145.119 107.531 144.172 107.616C142.984 107.723 141.804 107.92 140.616 108.022C139.953 108.079 139.701 108.422 139.732 109.029C139.809 110.58 139.904 112.131 139.994 113.682C140.035 114.391 140.578 114.354 141.03 114.318C142.393 114.206 143.751 114.064 145.108 113.905C146.857 113.702 147.566 114.289 147.625 116.095C147.664 117.261 147.62 118.43 147.654 119.596C147.674 120.329 147.391 120.752 146.659 120.822C143 121.176 139.346 121.609 135.664 121.63C134.628 121.635 134.404 120.869 134.338 120.077C134.266 119.22 134.322 118.349 134.322 117.487C134.34 117.487 134.358 117.484 134.376 117.482L134.374 117.474Z" fill="#F50927"/>
<path d="M99.3389 94.6468C99.4341 98.0392 99.3827 98.1041 95.9733 98.1171C92.3067 98.1301 92.6693 97.9716 92.6847 101.52C92.6975 104.437 92.8081 104.543 95.6261 104.39C95.6698 104.39 95.711 104.38 95.7547 104.377C99.2618 104.18 99.2875 104.206 99.3055 107.853C99.3184 110.388 99.2592 110.432 96.6983 110.7C95.855 110.788 95.0245 111.004 94.1837 111.136C93.4535 111.25 93.654 111.835 93.6515 112.253C93.6309 115.541 93.6977 118.83 93.9986 122.103C94.1143 123.35 93.6875 123.841 92.5356 123.945C91.4737 124.041 90.4195 124.267 89.3576 124.313C88.3342 124.358 87.8277 123.778 87.7814 122.711C87.6349 119.386 87.4523 116.064 87.2698 112.741C86.9972 107.738 86.7555 102.736 86.4084 97.7378C86.2979 96.1481 85.997 94.574 85.9867 92.9687C85.9816 91.9557 86.4084 91.5687 87.4009 91.3816C90.5352 90.792 93.7183 91.0492 96.8629 90.7063C98.7116 90.5063 99.3158 91.1816 99.3338 93.0934C99.3389 93.6129 99.3338 94.1324 99.3338 94.6494L99.3389 94.6468Z" fill="#F50927"/>
<path d="M110.405 89.7868C111.39 89.7868 112.375 89.7868 113.36 89.7868C114.272 89.7894 114.776 90.2258 114.854 91.1739C114.951 92.4207 115.095 93.665 115.208 94.9092C115.332 96.3015 114.704 97.021 113.329 97.0548C112.046 97.0885 110.758 97.1483 109.475 97.1093C108.582 97.0807 108.24 97.5015 108.181 98.3172C108.076 99.7484 108.207 101.169 108.377 102.585C108.446 103.175 108.824 103.494 109.446 103.447C110.385 103.375 111.323 103.312 112.259 103.229C113.977 103.076 114.429 103.453 114.54 105.154C114.602 106.102 114.658 107.05 114.72 107.996C114.787 109.048 114.383 109.637 113.254 109.596C112.262 109.559 111.316 109.874 110.349 110.017C109.259 110.178 109.071 110.736 109.073 111.689C109.086 114.934 109.369 118.165 109.572 121.399C109.678 123.067 109.657 123.033 107.991 123.168C107.019 123.246 106.057 123.472 105.088 123.599C103.931 123.752 103.389 123.155 103.417 122.041C103.497 118.835 103.052 115.658 102.885 112.466C102.54 105.868 102.098 99.2731 101.668 92.6805C101.553 90.8908 101.848 90.5063 103.625 90.3869C105.885 90.2362 108.122 89.753 110.403 89.7842L110.405 89.7868Z" fill="#F50927"/>
<path d="M201.181 91.974C200.929 92.4935 200.865 93.0468 200.914 93.6156C201.366 98.8601 201.559 104.12 202.086 109.359C202.33 111.804 202.33 114.274 202.441 116.731C202.49 117.835 202.176 118.485 200.875 118.549C199.723 118.607 198.571 118.664 197.419 118.656C195.99 118.646 195.614 118.238 195.589 116.783C195.53 113.412 195.53 110.04 195.424 106.668C195.293 102.395 195.095 98.1224 194.9 93.852C194.82 92.1142 194.54 91.8934 192.794 91.9844C189.531 92.1532 189.634 92.1428 189.238 88.7712C188.78 84.8801 189.582 85.2541 192.575 84.9606C196.321 84.5917 200.086 84.4541 203.85 84.3839C205.668 84.3502 205.701 84.3658 205.812 86.2178C206.077 87.2958 206.038 88.4075 206.151 89.5011C206.311 91.0648 206.228 91.122 204.765 91.4363C204.683 91.4493 204.598 91.4571 204.513 91.4597C203.423 91.774 202.235 91.4363 201.181 91.974Z" fill="#F50927"/>
<path d="M127.622 122.051C125.876 122.194 124.133 122.347 122.384 122.472C121.79 122.513 121.178 122.56 120.595 122.472C119.762 122.344 119.237 121.895 119.191 120.924C118.939 115.534 118.664 110.144 118.366 104.754C118.144 100.743 117.882 96.7353 117.64 92.7272C117.607 92.1662 117.543 91.6025 117.568 91.044C117.617 90.0414 118.15 89.4517 119.168 89.418C120.279 89.379 121.394 89.3946 122.505 89.3712C123.572 89.3478 124.053 89.8647 124.074 90.9375C124.128 93.6156 124.21 96.2937 124.29 98.9717C124.377 101.907 124.475 104.842 124.567 107.777C124.714 109.354 124.752 110.936 124.801 112.515C124.814 112.944 124.783 113.373 124.878 113.799C125.159 115.032 125.493 115.24 126.732 115.121C127.756 115.022 128.715 114.622 129.735 114.552C130.247 114.518 130.754 114.552 131.222 114.804H131.224C131.751 115.17 131.975 115.635 132.021 116.313C132.109 117.601 132.129 118.89 132.119 120.178C132.109 121.386 131.805 121.654 130.651 121.825C129.64 121.973 128.612 121.82 127.612 122.048L127.622 122.051Z" fill="#F50927"/>
<path d="M131.229 114.806C129.905 114.752 128.622 114.952 127.321 115.23C125.367 115.651 124.68 115.082 124.593 113.061C124.516 111.302 124.575 109.539 124.575 107.777C124.968 109.443 125.022 111.141 125.066 112.838C125.117 114.799 125.364 115.04 127.257 114.778C128.01 114.674 128.745 114.443 129.496 114.336C130.118 114.248 130.779 114.167 131.229 114.804V114.806Z" fill="#F50927"/>
<path d="M52.0472 120.001C51.7643 119.952 51.5766 119.809 51.5715 119.5C51.5586 118.126 51.5329 116.752 51.5484 115.378C51.5561 114.726 51.9546 114.357 52.5846 114.284C53.2865 114.204 54.0398 114.209 54.2841 115.032C54.4615 115.63 54.7624 116.243 54.5978 116.91C54.1761 116.596 54.1993 116.087 54.0347 115.653C53.8059 115.05 53.3662 114.663 52.6591 114.786C51.9263 114.913 52.042 115.497 52.0395 115.999C52.0317 117.331 52.042 118.666 52.0472 120.001Z" fill="#F50927"/>
<path d="M127.622 122.051C128.661 121.612 129.795 121.802 130.867 121.563C131.543 121.412 131.972 121.124 132.008 120.407C132.083 118.853 131.888 117.316 131.774 115.77C131.744 115.336 131.157 115.271 131.232 114.809C131.965 114.871 132.266 115.321 132.273 116.014C132.289 117.523 132.302 119.033 132.307 120.542C132.309 121.542 131.787 122.048 130.818 122.064C129.754 122.079 128.689 122.056 127.622 122.051Z" fill="#F50927"/>
<path d="M204.768 91.4363C206.094 91.083 206.213 90.192 205.914 89.0127C205.683 88.1036 205.732 87.1529 205.814 86.2178C206.552 87.701 206.37 89.3037 206.292 90.857C206.246 91.8233 205.339 91.3817 204.768 91.4363Z" fill="#F50927"/>
<path d="M201.181 91.9739C202.166 90.9634 203.39 91.5453 204.513 91.4596C203.449 91.9375 202.312 91.9505 201.181 91.9739Z" fill="#F50927"/>
<path d="M80.8235 101.834C80.227 101.268 80.3324 100.51 80.2707 99.7952C81.0498 100.31 80.8492 101.097 80.8235 101.834Z" fill="#F50927"/>
<path d="M83.9192 115.329C83.3047 114.744 83.4024 113.986 83.4153 113.245C84.0761 113.817 83.9398 114.588 83.9192 115.329Z" fill="#F50927"/>
<path d="M79.3118 96.1014C78.8592 95.3845 78.7667 94.587 78.8078 93.7636C79.3683 94.4571 79.3658 95.2754 79.3118 96.1014Z" fill="#F50927"/>
<path d="M79.8004 97.9379C79.4018 97.3898 79.2347 96.7794 79.3118 96.1015C80.1912 96.5197 79.7438 97.2963 79.8004 97.9379Z" fill="#F50927"/>
<path d="M124.544 85.2099C125.056 85.3294 125.565 85.384 126.069 85.1736C125.865 86.1996 125.081 85.5606 124.57 85.7086C124.562 85.5424 124.552 85.3762 124.544 85.2099Z" fill="#F50927"/>
<path d="M109.675 47.2571C109.983 47.8779 110.21 48.5169 110.135 49.2312C110.089 49.678 109.991 50.1585 109.541 50.2806C109.055 50.4131 108.795 49.9611 108.605 49.5845C108.42 49.2208 108.302 48.8208 108.106 48.3169C107.561 48.9585 107.636 49.5325 107.816 50.1715C108.209 51.5586 108.97 52.8236 109.158 54.2783C109.502 54.8393 109.276 55.5562 109.641 56.1121C110.186 57.7356 110.703 59.3591 110.621 61.1176C110.49 63.8658 111.094 66.5413 111.727 69.17C112.318 71.6273 112.156 74.1417 112.673 76.6016C113.123 78.7472 113.439 80.9265 114.095 83.0201C114.383 83.9397 114.195 84.2358 113.256 84.3163C110.269 84.5735 107.278 84.6696 104.28 84.7163C103.64 84.7267 103.478 84.4436 103.476 83.8643C103.458 80.5343 103.656 77.2146 103.841 73.8923C104.046 70.2194 103.987 66.5439 103.915 62.8709C103.884 61.3228 102.473 60.4007 101.712 59.1824C99.6342 55.8602 97.5592 52.5379 95.2555 49.3663C94.9932 49.0052 94.9598 48.5688 95.0086 48.1221C95.42 44.1842 96.0628 40.2827 96.8007 36.3941C96.9524 35.5967 97.5412 34.9421 98.2355 34.9577C99.0557 34.9759 99.3771 35.8331 99.3179 36.6123C99.1945 38.2436 99.0068 39.8904 98.4797 41.436C97.9038 43.1244 97.4821 44.7946 97.7392 46.5921C99.7473 46.3531 99.6985 44.5141 100.292 43.1997C100.588 42.5425 100.766 41.8204 100.91 41.1087C101.053 40.3944 101.681 40.306 102.144 40.1632C102.509 40.0515 102.938 40.4411 103.172 40.7996C103.447 41.2204 103.416 41.6204 103.113 42.1061C102.236 43.5166 101.447 44.9842 100.642 46.4388C100.38 46.9116 100.272 47.3584 100.768 47.8337C101.313 48.3584 101.694 48.5325 102.149 47.748C102.876 46.4882 103.658 45.2622 104.417 44.0205C104.573 43.7634 104.689 43.475 104.885 43.2543C105.301 42.7815 105.862 42.3373 106.427 42.8334C106.936 43.2776 106.615 43.8231 106.219 44.2985C105.45 45.2154 104.748 46.1895 103.977 47.1012C103.594 47.5558 103.208 48.0623 103.512 48.5948C103.774 49.0546 104.368 49.3221 104.933 49.3195C105.607 49.3195 105.805 48.7377 105.993 48.2052C106.036 48.0831 106.049 47.9532 106.075 47.8259C106.26 47.5896 106.425 47.3376 106.587 47.0856C107.62 45.4492 108.762 45.5089 109.675 47.2545V47.2571Z" fill="#F50927"/>
<path d="M143.021 51.3977C143.365 50.7769 144.018 50.608 144.6 50.4418C145.204 50.2704 145.877 50.2496 146.392 50.8054C146.916 51.3743 146.682 52.0237 146.567 52.6419C146.513 52.9225 146.286 53.164 146.178 53.4394C145.967 53.9719 145.736 54.5745 145.091 54.5407C144.345 54.5018 144.453 53.7615 144.324 53.2471C144.268 53.0212 144.443 52.6549 144.088 52.6081C143.687 52.5562 143.679 52.9562 143.574 53.2238C143.363 53.7537 143.227 54.2992 143.34 54.8654C144.044 58.4085 143.139 61.7152 141.846 64.9491C141.596 65.5751 141.512 66.1803 141.506 66.8323C141.488 71.3235 141.465 75.8172 141.429 80.3084C141.424 80.911 141.334 81.5137 141.306 82.1163C141.278 82.7787 140.892 83.0462 140.301 83.0332C137.477 82.9735 134.664 83.1657 131.854 83.4021C130.695 83.4982 130.584 83.0073 130.836 82.028C131.934 77.7446 133.155 73.4924 133.867 69.113C134.06 67.9337 134.562 66.8063 134.806 65.6323C135.423 62.6736 134.685 59.8163 134.068 56.9538C133.479 54.2212 132.934 51.4808 132.366 48.743C132.212 47.9949 132.561 47.3793 132.916 46.7974C134.778 43.7349 136.531 40.5971 138.825 37.8255C139.069 37.5294 139.287 37.2099 139.552 36.9371C139.956 36.5241 140.424 36.1553 141.013 36.5553C141.576 36.9397 141.702 37.532 141.483 38.1658C141.131 39.1996 140.511 40.0594 139.758 40.8387C138.061 42.5946 136.498 44.4518 135.534 46.7429C135.454 46.9351 135.408 47.1403 135.312 47.4416C136.652 47.4338 137.657 47.0416 138.408 45.9454C139.159 44.8519 140.064 43.8856 141.09 43.0388C141.728 42.5141 142.404 42.4595 142.89 43.1167C143.322 43.7038 143.121 44.2622 142.486 44.7558C141.17 45.774 139.915 46.8728 138.663 47.9741C138.223 48.3612 137.907 48.8781 138.452 49.421C138.94 49.9067 139.467 49.9664 140.046 49.4807C141.023 48.6573 142.046 47.8884 143.031 47.0754C143.553 46.6442 143.985 46.0389 144.782 46.2286C145.232 46.3351 145.373 46.7611 145.376 47.1299C145.376 47.9923 144.569 48.1663 144.026 48.5092C143.021 49.1404 141.915 49.6132 141.013 50.4132C140.514 50.8756 140.321 51.3847 140.869 51.9302C141.334 52.3951 141.872 52.2705 142.363 51.9692C142.604 51.8211 142.849 51.6445 143.021 51.3977Z" fill="#F50927"/>
<path d="M159.564 66.0452C159.206 68.8713 158.098 71.4013 156.504 73.7183C155.851 74.6664 155.468 75.6457 155.378 76.8094C155.29 77.9627 155.031 79.1057 154.807 80.2434C154.439 82.1006 152.539 83.2254 150.675 82.7318C149.21 82.3448 147.734 82.3968 146.232 82.5188C144.857 82.6305 144.736 82.3474 145.325 81.059C146.829 77.7575 148.194 74.3911 149.94 71.2065C150.356 70.448 150.446 69.6506 150.48 68.8479C150.629 65.0477 150.77 61.2475 150.827 57.4473C150.858 55.4758 151.249 53.8653 152.907 52.486C155.319 50.4755 157.455 48.1299 159.736 45.9557C160.214 45.4986 160.842 45.2154 161.479 45.7064C162.189 46.2545 162.022 46.9298 161.577 47.5299C160.551 48.9118 159.224 49.9923 157.898 51.0573C156.417 52.2444 154.853 53.3302 153.971 55.203C155.226 55.442 156.34 55.177 157.291 54.3588C158.132 53.6341 159.037 53.0263 159.991 52.4704C160.613 52.1093 161.145 51.8859 161.587 52.686C162.03 53.4886 161.814 54.1276 161.047 54.5199C159.952 55.0809 158.805 55.5407 157.705 56.0914C157.293 56.2966 156.89 56.5901 156.592 56.9356C156.252 57.3278 156.304 57.8265 156.62 58.2499C156.944 58.6811 157.306 58.6344 157.736 58.3642C159.15 57.4785 160.777 57.0992 162.3 56.4732C162.875 56.2368 163.469 55.8238 163.742 56.7122C163.976 57.4733 163.457 57.972 162.77 58.0811C161.531 58.2785 160.43 58.8837 159.24 59.1877C158.18 59.4578 158.427 60.2241 158.54 60.8163C158.702 61.6631 159.448 61.3151 159.903 61.1618C160.662 60.9046 161.343 60.4137 162.099 60.1487C163.243 59.7513 164.369 60.6968 164.079 61.8449C163.896 62.5645 163.76 63.3749 163.102 63.8918C162.312 64.3672 161.929 64.0814 161.832 63.2139C161.79 62.8528 161.963 62.4398 161.541 62.0839C160.232 63.0762 159.988 64.6087 159.564 66.0426V66.0452Z" fill="#F50927"/>
<path d="M89.5709 59.2137C89.8126 57.9175 88.581 57.624 87.9382 57.2447C85.8993 56.0395 83.85 54.8108 81.6362 53.9121C81.122 53.7043 80.7055 53.1796 80.3249 52.7302C79.9238 52.2601 79.6256 51.6652 80.1244 51.0938C80.5512 50.6028 81.1528 50.6548 81.6619 50.9509C83.6469 52.1068 85.7784 52.9874 87.5962 54.4576C88.8767 55.4966 90.2729 56.4109 91.6947 57.2473C93.3814 58.2396 93.3763 59.9852 93.6411 61.5333C94.2736 65.2686 94.7133 69.0688 95.8498 72.6612C96.8757 75.9029 98.403 79.0044 100.051 82.0046C100.195 82.2669 100.306 82.5345 100.429 82.802C101.491 85.1138 101.491 85.0879 98.8915 85.1814C97.2254 85.2411 95.5592 85.358 93.8982 85.5113C92.952 85.5996 92.4789 85.1632 92.2141 84.3138C91.705 82.6799 91.2319 81.0305 90.6277 79.4304C90.1032 78.0433 89.3498 76.7965 88.3239 75.6692C86.8249 74.0223 86.3749 71.7936 85.5496 69.7805C85.1202 68.7311 84.516 67.8583 83.598 67.144C83.1892 67.822 83.9966 68.1726 83.8809 68.7259C83.814 69.0506 83.9503 69.4272 83.5878 69.661C83.1841 69.9234 82.8241 69.7442 82.5284 69.5026C82.1685 69.2065 81.7828 68.8792 81.5617 68.4791C81.1528 67.7492 80.9934 66.9388 81.392 66.1284C81.7751 65.3491 82.4847 65.4348 83.1789 65.4556C83.8706 65.479 84.516 65.6322 85.1665 65.8946C85.6704 66.0972 86.3621 66.2556 86.5601 65.4972C86.7375 64.8192 86.6526 64.1101 85.7938 63.8399C84.9325 63.5698 84.0506 63.4217 83.1507 63.3776C82.8935 63.3646 82.6287 63.3854 82.3844 63.3204C81.7545 63.1568 80.7877 63.1775 80.9291 62.2502C81.0834 61.2346 81.9679 61.6528 82.5927 61.8008C83.9914 62.1281 85.3722 62.5308 86.776 62.8321C87.172 62.9178 87.7917 63.1568 87.9768 62.5152C88.1696 61.8424 87.9639 61.1722 87.28 60.8943C86.2155 60.4631 85.1279 60.0501 84.012 59.8007C83.3409 59.6501 82.729 59.3358 82.0579 59.2241C81.5977 59.1487 81.3868 58.8994 81.3997 58.4318C81.4125 57.9695 81.7031 57.7902 82.0836 57.6084C83.3564 57.0032 84.2768 58.0188 85.3439 58.3149C85.9404 58.4812 86.4675 58.9046 87.0254 59.2137C87.8765 59.715 88.725 59.741 89.5709 59.2033V59.2137Z" fill="#F50927"/>
<path d="M148.225 63.4114C148.21 65.1829 148.161 66.9544 148.192 68.7233C148.207 69.6611 147.685 70.3364 147.31 71.1027C146.369 73.0223 145.474 74.9652 144.559 76.9004C144.381 77.2745 144.237 77.6823 143.669 77.9758C143.461 75.7107 143.592 73.5418 143.684 71.3728C143.684 71.3287 143.702 71.2871 143.7 71.2456C143.481 68.0142 144.304 64.9855 145.345 61.9697C145.746 60.8138 145.831 59.515 145.875 58.276C145.914 57.2396 146.292 56.5564 147.179 56.1148C147.976 55.6966 148.418 55.9564 148.439 56.8474C148.493 59.0397 148.477 61.232 148.22 63.414L148.225 63.4114Z" fill="#F50927"/>
<path d="M112.208 50.3925C112.727 50.0704 112.619 49.4262 112.904 48.9664C113.426 49.0729 113.079 49.9431 113.735 49.8885C114.403 51.699 114.974 53.5563 115.771 55.3096C116.64 57.2266 116.203 59.1436 116.036 61.0554C115.82 63.5179 115.782 65.983 115.823 68.4428C115.856 70.4403 115.154 72.321 115.252 74.5289C114.607 73.8535 114.375 73.2509 114.344 72.6275C114.123 68.4065 112.892 64.3049 112.958 60.0346C112.984 58.4423 112.56 56.7902 112.058 55.2577C111.506 53.5641 111.256 51.99 112.208 50.3951V50.3925Z" fill="#F50927"/>
<path d="M134.962 38.893C134.592 37.9397 135.109 37.2176 135.299 36.4383C136.364 32.0537 137.415 27.6638 138.47 23.2766C138.49 23.1934 138.495 23.1051 138.526 23.0246C138.786 22.3544 141.378 20.9647 142.09 21.0738C143.946 21.357 145.772 21.7596 147.577 22.2895C148.451 22.5467 149.101 22.8298 148.981 23.913C148.939 24.2688 149.076 24.713 149.379 24.8117C150.562 25.1962 150.12 25.9105 149.86 26.6612C148.384 30.9108 147.145 35.2331 146.062 39.6022C145.569 41.5971 145.078 41.7633 142.535 40.5347C145.265 40.9165 145.196 39.0878 145.648 37.628C146.728 34.1395 147.289 30.5133 148.464 27.0534C149.137 25.0689 148.212 23.3909 146.199 22.8688C145.373 22.6558 144.548 22.435 143.715 22.2557C141.118 21.6999 139.717 22.5545 139.03 25.1624C138.025 28.986 137.068 32.8226 136.066 36.6462C135.86 37.4254 136.086 38.4333 134.965 38.893H134.962Z" fill="#F50927"/>
<path d="M163.04 50.26C164.189 50.2652 164.608 49.4963 165.048 48.8001C167.231 45.322 169.288 41.7686 171.044 38.0489C171.571 36.9319 170.887 35.0227 169.944 34.2227C168.763 33.2226 167.329 32.7811 165.932 32.2719C164.925 31.9031 163.13 32.7785 162.577 33.7551C160.428 37.545 158.216 41.2932 155.771 44.8986C155.596 45.1558 155.581 45.7143 155.131 45.4883C154.642 45.2441 154.802 44.7791 155.049 44.3739C156.113 42.6206 157.18 40.8672 158.224 39.1009C159.481 36.9683 160.718 34.8227 161.95 32.672C162.292 32.0771 162.672 31.5992 163.441 31.6953C163.523 31.7057 163.639 31.7161 163.693 31.6719C165.737 29.9134 167.01 32.207 168.622 32.6616C169.216 32.8278 169.722 33.3058 170.27 33.6383C171.211 34.2071 172.548 34.4954 171.995 36.1241C171.985 36.1553 172.013 36.2098 172.039 36.2384C173.597 37.9969 171.949 39.1529 171.227 40.4464C170.666 41.4491 169.82 42.3063 169.352 43.3427C168.249 45.7922 166.447 47.7793 165.171 50.1041C164.649 51.0522 164.004 51.2678 163.04 50.2574V50.26Z" fill="#F50927"/>
<path d="M80.1014 55.8966C78.9238 56.907 78.335 56.9694 77.5533 55.8862C75.0721 52.4522 72.4495 49.1196 69.886 45.7454C69.2252 44.8752 68.5285 44.0128 69.3615 42.8595C69.4258 42.7712 69.4566 42.5738 69.4052 42.4958C68.5156 41.1373 69.5672 40.5165 70.4234 39.9165C71.8813 38.893 73.1 37.5449 74.7327 36.7604C75.3395 36.4695 75.8718 36.1552 76.4837 36.7267C76.6251 36.8566 76.9003 36.9605 77.0725 36.9137C78.4404 36.5526 78.9469 37.5527 79.5126 38.454C81.3561 41.3893 83.1842 44.3323 85.0329 47.2623C85.488 47.9845 86.0228 48.6572 86.4805 49.3793C86.7273 49.7716 86.9947 50.2157 86.5988 50.6859C86.4111 50.9093 86.1437 50.9301 85.8891 50.8833C85.2541 50.7638 85.4983 50.2443 85.434 49.8469C85.2438 48.6572 84.3798 47.8 83.773 46.8623C81.9449 44.031 79.9394 41.3139 77.957 38.5891C77.0288 37.3137 75.8101 37.0851 74.4962 37.9371C73.1746 38.7943 71.907 39.7424 70.6523 40.7009C69.8783 41.2906 69.7241 43.6465 70.4466 44.5921C72.9509 47.878 74.9616 51.5275 77.7153 54.6342C78.3041 55.2966 78.8801 55.8342 80.0988 55.8992L80.1014 55.8966Z" fill="#F50927"/>
<path d="M93.8675 39.5451C92.3454 35.7578 90.9286 32.22 89.5016 28.6873C89.1005 27.6924 88.684 26.7054 88.2546 25.7235C88.018 25.1858 88.0026 24.7286 88.5297 24.3572C88.6326 24.2845 88.7534 24.1832 88.7868 24.0715C89.661 21.1336 92.4636 21.2349 94.608 20.318C95.2277 20.0531 95.9039 19.8946 96.5724 19.7751C97.0583 19.6894 97.6214 19.6089 97.8323 20.3128C97.876 20.4583 98.0534 20.6765 98.1614 20.6687C100.321 20.5518 100.013 22.422 100.403 23.6117C101.689 27.5288 102.851 31.4849 104.103 35.415C104.713 37.3268 104.281 37.8644 102.044 37.7943C102.008 37.267 102.512 37.3891 102.754 37.2306C103.291 36.8748 103.517 36.4877 103.296 35.828C101.802 31.355 100.342 26.869 98.8376 22.4012C98.3954 21.0843 96.7395 20.4765 95.1917 20.9778C94.0552 21.3466 92.9213 21.7155 91.7848 22.0817C89.913 22.6818 88.936 24.7312 89.7613 26.5729C91.3554 30.1367 92.2194 33.9889 94.0552 37.4566C94.3509 38.0151 94.356 38.6879 93.8726 39.5425L93.8675 39.5451Z" fill="#F50927"/>
<path d="M125.015 14.6476C124.935 14.619 124.804 14.6112 124.781 14.5566C124.02 12.7721 122.441 13.089 121.006 13.0553C120.238 13.0371 119.466 13.0631 118.695 13.0579C116.473 13.0423 115.162 14.154 115.021 16.4295C114.802 19.918 114.717 23.4169 114.558 26.9106C114.519 27.7704 114.422 28.6302 114.321 29.4848C114.29 29.7523 114.314 30.1757 113.856 30.09C113.493 30.0199 113.447 29.6588 113.47 29.3601C113.524 28.6302 113.686 27.9029 113.694 27.1755C113.73 23.4143 113.768 19.6556 113.987 15.8996C114.041 14.9904 113.933 14.0242 115.213 13.8709C115.355 13.8553 115.563 13.6787 115.591 13.5462C115.91 11.9721 117.157 12.2215 118.219 12.2033C119.674 12.1773 121.13 12.2344 122.585 12.2604C123.611 12.2786 124.665 12.2163 124.981 13.5956C125.143 14.2969 126.144 13.8865 126.388 14.5515C125.958 15.0034 125.478 14.6865 125.017 14.6476H125.015Z" fill="#F50927"/>
<path d="M125.015 14.6475C125.431 14.0423 125.94 14.7722 126.385 14.5514C126.804 15.419 126.578 16.3151 126.483 17.1983C126.038 21.3414 125.568 25.4819 125.141 29.6276C125.02 30.812 124.094 31.2952 122.384 30.9601C122.415 30.5549 122.765 30.4614 123.022 30.4614C124.354 30.4614 124.454 29.6042 124.5 28.5522C124.691 24.248 124.927 19.9439 125.184 15.6424C125.208 15.2683 125.043 14.98 125.012 14.6475H125.015Z" fill="#F50927"/>
<path d="M148.225 63.4114C148.22 61.31 148.187 59.2085 148.228 57.1071C148.243 56.2915 147.927 56.0188 147.181 56.1123C147.618 55.4707 148.058 54.8291 148.721 53.8576C148.693 57.3097 148.912 60.3774 148.225 63.4088V63.4114Z" fill="#F50927"/>
<path d="M159.564 66.0452C159.484 64.2009 160.484 62.3281 161.945 61.554C162.631 62.1852 161.094 63.9126 163.102 63.8944C162.93 64.5984 162.246 64.788 161.847 64.5542C161.166 64.1542 161.693 63.3048 161.5 62.6164C160.739 63.0814 160.441 63.7905 160.217 64.6165C160.086 65.1049 160.207 65.775 159.561 66.0452H159.564Z" fill="#F50927"/>
<path d="M125.051 46.2544C124.02 45.0258 124.724 43.7322 124.92 42.4594C124.943 42.314 125.113 42.1763 125.316 42.2308C125.527 42.2854 125.555 42.4776 125.545 42.6361C125.498 43.3348 125.619 43.9998 125.863 44.6492C124.562 44.6492 125.257 45.6856 125.051 46.2518V46.2544Z" fill="#F50927"/>
<path d="M109.675 47.2572C108.268 45.761 107.728 45.7921 106.564 47.465C106.432 47.6546 106.294 47.7845 106.075 47.8286C105.985 47.2442 106.456 46.8857 106.687 46.4545C107.07 45.735 107.816 45.5687 108.567 45.7636C109.289 45.9506 109.729 46.4389 109.675 47.2572Z" fill="#F50927"/>
<path d="M143.021 51.3976C142.121 52.6678 141.025 52.8289 140.493 51.7509C140.195 51.1457 140.174 50.595 141.015 50.4132C141.015 50.8885 140.467 51.421 141.048 51.8262C141.812 52.3535 142.355 51.5171 143.021 51.3976Z" fill="#F50927"/>
<path d="M89.5707 59.2137C88.9047 59.9929 87.758 59.9981 87.0252 59.2241C87.8737 59.3539 88.7248 59.3539 89.5707 59.2137Z" fill="#F50927"/>
<path d="M109.641 56.1122C109.106 55.6005 109.078 54.9537 109.158 54.2783C109.842 54.7485 109.644 55.4576 109.641 56.1122Z" fill="#F50927"/>
<path d="M57.2178 102.652C57.1047 106.123 55.9297 107.71 53.3173 108.601C52.0369 109.037 51.6795 108.762 51.4738 107.435C51.0521 104.738 51.1344 102.003 50.8104 99.3016C50.7204 98.5613 51.029 98.2366 51.7695 98.0781C54.4949 97.4989 57.3464 98.6808 57.2178 102.65V102.652Z" fill="black"/>
<path d="M74.5501 100.756C75.2932 104.117 76.044 107.328 76.7047 110.557C77.1778 112.871 77.1239 112.882 74.8226 112.993C73.0511 113.079 73.0022 113.076 73.1308 111.318C73.3545 108.224 73.6425 105.133 73.9124 102.042C73.9484 101.626 73.9561 101.18 74.5527 100.756H74.5501Z" fill="black"/>
</g>
<defs>
<clipPath id="clip0_392_3591">
<rect width="243.312" height="141.824" fill="white" transform="translate(0.844055)"/>
</clipPath>
</defs>
</svg>
