<svg width="178" height="91" viewBox="0 0 178 91" fill="none" xmlns="http://www.w3.org/2000/svg">
<g clip-path="url(#clip0_1289_1582)">
<path d="M160.535 5.84109C162.368 11.3025 166.697 15.6249 172.159 17.4576V72.8165C166.697 74.6492 162.368 78.9789 160.535 84.4403L17.4649 84.4403C15.6322 78.9789 11.3025 74.6492 5.84109 72.8165L5.84109 17.4576C11.3025 15.6249 15.6322 11.3025 17.4649 5.84109L160.535 5.84109ZM165.427 0L12.573 0C12.573 6.9363 6.9436 12.5656 0 12.5656L0 77.7084C6.9436 77.7084 12.573 83.3378 12.573 90.2814L165.427 90.2814C165.427 83.3378 171.056 77.7084 178 77.7084V12.5656C171.056 12.5656 165.427 6.9363 165.427 0Z" fill="#FFE8E8"/>
<path d="M154.95 12.2883C156.636 16.8517 160.63 20.4732 165.668 21.9991V68.2825C160.63 69.8158 156.644 73.43 154.95 78.0006L23.0504 78.0006C21.3638 73.43 17.37 69.8158 12.332 68.2825L12.332 21.9991C17.37 20.4659 21.3565 16.8517 23.0504 12.2883L154.95 12.2883Z" fill="#FFE8E8"/>
</g>
<defs>
<clipPath id="clip0_1289_1582">
<rect width="178" height="90.2814" fill="white"/>
</clipPath>
</defs>
</svg>
