<svg width="20" height="20" viewBox="0 0 20 20" fill="none" xmlns="http://www.w3.org/2000/svg">
<path d="M5.83333 2.49992V0.833252H7.5V2.49992H12.5V0.833252H14.1667V2.49992H17.5C17.9602 2.49992 18.3333 2.87302 18.3333 3.33325V7.49992H16.6667V4.16659H14.1667V5.83325H12.5V4.16659H7.5V5.83325H5.83333V4.16659H3.33333V15.8333H8.33333V17.4999H2.5C2.03977 17.4999 1.66667 17.1268 1.66667 16.6666V3.33325C1.66667 2.87302 2.03977 2.49992 2.5 2.49992H5.83333ZM14.1667 9.99992C12.3257 9.99992 10.8333 11.4923 10.8333 13.3333C10.8333 15.1742 12.3257 16.6666 14.1667 16.6666C16.0076 16.6666 17.5 15.1742 17.5 13.3333C17.5 11.4923 16.0076 9.99992 14.1667 9.99992ZM9.16667 13.3333C9.16667 10.5718 11.4052 8.33325 14.1667 8.33325C16.9281 8.33325 19.1667 10.5718 19.1667 13.3333C19.1667 16.0947 16.9281 18.3333 14.1667 18.3333C11.4052 18.3333 9.16667 16.0947 9.16667 13.3333ZM13.3333 10.8333V13.6784L15.2441 15.5892L16.4226 14.4107L15 12.9881V10.8333H13.3333Z" fill="#FDFDFF"/>
</svg>
