<svg width="25" height="24" viewBox="0 0 25 24" fill="none" xmlns="http://www.w3.org/2000/svg">
<path d="M16.5 13C13.7386 13 11.5 11.8807 11.5 10.5C11.5 9.11929 13.7386 8 16.5 8C19.2614 8 21.5 9.11929 21.5 10.5C21.5 11.8807 19.2614 13 16.5 13Z" stroke="#464646" stroke-width="1.5" stroke-linecap="round" stroke-linejoin="round"/>
<path d="M11.5 14.5C11.5 15.8807 13.7386 17 16.5 17C19.2614 17 21.5 15.8807 21.5 14.5" stroke="#464646" stroke-width="1.5" stroke-linecap="round" stroke-linejoin="round"/>
<path d="M3.5 9.5C3.5 10.8807 5.73858 12 8.5 12C9.62583 12 10.6647 11.814 11.5005 11.5" stroke="#464646" stroke-width="1.5" stroke-linecap="round" stroke-linejoin="round"/>
<path d="M3.5 13C3.5 14.3807 5.73858 15.5 8.5 15.5C9.62561 15.5 10.6643 15.314 11.5 15.0002" stroke="#464646" stroke-width="1.5" stroke-linecap="round" stroke-linejoin="round"/>
<path d="M3.5 5.5V16.5C3.5 17.8807 5.73858 19 8.5 19C9.62563 19 10.6643 18.8139 11.5 18.5" stroke="#464646" stroke-width="1.5" stroke-linecap="round" stroke-linejoin="round"/>
<path d="M13.5 8.5V5.5" stroke="#464646" stroke-width="1.5" stroke-linecap="round" stroke-linejoin="round"/>
<path d="M11.5 10.5V18.5C11.5 19.8807 13.7386 21 16.5 21C19.2614 21 21.5 19.8807 21.5 18.5V10.5" stroke="#464646" stroke-width="1.5" stroke-linecap="round" stroke-linejoin="round"/>
<path d="M8.5 8C5.73858 8 3.5 6.88071 3.5 5.5C3.5 4.11929 5.73858 3 8.5 3C11.2614 3 13.5 4.11929 13.5 5.5C13.5 6.88071 11.2614 8 8.5 8Z" stroke="#464646" stroke-width="1.5" stroke-linecap="round" stroke-linejoin="round"/>
</svg>
