<svg width="20" height="20" viewBox="0 0 20 20" fill="none" xmlns="http://www.w3.org/2000/svg">
<path d="M10.0003 13.3333C11.8412 13.3333 13.3337 11.8409 13.3337 10C13.3337 8.15906 11.8412 6.66668 10.0003 6.66668C8.15936 6.66668 6.66697 8.15906 6.66697 10C6.66697 11.8409 8.15936 13.3333 10.0003 13.3333ZM17.5041 3.33578H2.50407C2.04383 3.33578 1.67073 3.70888 1.67073 4.16912V15.8358C1.67073 16.296 2.04383 16.6691 2.50407 16.6691H17.5041C17.9643 16.6691 18.3374 16.296 18.3374 15.8358V4.16912C18.3374 3.70888 17.9643 3.33578 17.5041 3.33578ZM3.3374 13.0386V6.96144C4.27554 6.68084 5.0153 5.94078 5.29546 5.00245H14.7052C14.9861 5.94328 15.729 6.6848 16.6707 6.96368V13.0363C15.7274 13.3157 14.9835 14.0593 14.7037 15.0024H5.29692C5.01787 14.0618 4.27717 13.3197 3.3374 13.0386Z" fill="#A4A7AE"/>
</svg>
