<svg width="20" height="20" viewBox="0 0 20 20" fill="none" xmlns="http://www.w3.org/2000/svg">
<path d="M2.50407 3.33594H17.5041C17.9643 3.33594 18.3374 3.70903 18.3374 4.16927V15.8359C18.3374 16.2962 17.9643 16.6692 17.5041 16.6692H2.50407C2.04383 16.6692 1.67073 16.2962 1.67073 15.8359V4.16927C1.67073 3.70903 2.04383 3.33594 2.50407 3.33594ZM5.41697 5.00016H3.33364V7.0835C4.48423 7.0835 5.41697 6.15075 5.41697 5.00016ZM14.5837 5.00016C14.5837 6.15075 15.5164 7.0835 16.667 7.0835V5.00016H14.5837ZM3.33364 12.9168V15.0002H5.41697C5.41697 13.8496 4.48423 12.9168 3.33364 12.9168ZM14.5837 15.0002H16.667V12.9168C15.5164 12.9168 14.5837 13.8496 14.5837 15.0002ZM10.0003 13.3335C11.8412 13.3335 13.3337 11.8411 13.3337 10.0002C13.3337 8.15921 11.8412 6.66683 10.0003 6.66683C8.15936 6.66683 6.66697 8.15921 6.66697 10.0002C6.66697 11.8411 8.15936 13.3335 10.0003 13.3335Z" fill="#FDFDFF"/>
</svg>
