<svg width="18" height="19" viewBox="0 0 18 19" fill="none" xmlns="http://www.w3.org/2000/svg">
<path d="M4.3826 4.24954C5.61096 3.0424 7.26642 2.3693 8.98863 2.37677C10.7108 2.38424 12.3604 3.07166 13.5782 4.28941C14.7961 5.50716 15.4836 7.15665 15.4912 8.87886C15.4989 10.6011 14.8259 12.2566 13.6189 13.485L12.7279 14.3655C12.0719 15.0095 11.2204 15.8378 10.1734 16.8503C9.85858 17.1545 9.43793 17.3244 9.0002 17.3243C8.56248 17.3241 8.14194 17.1539 7.82735 16.8495L5.2091 14.3025C4.8801 13.9795 4.6046 13.707 4.3826 13.485C3.15839 12.2601 2.4707 10.5991 2.4707 8.86729C2.4707 7.13546 3.15839 5.4745 4.3826 4.24954ZM12.8224 5.04604C12.3217 4.53849 11.7256 4.13501 11.0683 3.85881C10.411 3.58262 9.70564 3.43918 8.99272 3.43675C8.27979 3.43432 7.57343 3.57294 6.9143 3.84465C6.25517 4.11635 5.65631 4.51576 5.15219 5.01988C4.64807 5.52399 4.24866 6.12286 3.97696 6.78199C3.70526 7.44111 3.56663 8.14748 3.56906 8.8604C3.57149 9.57333 3.71494 10.2787 3.99113 10.936C4.26732 11.5932 4.67081 12.1894 5.17835 12.69L6.2936 13.7903C7.06344 14.5425 7.83545 15.2925 8.6096 16.0403C8.71451 16.1418 8.85476 16.1985 9.00073 16.1985C9.1467 16.1985 9.28695 16.1418 9.39185 16.0403L11.9374 13.5653C12.2899 13.2203 12.5849 12.9285 12.8224 12.69C13.836 11.6764 14.4054 10.3016 14.4054 8.86804C14.4054 7.43452 13.836 6.05971 12.8224 5.04604ZM9.0011 6.44854C9.34587 6.44864 9.68725 6.51664 10.0057 6.64867C10.3242 6.7807 10.6136 6.97416 10.8573 7.21802C11.101 7.46188 11.2943 7.75136 11.4262 8.06992C11.558 8.38848 11.6258 8.72989 11.6257 9.07466C11.6256 9.41943 11.5576 9.76081 11.4256 10.0793C11.2936 10.3978 11.1001 10.6871 10.8562 10.9309C10.6124 11.1746 10.3229 11.3679 10.0043 11.4997C9.68579 11.6316 9.34437 11.6994 8.9996 11.6993C8.30331 11.6991 7.63562 11.4223 7.1434 10.9298C6.65119 10.4373 6.37478 9.76946 6.37498 9.07316C6.37518 8.37687 6.65197 7.70918 7.14446 7.21696C7.63696 6.72475 8.30481 6.44834 9.0011 6.44854ZM9.00035 7.57354C8.60253 7.57354 8.221 7.73157 7.93969 8.01288C7.65839 8.29418 7.50035 8.67571 7.50035 9.07354C7.50035 9.47136 7.65839 9.85289 7.93969 10.1342C8.221 10.4155 8.60253 10.5735 9.00035 10.5735C9.39818 10.5735 9.77971 10.4155 10.061 10.1342C10.3423 9.85289 10.5004 9.47136 10.5004 9.07354C10.5004 8.67571 10.3423 8.29418 10.061 8.01288C9.77971 7.73157 9.39818 7.57354 9.00035 7.57354Z" fill="#888888"/>
</svg>
