<svg width="20" height="20" viewBox="0 0 20 20" fill="none" xmlns="http://www.w3.org/2000/svg">
<g clip-path="url(#clip0_1_4348)">
<path d="M16.6151 6.66668H17.5C18.4205 6.66668 19.1667 7.41287 19.1667 8.33334V11.6667C19.1667 12.5872 18.4205 13.3333 17.5 13.3333H16.6151C16.205 16.6219 13.3997 19.1667 10 19.1667V17.5C12.7614 17.5 15 15.2614 15 12.5V7.50001C15 4.73859 12.7614 2.50001 10 2.50001C7.23858 2.50001 5 4.73859 5 7.50001V13.3333H2.5C1.57953 13.3333 0.833334 12.5872 0.833334 11.6667V8.33334C0.833334 7.41287 1.57953 6.66668 2.5 6.66668H3.38491C3.79499 3.37809 6.60032 0.833344 10 0.833344C13.3997 0.833344 16.205 3.37809 16.6151 6.66668ZM2.5 8.33334V11.6667H3.33333V8.33334H2.5ZM16.6667 8.33334V11.6667H17.5V8.33334H16.6667ZM6.4662 13.1541L7.34965 11.7406C8.11801 12.2218 9.0265 12.5 10 12.5C10.9735 12.5 11.882 12.2218 12.6503 11.7406L13.5338 13.1541C12.5093 13.7958 11.298 14.1667 10 14.1667C8.702 14.1667 7.49068 13.7958 6.4662 13.1541Z" fill="#A4A7AE"/>
</g>
<defs>
<clipPath id="clip0_1_4348">
<rect width="20" height="20" fill="white"/>
</clipPath>
</defs>
</svg>
