<svg width="22" height="22" viewBox="0 0 22 22" fill="none" xmlns="http://www.w3.org/2000/svg">
<path d="M9.16667 13.4384V14.9289C9.16321 15.2429 9.07911 15.5508 8.92245 15.8231C8.76579 16.0953 8.54181 16.3227 8.272 16.4835C7.69921 16.9078 7.23327 17.4598 6.9112 18.0956C6.58912 18.7315 6.41979 19.4337 6.41667 20.1465" stroke="#464646" stroke-width="1.375" stroke-linecap="round"/>
<path d="M12.8333 13.4384V14.9289C12.8368 15.2429 12.9209 15.5508 13.0775 15.8231C13.2342 16.0953 13.4582 16.3227 13.728 16.4835C14.3008 16.9078 14.7667 17.4598 15.0888 18.0956C15.4109 18.7315 15.5802 19.4337 15.5833 20.1465" stroke="#464646" stroke-width="1.375" stroke-linecap="round"/>
<path d="M16.5 8.24996H17.875C18.4828 8.24996 19.0657 8.00852 19.4955 7.57875C19.9252 7.14897 20.1667 6.56608 20.1667 5.95829C20.1667 5.3505 19.9252 4.76761 19.4955 4.33784C19.0657 3.90807 18.4828 3.66663 17.875 3.66663H16.5" stroke="#464646" stroke-width="1.375" stroke-linecap="round"/>
<path d="M3.66667 20.1666H18.3333" stroke="#464646" stroke-width="1.375" stroke-linecap="round"/>
<path d="M5.5 8.25004C5.5 9.70873 6.07946 11.1077 7.11091 12.1391C8.14236 13.1706 9.54131 13.75 11 13.75C12.4587 13.75 13.8576 13.1706 14.8891 12.1391C15.9205 11.1077 16.5 9.70873 16.5 8.25004V2.75004C16.5 2.50693 16.4034 2.27377 16.2315 2.10186C16.0596 1.92995 15.8264 1.83337 15.5833 1.83337H6.41667C6.17355 1.83337 5.94039 1.92995 5.76849 2.10186C5.59658 2.27377 5.5 2.50693 5.5 2.75004V8.25004Z" stroke="#464646" stroke-width="1.375" stroke-linecap="round"/>
<path d="M5.5 8.24996H4.125C3.51721 8.24996 2.93432 8.00852 2.50455 7.57875C2.07477 7.14897 1.83333 6.56608 1.83333 5.95829C1.83333 5.3505 2.07477 4.76761 2.50455 4.33784C2.93432 3.90807 3.51721 3.66663 4.125 3.66663H5.5" stroke="#464646" stroke-width="1.375" stroke-linecap="round"/>
</svg>
