<svg width="22" height="22" viewBox="0 0 22 22" fill="none" xmlns="http://www.w3.org/2000/svg">
<path d="M3.52921 7.90171C3.39541 7.29903 3.41596 6.67232 3.58894 6.07969C3.76192 5.48706 4.08173 4.94771 4.51872 4.51163C4.95572 4.07555 5.49574 3.75686 6.08873 3.58513C6.68172 3.41339 7.30847 3.39416 7.91088 3.52922C8.24244 3.01066 8.69921 2.58391 9.23908 2.28831C9.77895 1.99271 10.3845 1.83777 11 1.83777C11.6155 1.83777 12.2211 1.99271 12.761 2.28831C13.3009 2.58391 13.7576 3.01066 14.0892 3.52922C14.6925 3.39357 15.3204 3.41272 15.9143 3.58487C16.5082 3.75702 17.049 4.07659 17.4862 4.51386C17.9235 4.95112 18.2431 5.49187 18.4152 6.0858C18.5874 6.67973 18.6065 7.30756 18.4709 7.91088C18.9894 8.24245 19.4162 8.69922 19.7118 9.23909C20.0074 9.77896 20.1623 10.3846 20.1623 11C20.1623 11.6155 20.0074 12.2211 19.7118 12.761C19.4162 13.3009 18.9894 13.7576 18.4709 14.0892C18.6059 14.6916 18.5867 15.3184 18.415 15.9114C18.2432 16.5043 17.9245 17.0444 17.4885 17.4814C17.0524 17.9184 16.513 18.2382 15.9204 18.4112C15.3278 18.5841 14.7011 18.6047 14.0984 18.4709C13.7672 18.9914 13.3101 19.42 12.7693 19.7169C12.2285 20.0138 11.6216 20.1695 11.0046 20.1695C10.3877 20.1695 9.78072 20.0138 9.23993 19.7169C8.69914 19.42 8.24201 18.9914 7.91088 18.4709C7.30847 18.6059 6.68172 18.5867 6.08873 18.415C5.49574 18.2432 4.95572 17.9246 4.51872 17.4885C4.08173 17.0524 3.76192 16.513 3.58894 15.9204C3.41596 15.3278 3.39541 14.7011 3.52921 14.0984C3.00667 13.7677 2.57626 13.3102 2.278 12.7685C1.97975 12.2268 1.82335 11.6184 1.82335 11C1.82335 10.3817 1.97975 9.77331 2.278 9.2316C2.57626 8.68989 3.00667 8.23241 3.52921 7.90171Z" stroke="#464646" stroke-width="1.375" stroke-linecap="round"/>
<path d="M13.75 8.25L8.25 13.75" stroke="#464646" stroke-width="1.375" stroke-linecap="round"/>
<path d="M8.25 8.25H8.25833" stroke="#464646" stroke-width="1.375" stroke-linecap="round"/>
<path d="M13.75 13.75H13.7583" stroke="#464646" stroke-width="1.375" stroke-linecap="round"/>
</svg>
