<svg width="22" height="22" viewBox="0 0 22 22" fill="none" xmlns="http://www.w3.org/2000/svg">
<path d="M18.3333 7.33337H3.66667C3.16041 7.33337 2.75 7.74378 2.75 8.25004V10.0834C2.75 10.5896 3.16041 11 3.66667 11H18.3333C18.8396 11 19.25 10.5896 19.25 10.0834V8.25004C19.25 7.74378 18.8396 7.33337 18.3333 7.33337Z" stroke="#464646" stroke-width="1.375" stroke-linecap="round"/>
<path d="M11 7.33337V19.25" stroke="#464646" stroke-width="1.375" stroke-linecap="round"/>
<path d="M17.4167 11V17.4167C17.4167 17.9029 17.2235 18.3692 16.8797 18.713C16.5359 19.0568 16.0696 19.25 15.5833 19.25H6.41667C5.93044 19.25 5.46412 19.0568 5.1203 18.713C4.77649 18.3692 4.58333 17.9029 4.58333 17.4167V11" stroke="#464646" stroke-width="1.375" stroke-linecap="round"/>
<path d="M6.875 7.33337C6.26721 7.33337 5.68432 7.09193 5.25455 6.66215C4.82477 6.23238 4.58333 5.64949 4.58333 5.0417C4.58333 4.43391 4.82477 3.85102 5.25455 3.42125C5.68432 2.99148 6.26721 2.75003 6.875 2.75003C7.75929 2.73463 8.62586 3.16369 9.36167 3.98127C10.0975 4.79884 10.6684 5.96699 11 7.33337C11.3316 5.96699 11.9025 4.79884 12.6383 3.98127C13.3741 3.16369 14.2407 2.73463 15.125 2.75003C15.7328 2.75003 16.3157 2.99148 16.7455 3.42125C17.1752 3.85102 17.4167 4.43391 17.4167 5.0417C17.4167 5.64949 17.1752 6.23238 16.7455 6.66215C16.3157 7.09193 15.7328 7.33337 15.125 7.33337" stroke="#464646" stroke-width="1.375" stroke-linecap="round"/>
</svg>
