<svg width="20" height="20" viewBox="0 0 20 20" fill="none" xmlns="http://www.w3.org/2000/svg">
<path d="M12.0874 1.66901C13.6982 1.66901 15.0041 2.97484 15.0041 4.58567C15.0041 5.03334 14.9033 5.45746 14.723 5.83654L17.5041 5.83567C17.9643 5.83567 18.3374 6.20876 18.3374 6.66901V10.0023C18.3374 10.4626 17.9643 10.8357 17.5041 10.8357H16.6707V17.5023C16.6707 17.9626 16.2977 18.3357 15.8374 18.3357H4.17073C3.7105 18.3357 3.3374 17.9626 3.3374 17.5023V10.8357H2.50407C2.04383 10.8357 1.67073 10.4626 1.67073 10.0023V6.66901C1.67073 6.20876 2.04383 5.83567 2.50407 5.83567L5.28516 5.83654C5.10492 5.45746 5.00407 5.03334 5.00407 4.58567C5.00407 2.97484 6.30991 1.66901 7.92073 1.66901C8.73742 1.66901 9.47567 2.00464 10.0051 2.54549C10.5325 2.00464 11.2708 1.66901 12.0874 1.66901ZM15.0041 10.8357H5.00407V16.669H15.0041V10.8357ZM16.6707 7.50234H3.3374V9.169H16.6707V7.50234ZM7.92073 3.33567C7.23038 3.33567 6.67073 3.89531 6.67073 4.58567C6.67073 5.23541 7.16647 5.76938 7.80035 5.82995L7.92073 5.83567H9.17075V4.58567C9.17075 3.93592 8.675 3.40196 8.04112 3.34139L7.92073 3.33567ZM12.0874 3.33567L11.967 3.34139C11.3728 3.39818 10.8999 3.87103 10.8431 4.46529L10.8374 4.58567V5.83567H12.0874L12.2077 5.82995C12.8417 5.76938 13.3374 5.23541 13.3374 4.58567C13.3374 3.93592 12.8417 3.40196 12.2077 3.34139L12.0874 3.33567Z" fill="#A4A7AE"/>
</svg>
