<svg width="20" height="20" viewBox="0 0 20 20" fill="none" xmlns="http://www.w3.org/2000/svg">
<path d="M16.6707 10.8356V16.6689C16.6707 17.1292 16.2977 17.5023 15.8374 17.5023H4.17073C3.7105 17.5023 3.3374 17.1292 3.3374 16.6689V10.8356H16.6707ZM12.0874 1.66895C13.6982 1.66895 15.0041 2.97478 15.0041 4.58561C15.0041 5.03328 14.9033 5.4574 14.723 5.83648L17.5041 5.83561C17.9643 5.83561 18.3374 6.2087 18.3374 6.66894V9.16894C18.3374 9.62919 17.9643 10.0023 17.5041 10.0023H2.50407C2.04383 10.0023 1.67073 9.62919 1.67073 9.16894V6.66894C1.67073 6.2087 2.04383 5.83561 2.50407 5.83561L5.28516 5.83648C5.10492 5.4574 5.00407 5.03328 5.00407 4.58561C5.00407 2.97478 6.30991 1.66895 7.92073 1.66895C8.73742 1.66895 9.47567 2.00458 10.0051 2.54543C10.5325 2.00458 11.2708 1.66895 12.0874 1.66895ZM7.92073 3.33561C7.23038 3.33561 6.67073 3.89525 6.67073 4.58561C6.67073 5.23535 7.16647 5.76932 7.80035 5.82989L7.92073 5.83561H9.17075V4.58561C9.17075 3.93586 8.675 3.4019 8.04112 3.34133L7.92073 3.33561ZM12.0874 3.33561L11.967 3.34133C11.3728 3.39812 10.8999 3.87097 10.8431 4.46523L10.8374 4.58561V5.83561H12.0874L12.2077 5.82989C12.8417 5.76932 13.3374 5.23535 13.3374 4.58561C13.3374 3.93586 12.8417 3.4019 12.2077 3.34133L12.0874 3.33561Z" fill="#FDFDFF"/>
</svg>
