<svg width="20" height="20" viewBox="0 0 20 20" fill="none" xmlns="http://www.w3.org/2000/svg">
<path d="M1.66667 18.3334C1.66667 14.6515 4.65143 11.6667 8.33333 11.6667C12.0152 11.6667 15 14.6515 15 18.3334H1.66667ZM8.33333 10.8334C5.57083 10.8334 3.33333 8.59587 3.33333 5.83337C3.33333 3.07087 5.57083 0.833374 8.33333 0.833374C11.0958 0.833374 13.3333 3.07087 13.3333 5.83337C13.3333 8.59587 11.0958 10.8334 8.33333 10.8334ZM14.469 12.6944C17.0402 13.3515 18.9732 15.603 19.153 18.3334H16.6667C16.6667 16.1585 15.8335 14.1783 14.469 12.6944ZM12.7834 10.7975C14.144 9.57687 15 7.8051 15 5.83337C15 4.65226 14.6928 3.54288 14.1541 2.58077C16.0627 2.96168 17.5 4.64558 17.5 6.66671C17.5 8.96879 15.6354 10.8334 13.3333 10.8334C13.1469 10.8334 12.9633 10.8211 12.7834 10.7975Z" fill="#FDFDFF"/>
</svg>
