<svg width="20" height="20" viewBox="0 0 20 20" fill="none" xmlns="http://www.w3.org/2000/svg">
<path d="M1.66667 18.3333C1.66667 14.6514 4.65143 11.6667 8.33333 11.6667C12.0152 11.6667 15 14.6514 15 18.3333H13.3333C13.3333 15.5719 11.0947 13.3333 8.33333 13.3333C5.57191 13.3333 3.33333 15.5719 3.33333 18.3333H1.66667ZM8.33333 10.8333C5.57083 10.8333 3.33333 8.59583 3.33333 5.83333C3.33333 3.07083 5.57083 0.833328 8.33333 0.833328C11.0958 0.833328 13.3333 3.07083 13.3333 5.83333C13.3333 8.59583 11.0958 10.8333 8.33333 10.8333ZM8.33333 9.16666C10.175 9.16666 11.6667 7.67499 11.6667 5.83333C11.6667 3.99166 10.175 2.49999 8.33333 2.49999C6.49167 2.49999 5 3.99166 5 5.83333C5 7.67499 6.49167 9.16666 8.33333 9.16666ZM15.2364 12.2523C17.5537 13.2967 19.1667 15.6267 19.1667 18.3333H17.5C17.5 16.3033 16.2902 14.5559 14.5523 13.7726L15.2364 12.2523ZM14.6635 2.84434C16.3287 3.53085 17.5 5.16967 17.5 7.08333C17.5 9.47516 15.6702 11.4377 13.3333 11.648V9.97049C14.7472 9.76849 15.8333 8.55333 15.8333 7.08333C15.8333 5.93279 15.168 4.93835 14.2008 4.46362L14.6635 2.84434Z" fill="#A4A7AE"/>
</svg>
