<svg width="14" height="15" viewBox="0 0 14 15" fill="none" xmlns="http://www.w3.org/2000/svg">
<path d="M6.99825 4.85732C5.71288 4.85732 4.66392 5.90628 4.66392 7.19165C4.66392 8.47702 5.71288 9.52598 6.99825 9.52598C8.28362 9.52598 9.33258 8.47702 9.33258 7.19165C9.33258 5.90628 8.28362 4.85732 6.99825 4.85732ZM13.9995 7.19165C13.9995 6.225 14.0082 5.2671 13.9539 4.3022C13.8997 3.18144 13.644 2.18677 12.8244 1.36722C12.0031 0.54591 11.0102 0.291989 9.88945 0.237702C8.9228 0.183415 7.9649 0.192171 7 0.192171C6.03335 0.192171 5.07545 0.183415 4.11055 0.237702C2.98979 0.291989 1.99512 0.547661 1.17556 1.36722C0.35426 2.18852 0.100338 3.18144 0.0460516 4.3022C-0.00823507 5.26885 0.000520879 6.22675 0.000520879 7.19165C0.000520879 8.15655 -0.00823507 9.1162 0.0460516 10.0811C0.100338 11.2019 0.356011 12.1965 1.17556 13.0161C1.99687 13.8374 2.98979 14.0913 4.11055 14.1456C5.0772 14.1999 6.0351 14.1911 7 14.1911C7.96665 14.1911 8.92455 14.1999 9.88945 14.1456C11.0102 14.0913 12.0049 13.8356 12.8244 13.0161C13.6457 12.1948 13.8997 11.2019 13.9539 10.0811C14.01 9.1162 13.9995 8.1583 13.9995 7.19165ZM6.99825 10.7833C5.01066 10.7833 3.40657 9.17924 3.40657 7.19165C3.40657 5.20406 5.01066 3.59997 6.99825 3.59997C8.98584 3.59997 10.5899 5.20406 10.5899 7.19165C10.5899 9.17924 8.98584 10.7833 6.99825 10.7833ZM10.737 4.29169C10.273 4.29169 9.89821 3.91694 9.89821 3.45287C9.89821 2.98881 10.273 2.61406 10.737 2.61406C11.2011 2.61406 11.5758 2.98881 11.5758 3.45287C11.576 3.56307 11.5544 3.67221 11.5123 3.77404C11.4702 3.87587 11.4084 3.9684 11.3305 4.04632C11.2525 4.12423 11.16 4.18602 11.0582 4.22812C10.9564 4.27023 10.8472 4.29183 10.737 4.29169Z" fill="#464646"/>
</svg>
