<svg width="19" height="24" viewBox="0 0 19 24" fill="none" xmlns="http://www.w3.org/2000/svg">
<g clip-path="url(#clip0_1_4287)">
<path d="M1.18983 7.55722C0.364086 6.97197 0.459272 5.75412 1.24218 5.39593C2.09528 5.00496 2.28803 6.39401 1.91205 6.93797C2.08219 6.24709 1.19815 6.59435 1.70502 7.55722C2.06197 8.23839 2.39036 8.75443 1.72763 9.30446C2.04531 8.6925 1.69312 7.93848 1.18983 7.55722Z" fill="url(#paint0_linear_1_4287)"/>
<path d="M1.07084 14.2475C0.662733 14.6118 0.61871 15.2189 0.787665 15.6888C1.01254 16.3189 1.62054 17.0244 1.63958 17.725C1.76689 17.5659 1.91919 17.1932 2.11551 17.1179C1.81805 17.8464 1.72882 18.91 2.17738 19.5936C2.9115 18.1779 2.84725 17.3583 1.97749 16.0299C1.94713 16.1927 1.86963 16.3424 1.75499 16.4598C1.85534 16.1374 1.91453 15.8032 1.93109 15.4653C1.86285 15.4105 1.79881 15.3504 1.73953 15.2856C1.48847 14.9396 1.63601 14.3556 1.5551 13.95C1.46111 14.1261 1.28858 14.3179 1.07084 14.2475Z" fill="url(#paint1_linear_1_4287)"/>
<path d="M6.30608 9.20611C6.05978 9.30325 5.38872 9.78529 5.38872 9.78529C5.35517 9.67499 5.31545 9.56674 5.26974 9.46109C5.2062 9.36275 5.13707 9.26828 5.06271 9.17818C5.05795 9.13083 5.94913 8.8977 6.30608 9.20611Z" fill="url(#paint2_linear_1_4287)"/>
<path d="M9.03316 15.6463C8.80745 15.6624 8.58081 15.634 8.36566 15.5625C8.24517 15.6688 8.11799 15.767 7.98492 15.8563C7.99902 15.8708 8.01413 15.8842 8.03013 15.8964C8.16605 15.9996 8.3268 16.0634 8.49536 16.0809L8.63813 16.0979C9.00936 16.1101 9.55787 16.0979 9.86247 15.8454C9.72367 15.7413 9.57818 15.6467 9.42699 15.5625L9.17713 15.6244C9.12984 15.6359 9.08167 15.6432 9.03316 15.6463Z" fill="url(#paint3_linear_1_4287)"/>
<path d="M6.42506 16.2097C6.74177 16.2675 7.06722 16.2513 7.37692 16.1623C7.65415 16.2509 8.02775 16.4161 8.32164 16.4379C8.3145 16.4513 8.30736 16.4646 8.29784 16.4792C8.15598 16.702 7.93435 16.8593 7.68032 16.9175C7.51256 16.9588 7.33527 16.9952 7.22224 17.0147C6.9893 17.0962 6.77541 17.226 6.59401 17.3959C6.64764 17.2379 6.68745 17.0754 6.713 16.9103C6.71989 16.8687 6.71782 16.8261 6.70693 16.7854C6.69603 16.7447 6.67659 16.7069 6.64993 16.6747C6.54642 16.5472 6.41197 16.3954 6.39055 16.2607L6.42506 16.2097Z" fill="url(#paint4_linear_1_4287)"/>
<path d="M6.21803 16.5678C6.21803 16.9017 5.9051 17.096 5.62312 17.2745C5.48183 17.3619 5.35899 17.4772 5.26176 17.6135C5.16452 17.7498 5.09484 17.9045 5.05676 18.0686V18.0856C5.01591 18.3034 5.02312 18.5278 5.07786 18.7425C5.13261 18.9571 5.23351 19.1566 5.37325 19.3265C5.92771 20.0295 6.37271 21.0568 5.67309 21.7901C6.48336 21.9201 6.92241 21.0118 6.74393 20.304C6.49883 19.6774 5.88131 19.0545 5.91105 18.3418C5.88488 17.7711 6.70229 17.0244 6.21803 16.5678Z" fill="url(#paint5_linear_1_4287)"/>
<path d="M4.64032 18.53C2.49863 20.1583 4.52134 21.2013 3.62778 22.2018C4.20484 22.4203 4.76763 21.8035 4.64032 21.2207C4.92707 21.5959 4.72718 22.2163 4.42734 22.5247C4.61533 22.9424 5.11744 23.2387 5.55054 23.2885L5.91819 23.3346C5.96071 23.3385 6.002 23.3513 6.03946 23.3722C6.07692 23.3931 6.10976 23.4216 6.13593 23.456C6.23231 23.5945 6.17043 23.7426 5.95865 23.8203C6.05863 23.8404 6.16016 23.8514 6.26205 23.8531C6.393 23.8603 6.5216 23.8155 6.62094 23.7281C6.72029 23.6408 6.78269 23.5176 6.79509 23.3844V23.3747C6.79569 23.285 6.76386 23.1983 6.70568 23.131C6.6475 23.0638 6.56707 23.0209 6.47979 23.0104C6.08001 22.9509 5.8004 22.7676 5.96935 22.2734C5.62358 22.3277 5.26979 22.2726 4.95562 22.1156C5.4851 21.8326 5.66952 21.2462 5.66952 20.6731C5.67289 20.4644 5.61442 20.2596 5.50175 20.0854C5.15075 19.5536 4.45947 19.0934 4.72361 18.4438L4.64032 18.53Z" fill="url(#paint6_linear_1_4287)"/>
<path d="M10.9619 18.5531C10.8702 17.5683 11.2558 17.5902 11.4747 17.079C11.2653 16.6031 10.4764 16.5788 10.2254 16.1623C10.2065 16.1337 10.1924 16.1021 10.1837 16.0688C9.72875 16.3783 9.17879 16.5078 8.63694 16.4331C8.79638 16.7852 8.32878 17.0645 8.10747 17.249C7.57205 17.6946 7.12349 18.6029 7.71602 19.0703C7.78895 19.1227 7.86916 19.1636 7.95398 19.1917C8.77972 19.4977 9.27469 20.4436 8.85349 21.2887C8.65003 19.3897 7.68746 19.8498 7.17227 18.876C7.05495 18.6493 7.01318 18.3897 7.05329 18.1366C7.10827 17.8097 7.28046 17.5154 7.53636 17.3109C7.17346 17.3839 6.84123 17.5686 6.58449 17.8403C5.9289 18.5446 6.68325 19.5305 7.04377 20.1667C7.38168 20.8418 7.16275 22.203 6.27157 22.2588C6.28861 22.3529 6.32555 22.442 6.3798 22.52C6.43404 22.598 6.50431 22.663 6.58568 22.7105L6.88314 22.8829C6.9896 22.9404 7.07991 23.0246 7.14551 23.1277C7.2111 23.2307 7.2498 23.3492 7.25794 23.4718C7.26294 23.5475 7.25182 23.6234 7.22532 23.6942C7.19882 23.7651 7.15758 23.8292 7.10445 23.8822C7.77313 23.9284 7.90996 23.6709 8.1979 23.1246C7.78265 22.9922 7.53873 22.7469 7.484 22.396C7.45697 22.182 7.50962 21.9653 7.63154 21.7889C7.73232 21.642 7.81242 21.4814 7.86951 21.3117C7.91518 21.1738 7.92538 21.0263 7.89913 20.8832C7.87288 20.7401 7.81106 20.6063 7.71959 20.4946C7.66588 20.4257 7.607 20.3611 7.54349 20.3015C7.41557 20.229 7.31506 20.1148 7.25794 19.9773C7.83143 20.3574 8.80471 20.9487 8.29308 21.6675C7.91591 22.107 8.0218 22.8975 8.68454 22.9364C8.47275 22.22 9.06171 21.4914 9.72444 21.3154C9.2033 21.6129 8.86182 22.3341 9.04267 22.9364C9.92077 23.0371 11.1963 22.7797 11.2165 21.608C11.2296 20.8273 10.4586 20.4727 9.96122 20.0575C9.69113 19.7576 9.72325 19.3374 9.88626 18.9938C10.0378 18.7074 10.091 18.3774 10.0374 18.0565C10.011 17.8713 9.92768 17.6995 9.79934 17.5659C9.671 17.4324 9.50434 17.3439 9.32347 17.3134C9.53824 17.2892 9.755 17.3349 9.94281 17.444C10.1306 17.553 10.2799 17.7197 10.3693 17.9205C10.4816 18.1771 10.4927 18.468 10.4003 18.7328C10.2908 19.0776 10.2158 19.5159 10.4003 19.8158C10.5877 20.0488 10.7996 20.2601 11.0321 20.446C11.1844 20.579 11.308 20.7429 11.3949 20.9272C11.4818 21.1116 11.53 21.3125 11.5366 21.5169C11.5432 21.7214 11.508 21.9251 11.4332 22.1149C11.3585 22.3047 11.2457 22.4765 11.1023 22.6194C11.0294 22.6881 10.9496 22.7487 10.8643 22.8004C11.2092 22.7433 11.5499 22.6621 11.884 22.5575C11.7043 22.4798 11.583 22.345 11.74 22.1872C11.8474 22.0883 11.921 21.9569 11.9499 21.8122C11.9788 21.6676 11.9615 21.5173 11.9006 21.3834C11.9792 21.0385 12.0196 20.5856 12.2302 20.2906C12.3202 20.1748 12.3804 20.0379 12.4051 19.8923C12.5384 18.9902 11.1177 19.454 10.9619 18.5531Z" fill="url(#paint7_linear_1_4287)"/>
<path d="M11.8007 17.3631C11.6725 17.4191 11.5676 17.5192 11.5044 17.6461C11.419 17.8036 11.3742 17.9808 11.3742 18.1609C11.3742 18.341 11.419 18.5181 11.5044 18.6757V18.6818C11.5318 18.736 11.5707 18.7833 11.6182 18.8203C11.6658 18.8573 11.7208 18.8829 11.7793 18.8955C11.8324 18.9052 11.8872 18.9125 11.9435 18.9173C12.087 18.9286 12.2252 18.9777 12.3447 19.0597C12.4641 19.1418 12.5606 19.254 12.6249 19.3855C12.6891 19.517 12.7189 19.6632 12.7112 19.8099C12.7036 19.9566 12.6588 20.0988 12.5812 20.2226L12.5634 20.2493C12.5038 20.33 12.4624 20.423 12.4418 20.5218C12.4212 20.6206 12.4221 20.7228 12.4444 20.8212C12.4944 21.0131 12.6241 21.1393 12.9108 21.143C12.6728 20.6573 13.0619 20.0587 13.4177 19.7466C13.8091 19.4152 13.8936 19.1978 13.6711 18.7194C13.2416 18.0637 12.4099 17.7845 11.8007 17.3631Z" fill="url(#paint8_linear_1_4287)"/>
<path d="M12.1838 21.143C11.9458 21.846 13 21.5072 13.3736 21.5874C13.8615 21.6979 14.3255 22.0063 14.0804 22.566C14.8704 22.2018 14.8609 20.9305 14.034 20.6002C13.7699 20.7629 13.3927 20.8261 13.1821 20.5456C13.0762 20.7884 13.1392 21.234 13.3356 21.415C12.9798 21.4101 12.4146 21.4757 12.1838 21.143Z" fill="url(#paint9_linear_1_4287)"/>
<path d="M8.47632 23.2011C9.21758 23.3577 10.0624 23.2763 10.7989 23.0736C10.9034 23.0445 11.0095 23.0213 11.1165 23.0044L11.7472 22.9109C11.9363 22.8951 12.4063 22.8684 12.5372 22.6911C11.5603 22.1034 12.2992 22.2904 12.1921 21.8035C12.4135 22.0937 12.8596 21.9856 13.1666 21.9783C14.1363 21.9286 14.0185 22.7069 13.2975 23.0711C12.9786 23.2363 12.5289 23.1926 12.1838 23.314C11.9459 23.399 12.3028 23.6285 12.3147 23.603C12.1362 23.7559 11.8578 23.7365 11.6472 23.6819C11.5794 23.6649 11.4402 23.5192 11.3628 23.5167C11.0551 23.5107 10.7478 23.5433 10.4479 23.6139C10.2894 23.6546 10.1369 23.7166 9.99454 23.7984C9.75899 23.9031 9.50963 23.9719 9.25447 24.0024C9.28368 23.9973 9.30999 23.9813 9.32823 23.9575C9.35133 23.926 9.36413 23.888 9.36481 23.8487C9.36548 23.8094 9.35401 23.7708 9.33201 23.7386C9.31001 23.7063 9.2786 23.6819 9.24225 23.6689C9.20591 23.6559 9.16647 23.6549 9.12953 23.6661C8.90109 23.7317 8.62505 23.8288 8.54057 23.8531C8.33592 23.9441 8.12651 24.0036 7.92662 23.8895H7.93971C8.05199 23.8542 8.15522 23.7939 8.24203 23.7131C8.32883 23.6323 8.39705 23.5329 8.44181 23.422C8.46972 23.352 8.48153 23.2764 8.47632 23.2011Z" fill="url(#paint10_linear_1_4287)"/>
<path d="M16.0305 14.7987C15.6935 14.5785 15.4297 14.2594 15.2738 13.8832C15.1589 13.6175 15.1412 13.3185 15.2238 13.0406C14.8823 13.2239 14.5599 13.5736 14.5099 13.9804C14.6444 13.814 14.9097 13.9075 15.0703 14.0168C15.0768 14.0212 15.0822 14.0271 15.0861 14.0339C15.0901 14.0408 15.0925 14.0484 15.0931 14.0563C15.0938 14.0643 15.0928 14.0722 15.0901 14.0797C15.0873 14.0871 15.083 14.0938 15.0775 14.0994C14.8395 14.3228 14.3029 13.9087 13.827 14.5207C13.7936 14.5693 13.7568 14.63 13.7187 14.6992C13.649 14.8249 13.6077 14.9648 13.5977 15.1089C13.5877 15.2529 13.6093 15.3974 13.6609 15.5319C13.7126 15.6663 13.7929 15.7873 13.8961 15.8861C13.9994 15.9848 14.1229 16.0589 14.2577 16.1028C14.4014 16.1508 14.5565 16.1505 14.7001 16.1017C14.8436 16.053 14.968 15.9584 15.0549 15.832C15.1084 16.4391 14.6646 16.6286 14.2125 16.5533C14.0302 16.5183 13.8577 16.443 13.707 16.3326C13.5563 16.2223 13.4312 16.0796 13.3403 15.9146C12.9679 15.2747 12.7633 14.579 11.9232 14.3726C12.0507 14.549 12.1443 14.7484 12.1993 14.9602C12.2362 15.2031 12.2695 15.6815 12.3456 15.9073C12.5491 16.5703 13.2368 17.5343 13.9888 17.0195C13.8853 17.4846 13.3808 17.7019 12.9524 17.6546C13.6509 18.0565 14.8181 19.2427 13.7853 19.9106C13.6413 19.9895 13.407 20.1449 13.4284 20.3416C13.47 20.3854 13.5231 20.4161 13.5813 20.4301C13.6394 20.4441 13.7004 20.4408 13.7568 20.4205C13.9045 20.3483 14.0598 20.2933 14.2196 20.2566C14.5551 20.1935 14.9145 20.2262 15.1715 20.4667C15.0525 20.1412 14.7895 20.0089 14.5337 19.8171C14.8443 19.7551 15.1477 19.9458 15.4475 20.0745C15.5285 20.109 15.6172 20.12 15.7039 20.1063C15.7907 20.0926 15.872 20.0547 15.9389 19.9968C15.9321 19.9338 15.9321 19.8703 15.9389 19.8073C15.9779 19.4632 16.1115 19.1374 16.3244 18.8675C16.5838 18.5288 16.3089 18.5276 16.3006 17.8258C16.3006 17.5617 16.3511 17.3002 16.4493 17.056C16.5435 16.8105 16.6175 16.5575 16.6706 16.2995C16.7204 16.0128 16.6862 15.7176 16.5724 15.4506C16.4585 15.1837 16.27 14.9569 16.0305 14.7987ZM15.5308 18.4414C15.3963 18.5446 15.1203 18.4632 15.1738 18.2629C14.2601 19.2027 15.4499 19.7199 15.9996 18.5676C15.9675 18.9319 15.8877 19.3532 15.5308 19.5171C14.6146 19.8535 14.1792 18.9355 14.6325 18.1815C15.0727 17.7274 14.8002 17.1009 14.3493 16.7815C15.1548 17.2612 15.5522 16.6674 15.6236 15.8709C15.5582 15.3706 15.0668 14.9505 14.8478 14.5158C16.3315 15.4666 16.4208 15.9729 15.3773 17.3984C15.2298 17.6837 15.0965 18.3467 15.5308 18.4365V18.4414Z" fill="url(#paint11_linear_1_4287)"/>
<path d="M14.617 20.5371C15.1667 20.5456 15.3071 20.9961 14.9632 21.4854C14.9632 21.1466 14.6705 20.6961 14.3493 20.6002C14.4327 20.5588 14.5242 20.5372 14.617 20.5371Z" fill="url(#paint12_linear_1_4287)"/>
<path d="M16.6576 14.9347C16.7493 14.9773 16.8302 15.0408 16.8939 15.1204C16.9577 15.2 17.0026 15.2935 17.0252 15.3937C17.0482 15.4958 17.0621 15.5999 17.0669 15.7045C17.2674 15.626 17.4498 15.5057 17.6023 15.3512C17.6983 15.119 17.7022 14.8577 17.613 14.6227C17.5817 14.5529 17.5624 14.4781 17.5559 14.4017C17.5798 14.3624 17.6143 14.3309 17.6551 14.3109C17.696 14.2909 17.7417 14.2832 17.7867 14.2888C17.8194 14.2912 17.8509 14.3021 17.8783 14.3203C17.8757 14.2785 17.8661 14.2374 17.8498 14.1989C17.7423 14.1458 17.6191 14.1358 17.5047 14.171L17.4321 14.1941C17.4157 14.1992 17.4009 14.2088 17.3894 14.2219C17.3779 14.2349 17.37 14.2509 17.3667 14.2681C17.3379 14.4403 17.2485 14.5959 17.1153 14.7057C16.9821 14.8154 16.8143 14.8718 16.6433 14.8643C16.5796 14.8614 16.5168 14.8474 16.4577 14.823L16.6576 14.9347Z" fill="url(#paint13_linear_1_4287)"/>
<path d="M15.7747 10.9631C15.1001 11.3091 15.2821 12.448 16.1317 12.0146C15.8152 11.7948 15.7045 11.2533 15.8556 10.9036L15.7747 10.9631Z" fill="url(#paint14_linear_1_4287)"/>
<path d="M16.1947 11.1622C16.1709 11.5726 16.5076 12.1433 16.955 11.9089C16.6183 11.8045 16.3446 11.4755 16.1947 11.1622Z" fill="url(#paint15_linear_1_4287)"/>
<path d="M18.5458 11.2193C18.5108 11.1087 18.4409 11.0131 18.3471 10.9473C18.2783 10.8945 18.2055 10.8474 18.1294 10.8064C18.0383 10.7651 17.9669 10.6887 17.9307 10.5939C17.9173 10.5635 17.9116 10.5301 17.9141 10.4968C17.9166 10.4635 17.9272 10.4314 17.945 10.4033C17.475 10.5842 17.7463 11.3638 18.2043 11.3455C17.5083 11.677 17.0264 10.5721 17.5654 10.1471C16.9764 9.64565 17.7046 8.78721 16.9955 8.44723C17.9283 8.57715 17.4785 9.69544 17.8997 10.1107C17.9033 10.0738 17.9013 10.0365 17.8938 10.0002C17.8708 9.85985 17.8752 9.71624 17.9069 9.57766V9.56916C17.9534 9.3762 17.9616 9.17568 17.931 8.97944C17.9003 8.7832 17.8314 8.59522 17.7284 8.42659C17.6465 8.29225 17.539 8.17605 17.4123 8.08491C17.2856 7.99376 17.1422 7.92951 16.9907 7.89598L16.6028 7.81706C16.6766 7.75028 16.9598 7.73571 17.1049 7.72721C17.1453 7.72381 17.1858 7.72919 17.2239 7.74299C17.3662 7.79459 17.4904 7.88795 17.5809 8.01133C17.5194 7.78408 17.5121 7.54512 17.5595 7.31438C17.5959 7.15946 17.6087 6.99974 17.5975 6.84084C17.5922 6.76355 17.5732 6.68787 17.5416 6.61742C17.4889 6.49661 17.3997 6.39619 17.287 6.33087C17.2504 6.30875 17.2096 6.29482 17.1674 6.29C17.1251 6.28519 17.0823 6.2896 17.0419 6.30294C16.907 6.34452 16.7916 6.43471 16.7171 6.55671L16.6207 6.72185C16.6607 6.36722 16.7567 6.02155 16.9051 5.69827C16.9967 5.49914 17.0907 5.2903 17.1716 5.09117C17.2944 4.80122 17.3356 4.48209 17.2906 4.16958C17.2144 3.6839 16.9336 3.40828 16.3506 3.15694C16.4256 3.23465 16.5886 3.36821 16.5731 3.49327C16.5502 3.58231 16.5582 3.67667 16.5957 3.7604C16.6878 3.81544 16.7628 3.89581 16.8122 3.99231C17.2061 4.76212 16.8884 5.28423 16.3577 5.93504C16.165 6.16938 16.1555 6.57978 16.1352 6.86755C16.0134 6.64491 15.9499 6.39401 15.9508 6.13903C15.9509 6.04972 15.9734 5.96193 16.0163 5.88404C16.1065 5.72099 16.2104 5.56621 16.3268 5.42143C16.5648 5.12031 16.6837 4.89932 16.604 4.39178C16.2471 3.99231 16.1281 3.37914 15.9437 2.8886C15.7745 2.64391 15.5689 2.42762 15.3345 2.2475C15.2449 2.17934 15.1453 2.12607 15.0394 2.08965C14.8526 2.0253 14.5885 1.93909 14.4849 1.96823C14.4694 2.1015 14.4909 2.23653 14.5468 2.35799C14.6313 2.54352 14.7658 2.70063 14.9347 2.81089L14.9894 2.84731C15.2393 3.01565 15.5124 3.14497 15.7997 3.231H15.8116C15.4392 3.43256 15.1156 3.3415 14.7681 3.14479C14.7731 3.30914 14.737 3.47208 14.6634 3.61834C14.6363 3.66558 14.6031 3.70888 14.5647 3.74704C14.4061 3.89876 14.2299 4.03007 14.04 4.13802L13.9971 4.1538L13.6283 4.21937L13.6485 4.21087C13.8698 4.10312 14.061 3.94016 14.2043 3.73706C14.3476 3.53396 14.4384 3.29727 14.4683 3.04887C14.481 2.94575 14.4774 2.84121 14.4576 2.73925C14.3331 2.61026 14.2207 2.4696 14.122 2.31913C14.0646 2.15274 14.0271 1.97988 14.0102 1.80431C13.9982 1.69412 13.9767 1.58523 13.946 1.4789C13.903 1.32086 13.8107 1.18144 13.683 1.08186C13.3772 0.839017 13.1773 0.823233 12.7097 0.789235C12.5003 0.779521 11.9708 0.755237 11.7959 0.898514C11.8181 0.923596 11.8416 0.947507 11.8661 0.970152C12.1425 1.22394 12.501 1.36449 12.8727 1.36477C13.0823 1.37855 13.2926 1.35219 13.4926 1.28706L13.4807 1.29799C13.3173 1.45834 13.1097 1.56383 12.8858 1.60032L12.7561 1.61854C12.4137 1.65725 12.0699 1.55888 11.7971 1.34413C11.4771 1.09279 11.1511 0.783164 10.8952 0.537894C10.4193 0.0947091 9.41034 0.155419 8.99866 0.659315C9.87913 1.13893 9.07005 1.81888 10.3075 2.39806C9.82202 2.4782 9.43533 2.0168 9.21759 1.63068C9.32943 1.162 9.04268 0.971366 8.67741 0.930083C8.50727 0.90817 8.33448 0.932463 8.17649 1.00051C8.07275 1.04314 7.98113 1.1116 7.90997 1.19964C7.79622 1.3386 7.72012 1.50554 7.68922 1.68384C7.65833 1.86214 7.67372 2.04558 7.73387 2.21593C7.73336 2.22077 7.73336 2.22566 7.73387 2.2305C7.8124 2.49034 8.03728 2.74289 8.20029 2.98209C8.26578 3.07758 8.3037 3.1899 8.30975 3.30628C8.3185 3.42307 8.28269 3.53878 8.20981 3.62926C8.16178 3.67561 8.10674 3.71374 8.0468 3.74218V3.7179C8.05291 3.63561 8.04126 3.55296 8.01269 3.47576C7.98411 3.39856 7.9393 3.32869 7.88141 3.27107C7.7898 3.18001 7.69104 3.07559 7.60537 2.98331C7.49396 2.86589 7.41228 2.72252 7.36741 2.56562C7.30887 2.34004 7.29312 2.10513 7.321 1.87352C7.35478 1.5672 7.48511 1.28035 7.69239 1.05613C7.89966 0.831902 8.17268 0.682422 8.47038 0.630174C8.54421 0.606785 8.62193 0.598936 8.69882 0.607104C8.69882 0.350907 9.32943 0.191846 9.5436 0.16149C8.39542 -0.295051 6.69516 0.26227 5.94914 1.22756C6.50479 1.28827 6.87006 1.87352 6.82485 2.4187C6.69159 2.98088 6.16925 3.45927 5.90392 3.95346C5.65406 4.39057 5.65168 5.06445 5.80398 5.53192C5.57553 5.33522 5.25309 4.89325 5.40182 4.37114C5.76828 3.07558 7.13182 2.09208 5.18884 1.38177C4.89296 1.28098 4.57564 1.26502 4.27148 1.33563C4.17108 1.35318 4.07291 1.38209 3.97878 1.42184C3.50285 1.66468 3.05191 2.45391 3.14591 3.0428C4.06326 3.54791 3.87408 4.13559 3.90621 4.99403C4.10967 4.89689 4.01329 4.68805 4.15845 4.52413C4.3869 4.26672 4.64509 4.00445 4.32026 3.40706C3.96332 2.74896 4.73313 2.4357 4.64628 1.81767C4.77954 2.14186 4.61772 2.46484 4.52729 2.80846C4.31194 3.63048 5.10555 3.75918 4.35834 4.65648C3.79555 5.33401 4.95325 5.60963 4.55109 6.3333C4.45709 5.88647 3.61946 5.61813 3.65277 5.18223C3.67538 4.87625 3.71821 4.23029 3.61351 3.8976C3.46415 3.5319 3.18434 3.23767 2.8306 3.07437C2.76278 2.87767 2.68187 2.79875 2.59264 2.7866C2.45604 2.76001 2.31556 2.76208 2.17977 2.79268C1.85138 2.8971 1.73358 3.05009 1.55392 3.34878C1.33618 3.71304 1.35879 4.15744 1.81092 4.40635C1.89368 4.22059 1.98745 4.04015 2.09172 3.86603C2.2107 3.69726 2.54742 3.34392 2.77825 3.46656C1.96798 3.95224 1.49562 5.23566 2.70924 5.36922C2.5974 5.48093 2.33802 5.44936 2.20238 5.41657C2.70091 5.96418 2.44867 6.79713 1.92634 7.22574C2.17263 7.50987 2.5617 7.85713 2.7021 8.22018C2.72649 8.42773 2.70486 8.63822 2.63881 8.8361C2.57276 9.03398 2.46398 9.21418 2.32051 9.36338C2.17704 9.51259 2.00255 9.62699 1.80993 9.69812C1.61731 9.76926 1.41149 9.79531 1.20768 9.77436C1.62055 9.33967 1.93228 8.41323 1.20768 8.1364C0.561606 8.53223 -0.0285479 9.68694 0.654412 10.2831C1.22791 10.526 1.67766 11.2059 1.55987 11.8494C1.48015 11.2423 0.922123 10.4944 0.378372 10.9643C-0.466404 11.6928 0.239163 13.3211 1.17675 13.808C0.865011 12.3096 2.57479 12.3011 1.72882 10.2358C2.79134 11.0663 2.5391 12.2683 1.93585 13.3065C1.6848 13.644 2.00248 15.815 2.3285 14.568C2.49507 15.0185 2.11433 15.5552 2.29756 16.0178C2.53553 16.3359 2.69972 16.8678 2.94959 17.1762C3.26608 16.7682 3.50642 16.1283 3.46359 15.5977C3.5326 14.2414 2.39275 13.74 2.55099 12.652C2.64856 13.1826 3.09355 13.6234 3.38387 14.0459C3.86813 15.0076 4.00377 16.2643 3.33747 17.1713C3.0995 17.4336 2.98052 17.986 3.03049 18.3309C2.89128 18.9708 2.38442 19.7515 2.59264 20.4144C2.71162 19.5864 3.27084 20.1218 3.37554 19.3654C3.60955 18.9888 3.8894 18.6441 4.20842 18.3394C4.43568 18.2532 4.74979 18.071 4.7141 17.7748C4.21794 18.0176 2.9484 18.1937 3.83244 17.368C4.12632 16.6213 4.46185 15.4763 5.17456 15.0719C4.35477 14.5098 5.13054 13.2506 3.62779 13.8274C4.10372 12.9167 5.00204 13.9172 4.54871 12.5185C4.42973 12.1846 4.35953 12.2756 4.13465 12.4638C3.70988 12.6107 3.0995 12.646 2.69972 12.4092C3.3922 12.5767 4.43806 12.2538 4.37262 11.3832C4.58322 11.2618 4.96753 10.9497 5.07937 10.7251C5.01869 10.328 5.10912 9.70029 4.7724 9.41617C4.96872 9.92856 4.49636 10.396 4.02876 10.5247C3.99068 10.4227 3.93952 10.3802 4.03471 10.3171C4.73908 9.85085 4.20604 9.01427 5.17813 8.25296C5.68143 7.85713 5.52199 7.05697 5.04011 6.67449C5.53865 6.7862 5.68856 7.21117 5.7778 7.67014C5.7778 7.51108 5.93367 7.30588 6.0467 7.21481C5.71712 6.42437 5.76947 5.30608 6.60116 4.85683C6.10262 5.68856 5.88727 6.96104 6.66541 7.63371C6.69732 7.66736 6.73908 7.68952 6.78439 7.69685C6.78439 7.69685 6.69397 7.55722 6.66541 7.50865C5.83015 6.16088 8.4799 5.49185 6.98785 4.7609C7.46378 4.67834 7.8124 5.03653 7.76243 5.51978L8.35734 5.6157L8.71429 5.69098C8.85285 5.71911 8.98807 5.76225 9.11764 5.81969C9.14005 5.8308 9.1631 5.84053 9.18665 5.84883L9.20569 5.85733C9.41876 5.95166 9.61878 6.07412 9.8006 6.22159L9.86009 6.27016L9.96242 6.37094C10.0843 6.4913 10.1911 6.62672 10.2801 6.77406C10.3102 6.82517 10.3342 6.87979 10.3515 6.93676C10.405 7.10463 10.4253 7.28171 10.411 7.45765L10.3991 7.59607L10.461 7.50865C10.4922 7.46569 10.5152 7.41708 10.5288 7.36538C10.5573 7.25728 10.5717 7.14583 10.5716 7.0339C10.5716 6.92716 10.5572 6.82093 10.5288 6.7182C10.5034 6.62636 10.4658 6.53852 10.4169 6.45715L10.3408 6.33573L10.3039 6.2908C10.1986 6.16128 10.0671 6.0565 9.9184 5.98361L9.82916 5.93868C9.81006 5.92883 9.79016 5.9207 9.76967 5.9144L9.50553 5.82819L9.2509 5.75534C8.31927 5.18223 8.72857 4.45371 8.0004 4.15744C9.73278 4.24487 9.1224 5.32794 10.4038 5.75534C10.2658 5.2988 10.499 4.8034 10.7406 4.3845C10.8852 4.14229 10.9451 3.85727 10.9107 3.57584C10.8699 3.24567 10.742 2.93302 10.5407 2.67125C10.7255 2.6879 10.8965 2.7782 11.0166 2.9226C11.3379 3.30993 11.4711 3.87575 11.4723 4.37964C11.4721 4.50329 11.4401 4.62472 11.3795 4.73176C11.3025 4.86976 11.205 4.9947 11.0904 5.1021L11.082 5.10938C10.9853 5.19872 10.9047 5.30476 10.8441 5.42265V5.42872C10.78 5.55111 10.7523 5.68995 10.7644 5.82819C10.7779 5.99422 10.8253 6.15554 10.9033 6.30188C10.9814 6.44821 11.0884 6.57635 11.2177 6.67813C11.4753 6.69902 11.7289 6.75664 11.9708 6.84934C12.2299 6.93865 12.4549 7.10849 12.6145 7.33502C12.6356 7.41181 12.6507 7.49016 12.6598 7.56936C13.006 7.31438 13.0464 7.08368 13.0405 6.71942C13.0393 6.62318 13.0143 6.52881 12.9679 6.44501C12.8553 6.23286 12.6873 6.05675 12.4825 5.93625C12.1593 5.7593 11.8113 5.63399 11.4509 5.56471L11.5366 5.54892C11.8279 5.49702 12.1264 5.50487 12.4146 5.57199C12.4373 5.57739 12.459 5.58641 12.4789 5.59871C12.7545 5.77382 13.0075 5.98348 13.2321 6.22281C13.702 6.74249 13.7984 7.32895 13.6616 8.0089C13.9662 7.78913 14.0566 7.57908 14.0816 7.32166C14.1048 7.01511 14.0434 6.70804 13.9043 6.43529L13.7853 6.19974C13.8378 6.21388 13.8871 6.23821 13.9305 6.27138C14.0465 6.35376 14.1447 6.45969 14.2188 6.58253C14.2929 6.70538 14.3414 6.8425 14.3612 6.98533C14.386 7.13488 14.3936 7.28688 14.3838 7.43823C14.3529 7.80249 14.3005 8.32824 14.5528 8.62815C14.7939 8.77081 15.043 8.89893 15.2988 9.01184C15.4874 9.11136 15.6561 9.24603 15.7961 9.40888C16.1531 9.81321 16.4731 10.016 16.6623 10.5563C16.6088 11.3176 16.9086 11.7195 17.7332 11.7389C17.5706 11.7831 17.4242 11.8746 17.312 12.0024C17.1815 12.1412 17.0209 12.2468 16.8432 12.3108C16.6183 12.3861 16.3827 12.3764 16.2887 12.1202C16.2197 12.2439 16.1156 12.3434 15.99 12.4054C15.8645 12.4674 15.7234 12.489 15.5855 12.4675C15.5064 12.5687 15.4498 12.6863 15.4198 12.8122C15.3898 12.938 15.3871 13.069 15.4118 13.196C15.4406 13.3802 15.5098 13.5554 15.6142 13.7085C15.7187 13.8615 15.8557 13.9885 16.0151 14.0799H16.021C16.2205 14.2003 16.4515 14.255 16.6826 14.2366C16.98 14.2111 17.2775 14.0957 17.4226 13.8444C16.9253 13.9913 16.7409 13.8444 16.6968 13.5348C16.6726 13.3268 16.7041 13.1161 16.7879 12.9249C16.8717 12.7338 17.0047 12.5694 17.1728 12.4493C17.3167 12.3412 17.469 12.2465 17.5916 12.1578C17.983 11.9502 18.6969 11.7317 18.5458 11.2193ZM3.43503 9.30446C3.62184 9.69058 3.85742 10.1423 3.89788 10.5927C3.82292 11.2824 3.17208 11.7899 2.6438 12.1481C2.92817 11.7499 3.46716 11.3091 3.47668 10.7761C3.45883 10.441 3.54093 8.9997 3.00789 9.65658C3.40172 9.08712 4.11561 8.39381 3.69918 7.64343C3.53855 7.38237 3.42195 7.16382 3.31962 7.00476C3.52546 7.12618 3.73844 7.25974 3.8717 7.35809C4.53681 7.8547 4.20009 9.08833 3.43384 9.30446H3.43503ZM10.6739 2.12608C10.6739 1.98037 10.7013 1.77881 10.6049 1.65618C10.831 1.68775 10.9333 1.88323 10.9619 2.08965C10.9859 2.2495 11.0336 2.40468 11.1035 2.54983C11.2054 2.73962 11.2853 2.94093 11.3414 3.14965C11.1903 2.78175 10.7394 2.55591 10.6739 2.12608ZM14.6456 4.88354C14.6402 4.98347 14.6121 5.08076 14.5635 5.16766C14.5541 5.18532 14.5406 5.20034 14.5242 5.21137C14.3051 5.36927 14.0565 5.47953 13.7939 5.5353C13.5313 5.59106 13.2603 5.59116 12.9977 5.53557C12.8657 5.44821 12.759 5.3263 12.6889 5.18257C12.6188 5.03884 12.5878 4.87855 12.5991 4.71841C12.621 4.53409 12.6158 4.34747 12.5836 4.16473C12.4102 3.9414 12.2063 3.74471 11.978 3.58069L11.7793 3.4362C11.5336 3.14689 11.3479 2.80987 11.2332 2.44541C11.182 2.28514 11.1308 2.12122 11.0749 1.96823C10.9893 1.73148 10.8193 1.53638 10.599 1.42184C10.4909 1.363 10.3762 1.31774 10.2575 1.28706C10.1036 1.27767 9.94944 1.29997 9.80417 1.35263C10.0897 1.10979 10.5002 1.16807 10.8619 1.2992C11.1226 1.3958 11.3546 1.5593 11.5354 1.77396C11.669 1.93759 11.815 2.09024 11.972 2.2305C12.1459 2.37575 12.3663 2.45015 12.5907 2.43934C13.1321 2.41627 13.1512 2.29242 13.2868 2.28999C12.774 2.87281 12.4539 3.24679 11.6544 2.83396C11.8614 3.0768 12.3314 3.38642 12.655 3.58069C12.7924 3.66262 12.9053 3.78119 12.9816 3.92366C13.0579 4.06613 13.0947 4.22713 13.0881 4.38936V4.39664V4.46221C13.0746 4.66317 13.1158 4.86402 13.2071 5.0426C13.2444 5.11504 13.3054 5.17178 13.3796 5.20287C13.5372 5.26975 13.7105 5.2879 13.8781 5.25508H13.8841C14.0236 5.22788 14.1583 5.17959 14.2839 5.11181C14.4261 5.03481 14.5398 4.91242 14.6075 4.76333L14.6456 4.67834V4.88354ZM14.8229 5.95568C14.8536 5.71611 14.9626 5.4941 15.1322 5.32551C15.4047 5.04624 15.7462 4.75969 15.7057 4.35414C16.2114 5.55257 14.1339 6.14024 16.2007 7.49165C15.4677 7.32409 14.7396 6.71213 14.8229 5.95568ZM16.1935 9.37489C16.0859 9.06299 16.0332 8.73415 16.0377 8.40352C16.001 8.1615 15.8863 7.93888 15.7117 7.77092C15.6438 7.70311 15.5688 7.64324 15.488 7.59243C16.0091 7.71385 16.303 7.86806 16.5041 8.26753C16.5308 8.40014 16.536 8.53631 16.5195 8.67065C16.486 9.02033 16.4972 9.37299 16.5529 9.71972C16.5647 9.7949 16.5722 9.87071 16.5755 9.94678C16.4339 9.74643 16.2911 9.54123 16.1935 9.37489Z" fill="url(#paint16_linear_1_4287)"/>
<path d="M5.53269 8.67915C5.41117 8.71169 5.29378 8.75854 5.18288 8.81878C5.29506 8.76143 5.41215 8.71469 5.53269 8.67915Z" fill="url(#paint17_linear_1_4287)"/>
<path d="M14.7181 11.3565C14.7679 11.1963 14.8632 11.0547 14.9918 10.9497C15.4487 10.5624 15.651 10.2807 15.3571 9.79136C15.2455 9.60898 15.098 9.45227 14.924 9.33117C14.5075 9.03126 13.9495 8.66457 14.0483 8.12911C13.9471 8.34038 13.5105 8.47637 13.3106 8.53587C13.3725 8.44723 13.3879 8.20196 13.3903 7.97976C13.3931 7.74663 13.3339 7.51708 13.219 7.31559C13.219 7.31559 12.5182 8.44602 11.9792 8.50551C12.2778 8.20682 12.4825 7.90934 12.4027 7.51108C12.3901 7.44585 12.3632 7.38436 12.324 7.33118C12.2849 7.27801 12.2345 7.2345 12.1767 7.20388C11.7983 7.00476 11.2581 7.00961 10.8679 6.96104C10.9631 7.62036 10.881 7.93241 10.3467 8.32945C10.2206 8.42416 9.95765 8.67793 9.77918 8.60265C9.58286 7.78913 10.4586 7.96155 9.74824 6.85662C8.96058 6.03946 8.25858 6.50572 7.59823 5.85369C7.55182 6.14753 7.30672 6.3843 7.1223 6.63199C7.06101 6.70986 7.01591 6.79965 6.98972 6.89588C6.96354 6.99211 6.95683 7.09278 6.97 7.19174C6.99736 7.3763 7.08898 7.47951 7.2853 7.68714C7.44831 7.80856 7.84809 8.17282 8.07535 8.07811C7.87784 8.2906 7.49114 8.2651 7.16632 8.22018C6.96139 8.19111 6.76543 8.11561 6.59282 7.99919C6.46016 7.91001 6.34777 7.79283 6.26324 7.65557L6.12046 7.44308C6.05383 7.53293 5.95865 7.67743 5.8706 7.82434C5.69612 8.12045 5.50255 8.40439 5.29115 8.67429L5.18288 8.81514C5.29378 8.7549 5.41117 8.70804 5.53269 8.6755C6.05264 8.53465 6.6654 8.61236 7.1568 8.75078C7.55815 8.83755 7.95328 8.95194 8.33949 9.09319C8.51133 9.15856 8.67868 9.23564 8.8404 9.32389C8.93448 9.37613 9.013 9.45331 9.06766 9.5473C9.05918 9.67447 9.01815 9.79714 8.94868 9.90306C8.92958 9.94202 8.90514 9.97799 8.8761 10.0099C8.8642 10.0221 8.69168 10.1641 8.6191 10.2163L8.25025 10.2637L8.18124 10.2418C8.13365 10.226 8.08606 10.2139 8.03727 10.203C7.96256 10.188 7.88986 10.1639 7.82072 10.1313C7.56841 10.0275 7.34259 9.86638 7.16037 9.66022C6.84507 9.83507 6.32749 9.97713 5.99315 9.78164C5.69926 10.0463 5.73853 10.1993 5.93128 10.3208C6.07936 10.4149 6.2506 10.4641 6.42506 10.4628C6.47644 10.4624 6.52772 10.4584 6.57855 10.4507C6.62884 10.4423 6.68038 10.4468 6.72855 10.4638C6.77673 10.4807 6.82003 10.5096 6.85459 10.5478C6.86533 10.5695 6.87218 10.5929 6.87481 10.617C6.87481 10.9254 6.35129 10.8368 6.02766 10.7955C5.79386 10.7672 5.57168 10.6758 5.38396 10.5308C5.35778 10.5114 5.33637 10.4932 5.31971 10.4786C5.55768 10.855 5.24594 11.1464 4.96276 11.422C4.87163 11.5102 4.80086 11.6179 4.75558 11.7374C4.71031 11.8569 4.69166 11.9852 4.701 12.1129C4.70432 12.1572 4.71311 12.2008 4.72718 12.2428C4.74859 12.306 4.77358 12.3825 4.79976 12.4638C4.89237 12.7529 4.94913 13.0528 4.96871 13.3563C4.97798 13.5563 5.00911 13.7546 5.06152 13.9476C5.17098 14.1795 5.27926 14.6883 5.57552 14.8085L5.71711 14.8655C5.71543 14.82 5.71822 14.7745 5.72544 14.7295C5.76734 14.632 5.82176 14.5405 5.88726 14.4576C5.95163 14.3874 6.02301 14.3243 6.10024 14.2694C6.20989 14.1888 6.33003 14.1242 6.45718 14.0775C6.66674 13.9661 6.9042 13.9212 7.13895 13.9488C7.3329 13.7205 7.52208 13.5554 7.83024 13.5178C7.66367 12.9519 7.7648 12.7552 8.22169 12.425C8.39779 12.3205 8.53105 12.0862 8.73451 12.1931C8.74861 12.2 8.76034 12.2112 8.76818 12.225C8.77603 12.2389 8.77963 12.2548 8.77853 12.2708C8.77515 12.3308 8.75903 12.3893 8.7313 12.4424C8.70356 12.4954 8.66487 12.5417 8.61791 12.578C8.5136 12.6569 8.41425 12.7425 8.32045 12.8342C8.26932 12.8832 8.2293 12.9431 8.2032 13.0096C8.1771 13.076 8.16554 13.1475 8.16934 13.2191C8.17082 13.2526 8.17909 13.2854 8.19363 13.3155C8.20817 13.3456 8.22867 13.3723 8.25382 13.3939C8.3459 13.4799 8.46691 13.5265 8.59173 13.5238H8.60125C8.62386 14.1309 7.88735 13.627 7.43879 14.2754C7.3636 14.7667 7.1209 15.2152 6.75345 15.5418C6.87446 15.3078 6.98328 15.0675 7.07946 14.8218C7.13133 14.6585 7.15351 14.4869 7.1449 14.3155C6.95295 14.3005 6.76017 14.33 6.58093 14.4017C6.05383 14.6883 5.76946 15.3184 5.67071 15.894C5.65248 15.6921 5.6489 15.4892 5.66 15.2869C4.7248 15.5297 4.54275 16.7524 4.1049 17.4846C4.88066 17.4736 5.63263 16.756 6.1276 16.2036C6.11806 16.0697 6.12445 15.9352 6.14664 15.8029C6.1549 15.7621 6.17512 15.7249 6.20461 15.6961C6.23409 15.6674 6.27145 15.6484 6.31173 15.6419C6.35201 15.6353 6.39329 15.6413 6.43011 15.6593C6.46693 15.6772 6.49753 15.7061 6.51786 15.7422C6.53978 15.7909 6.54441 15.8458 6.53095 15.8976C6.99261 16.0603 7.5423 15.7993 7.85047 15.4216C7.91829 15.3391 7.98849 15.2601 8.05988 15.1788C8.38827 14.8145 8.4787 14.1649 8.70952 13.9354C8.73938 13.9095 8.77554 13.8924 8.81418 13.8857C8.85282 13.879 8.8925 13.8831 8.92905 13.8975C8.9656 13.9119 8.99766 13.9362 9.02185 13.9676C9.04603 13.9991 9.06145 14.0366 9.06647 14.0763C9.1331 14.6251 9.06647 15.0027 9.77442 15.2614C9.7194 15.1263 9.7029 14.9782 9.72682 14.834C9.73482 14.7838 9.75868 14.7376 9.79476 14.7025C9.83085 14.6675 9.87719 14.6454 9.92672 14.6397C9.96658 14.6322 10.0078 14.6393 10.043 14.6598C10.0782 14.6802 10.1053 14.7126 10.1195 14.7514C10.1645 14.8954 10.1858 15.0459 10.1825 15.197C10.189 15.2899 10.2133 15.3807 10.2541 15.464C10.295 15.5473 10.3515 15.6217 10.4205 15.6827C10.925 16.1307 11.7293 16.2679 11.9042 17.0037C11.9994 16.8556 11.9125 16.5824 11.8471 16.4404C12.0744 16.7864 12.4004 17.1689 12.837 17.2041C12.1434 16.7828 12.1422 15.7155 11.8126 15.0416C11.2938 14.035 10.6763 13.2871 9.49838 13.8201C9.27945 13.8201 9.239 13.6161 9.23781 13.4024C9.28302 13.0381 10.0088 13.2482 10.286 13.1596C10.2514 13.0473 10.2353 12.93 10.2385 12.8123C10.2682 12.7055 10.3122 12.6654 10.3717 12.6617C10.4297 12.6611 10.4856 12.6838 10.5272 12.725C10.5689 12.7661 10.593 12.8224 10.5942 12.8815C10.6299 13.4886 11.176 13.1875 11.671 14.0241C12.3195 14.0047 13.1071 14.1989 13.2059 14.9651C13.3415 14.4381 13.7282 13.9342 14.2648 13.8055C14.2648 13.8055 14.2862 13.7582 14.3148 13.6914C14.4221 13.4544 14.5563 13.2311 14.7146 13.026C14.8454 12.8572 14.9432 12.6643 15.0025 12.4578C15.0145 12.4151 15.0149 12.37 15.0036 12.3272C14.9923 12.2844 14.9697 12.2455 14.9383 12.2149C14.8311 12.1072 14.7535 11.9727 14.713 11.8249C14.6725 11.6771 14.6706 11.5211 14.7074 11.3723L14.7181 11.3565ZM14.2172 10.0561C14.136 10.0919 14.0472 10.1065 13.959 10.0986C13.8467 10.0882 13.7375 10.0552 13.6378 10.0014C13.4512 9.90109 13.258 9.81426 13.0595 9.74158C13.1178 9.82222 13.1981 9.88348 13.2904 9.91764C13.4248 10.0099 13.6699 10.1071 13.6128 10.3171C13.3356 10.5915 12.8239 10.7227 12.467 10.8344C11.9685 10.8441 11.1046 10.9558 10.8774 10.3705C10.8228 10.3542 10.7692 10.3347 10.7168 10.3123L10.7525 10.2916C10.8249 10.2501 10.9076 10.2311 10.9904 10.237C11.0456 10.2397 11.0996 10.2546 11.1487 10.2807C11.2474 10.3302 11.3491 10.3732 11.4533 10.4094C11.9744 10.5563 12.5812 10.4252 13.0655 10.2115C12.8204 10.0271 12.5558 9.87155 12.2766 9.74765C11.9054 9.97592 11.4045 9.96378 10.9987 9.84721C10.4312 10.169 10.0612 10.8259 9.96241 11.4694C9.89368 11.1661 9.87877 10.8528 9.91839 10.5442C9.95793 10.1921 10.0881 9.85696 10.2956 9.5728L10.3217 9.53516C10.354 9.4878 10.3943 9.44668 10.4407 9.41374C10.9899 9.04304 11.6217 8.81923 12.2778 8.76293C12.4259 8.75525 12.573 8.79017 12.7026 8.8637C12.862 8.95598 13.0405 9.08226 13.1285 9.14297C13.4284 9.31903 13.8127 9.59344 14.1244 9.80593C14.2004 9.8584 14.255 9.93743 14.2779 10.0281L14.2172 10.0561Z" fill="url(#paint18_linear_1_4287)"/>
</g>
<defs>
<linearGradient id="paint0_linear_1_4287" x1="-0.371226" y1="3.33178" x2="11.2685" y2="24.2361" gradientUnits="userSpaceOnUse">
<stop stopColor="#2E1988"/>
<stop offset="0.05" stopColor="#351C91"/>
<stop offset="0.14" stopColor="#4725AB"/>
<stop offset="0.25" stopColor="#6432D4"/>
<stop offset="0.26" stopColor="#6834D9"/>
<stop offset="0.51" stopColor="#8A2CF4"/>
<stop offset="0.79" stopColor="#5F09AF"/>
<stop offset="1" stopColor="#170023"/>
</linearGradient>
<linearGradient id="paint1_linear_1_4287" x1="-4.19057" y1="5.45785" x2="7.45036" y2="26.3634" gradientUnits="userSpaceOnUse">
<stop stopColor="#2E1988"/>
<stop offset="0.05" stopColor="#351C91"/>
<stop offset="0.14" stopColor="#4725AB"/>
<stop offset="0.25" stopColor="#6432D4"/>
<stop offset="0.26" stopColor="#6834D9"/>
<stop offset="0.51" stopColor="#8A2CF4"/>
<stop offset="0.79" stopColor="#5F09AF"/>
<stop offset="1" stopColor="#170023"/>
</linearGradient>
<linearGradient id="paint2_linear_1_4287" x1="1.87635" y1="2.07994" x2="13.5173" y2="22.9843" gradientUnits="userSpaceOnUse">
<stop stopColor="#2E1988"/>
<stop offset="0.05" stopColor="#351C91"/>
<stop offset="0.14" stopColor="#4725AB"/>
<stop offset="0.25" stopColor="#6432D4"/>
<stop offset="0.26" stopColor="#6834D9"/>
<stop offset="0.51" stopColor="#8A2CF4"/>
<stop offset="0.79" stopColor="#5F09AF"/>
<stop offset="1" stopColor="#170023"/>
</linearGradient>
<linearGradient id="paint3_linear_1_4287" x1="1.63244" y1="2.2147" x2="13.2734" y2="23.1202" gradientUnits="userSpaceOnUse">
<stop stopColor="#2E1988"/>
<stop offset="0.05" stopColor="#351C91"/>
<stop offset="0.14" stopColor="#4725AB"/>
<stop offset="0.25" stopColor="#6432D4"/>
<stop offset="0.26" stopColor="#6834D9"/>
<stop offset="0.51" stopColor="#8A2CF4"/>
<stop offset="0.79" stopColor="#5F09AF"/>
<stop offset="1" stopColor="#170023"/>
</linearGradient>
<linearGradient id="paint4_linear_1_4287" x1="0.0666281" y1="3.08772" x2="11.7075" y2="23.9921" gradientUnits="userSpaceOnUse">
<stop stopColor="#2E1988"/>
<stop offset="0.05" stopColor="#351C91"/>
<stop offset="0.14" stopColor="#4725AB"/>
<stop offset="0.25" stopColor="#6432D4"/>
<stop offset="0.26" stopColor="#6834D9"/>
<stop offset="0.51" stopColor="#8A2CF4"/>
<stop offset="0.79" stopColor="#5F09AF"/>
<stop offset="1" stopColor="#170023"/>
</linearGradient>
<linearGradient id="paint5_linear_1_4287" x1="-2.0227" y1="4.25093" x2="9.61821" y2="25.1553" gradientUnits="userSpaceOnUse">
<stop stopColor="#2E1988"/>
<stop offset="0.05" stopColor="#351C91"/>
<stop offset="0.14" stopColor="#4725AB"/>
<stop offset="0.25" stopColor="#6432D4"/>
<stop offset="0.26" stopColor="#6834D9"/>
<stop offset="0.51" stopColor="#8A2CF4"/>
<stop offset="0.79" stopColor="#5F09AF"/>
<stop offset="1" stopColor="#170023"/>
</linearGradient>
<linearGradient id="paint6_linear_1_4287" x1="-3.8705" y1="5.27937" x2="7.77042" y2="26.1849" gradientUnits="userSpaceOnUse">
<stop stopColor="#2E1988"/>
<stop offset="0.05" stopColor="#351C91"/>
<stop offset="0.14" stopColor="#4725AB"/>
<stop offset="0.25" stopColor="#6432D4"/>
<stop offset="0.26" stopColor="#6834D9"/>
<stop offset="0.51" stopColor="#8A2CF4"/>
<stop offset="0.79" stopColor="#5F09AF"/>
<stop offset="1" stopColor="#170023"/>
</linearGradient>
<linearGradient id="paint7_linear_1_4287" x1="0.0071377" y1="3.12051" x2="11.6481" y2="24.0248" gradientUnits="userSpaceOnUse">
<stop stopColor="#2E1988"/>
<stop offset="0.05" stopColor="#351C91"/>
<stop offset="0.14" stopColor="#4725AB"/>
<stop offset="0.25" stopColor="#6432D4"/>
<stop offset="0.26" stopColor="#6834D9"/>
<stop offset="0.51" stopColor="#8A2CF4"/>
<stop offset="0.79" stopColor="#5F09AF"/>
<stop offset="1" stopColor="#170023"/>
</linearGradient>
<linearGradient id="paint8_linear_1_4287" x1="3.19825" y1="1.34291" x2="14.8392" y2="22.2485" gradientUnits="userSpaceOnUse">
<stop stopColor="#2E1988"/>
<stop offset="0.05" stopColor="#351C91"/>
<stop offset="0.14" stopColor="#4725AB"/>
<stop offset="0.25" stopColor="#6432D4"/>
<stop offset="0.26" stopColor="#6834D9"/>
<stop offset="0.51" stopColor="#8A2CF4"/>
<stop offset="0.79" stopColor="#5F09AF"/>
<stop offset="1" stopColor="#170023"/>
</linearGradient>
<linearGradient id="paint9_linear_1_4287" x1="2.82346" y1="1.55176" x2="14.4644" y2="22.4573" gradientUnits="userSpaceOnUse">
<stop stopColor="#2E1988"/>
<stop offset="0.05" stopColor="#351C91"/>
<stop offset="0.14" stopColor="#4725AB"/>
<stop offset="0.25" stopColor="#6432D4"/>
<stop offset="0.26" stopColor="#6834D9"/>
<stop offset="0.51" stopColor="#8A2CF4"/>
<stop offset="0.79" stopColor="#5F09AF"/>
<stop offset="1" stopColor="#170023"/>
</linearGradient>
<linearGradient id="paint10_linear_1_4287" x1="0.171337" y1="3.02946" x2="11.8122" y2="23.9338" gradientUnits="userSpaceOnUse">
<stop stopColor="#2E1988"/>
<stop offset="0.05" stopColor="#351C91"/>
<stop offset="0.14" stopColor="#4725AB"/>
<stop offset="0.25" stopColor="#6432D4"/>
<stop offset="0.26" stopColor="#6834D9"/>
<stop offset="0.51" stopColor="#8A2CF4"/>
<stop offset="0.79" stopColor="#5F09AF"/>
<stop offset="1" stopColor="#170023"/>
</linearGradient>
<linearGradient id="paint11_linear_1_4287" x1="5.47082" y1="0.0777104" x2="17.1117" y2="20.9833" gradientUnits="userSpaceOnUse">
<stop stopColor="#2E1988"/>
<stop offset="0.05" stopColor="#351C91"/>
<stop offset="0.14" stopColor="#4725AB"/>
<stop offset="0.25" stopColor="#6432D4"/>
<stop offset="0.26" stopColor="#6834D9"/>
<stop offset="0.51" stopColor="#8A2CF4"/>
<stop offset="0.79" stopColor="#5F09AF"/>
<stop offset="1" stopColor="#170023"/>
</linearGradient>
<linearGradient id="paint12_linear_1_4287" x1="4.10965" y1="0.835378" x2="15.7506" y2="21.7409" gradientUnits="userSpaceOnUse">
<stop stopColor="#2E1988"/>
<stop offset="0.05" stopColor="#351C91"/>
<stop offset="0.14" stopColor="#4725AB"/>
<stop offset="0.25" stopColor="#6432D4"/>
<stop offset="0.26" stopColor="#6834D9"/>
<stop offset="0.51" stopColor="#8A2CF4"/>
<stop offset="0.79" stopColor="#5F09AF"/>
<stop offset="1" stopColor="#170023"/>
</linearGradient>
<linearGradient id="paint13_linear_1_4287" x1="8.52749" y1="-1.6246" x2="20.1684" y2="19.2809" gradientUnits="userSpaceOnUse">
<stop stopColor="#2E1988"/>
<stop offset="0.05" stopColor="#351C91"/>
<stop offset="0.14" stopColor="#4725AB"/>
<stop offset="0.25" stopColor="#6432D4"/>
<stop offset="0.26" stopColor="#6834D9"/>
<stop offset="0.51" stopColor="#8A2CF4"/>
<stop offset="0.79" stopColor="#5F09AF"/>
<stop offset="1" stopColor="#170023"/>
</linearGradient>
<linearGradient id="paint14_linear_1_4287" x1="8.6417" y1="-1.68774" x2="20.2826" y2="19.2178" gradientUnits="userSpaceOnUse">
<stop stopColor="#2E1988"/>
<stop offset="0.05" stopColor="#351C91"/>
<stop offset="0.14" stopColor="#4725AB"/>
<stop offset="0.25" stopColor="#6432D4"/>
<stop offset="0.26" stopColor="#6834D9"/>
<stop offset="0.51" stopColor="#8A2CF4"/>
<stop offset="0.79" stopColor="#5F09AF"/>
<stop offset="1" stopColor="#170023"/>
</linearGradient>
<linearGradient id="paint15_linear_1_4287" x1="9.25089" y1="-2.02773" x2="20.8918" y2="18.8778" gradientUnits="userSpaceOnUse">
<stop stopColor="#2E1988"/>
<stop offset="0.05" stopColor="#351C91"/>
<stop offset="0.14" stopColor="#4725AB"/>
<stop offset="0.25" stopColor="#6432D4"/>
<stop offset="0.26" stopColor="#6834D9"/>
<stop offset="0.51" stopColor="#8A2CF4"/>
<stop offset="0.79" stopColor="#5F09AF"/>
<stop offset="1" stopColor="#170023"/>
</linearGradient>
<linearGradient id="paint16_linear_1_4287" x1="3.91572" y1="0.943439" x2="15.5566" y2="21.849" gradientUnits="userSpaceOnUse">
<stop stopColor="#2E1988"/>
<stop offset="0.05" stopColor="#351C91"/>
<stop offset="0.14" stopColor="#4725AB"/>
<stop offset="0.25" stopColor="#6432D4"/>
<stop offset="0.26" stopColor="#6834D9"/>
<stop offset="0.51" stopColor="#8A2CF4"/>
<stop offset="0.79" stopColor="#5F09AF"/>
<stop offset="1" stopColor="#170023"/>
</linearGradient>
<linearGradient id="paint17_linear_1_4287" x1="1.81092" y1="2.11518" x2="13.4517" y2="23.0207" gradientUnits="userSpaceOnUse">
<stop stopColor="#2E1988"/>
<stop offset="0.05" stopColor="#351C91"/>
<stop offset="0.14" stopColor="#4725AB"/>
<stop offset="0.25" stopColor="#6432D4"/>
<stop offset="0.26" stopColor="#6834D9"/>
<stop offset="0.51" stopColor="#8A2CF4"/>
<stop offset="0.79" stopColor="#5F09AF"/>
<stop offset="1" stopColor="#170023"/>
</linearGradient>
<linearGradient id="paint18_linear_1_4287" x1="3.16613" y1="1.36112" x2="14.807" y2="22.2667" gradientUnits="userSpaceOnUse">
<stop stopColor="#2E1988"/>
<stop offset="0.05" stopColor="#351C91"/>
<stop offset="0.14" stopColor="#4725AB"/>
<stop offset="0.25" stopColor="#6432D4"/>
<stop offset="0.26" stopColor="#6834D9"/>
<stop offset="0.51" stopColor="#8A2CF4"/>
<stop offset="0.79" stopColor="#5F09AF"/>
<stop offset="1" stopColor="#170023"/>
</linearGradient>
<clipPath id="clip0_1_4287">
<rect width="18.566" height="24" fill="white"/>
</clipPath>
</defs>
</svg>
