<svg width="20" height="20" viewBox="0 0 20 20" fill="none" xmlns="http://www.w3.org/2000/svg">
<path d="M4.16667 9.16669H10.8333V10.8334H4.16667V13.3334L0 10L4.16667 6.66669V9.16669ZM3.33273 15H5.59029C6.76552 16.0373 8.30926 16.6667 10 16.6667C13.6819 16.6667 16.6667 13.6819 16.6667 10C16.6667 6.31812 13.6819 3.33335 10 3.33335C8.30926 3.33335 6.76552 3.96275 5.59029 5.00002H3.33273C4.85307 2.97595 7.27363 1.66669 10 1.66669C14.6023 1.66669 18.3333 5.39765 18.3333 10C18.3333 14.6024 14.6023 18.3334 10 18.3334C7.27363 18.3334 4.85307 17.0241 3.33273 15Z" fill="#A4A7AE"/>
</svg>
