<svg width="20" height="20" viewBox="0 0 20 20" fill="none" xmlns="http://www.w3.org/2000/svg">
<path d="M10 5.83333C13.6819 5.83333 16.6667 8.81809 16.6667 12.5C16.6667 16.1819 13.6819 19.1667 10 19.1667C6.3181 19.1667 3.33333 16.1819 3.33333 12.5C3.33333 8.81809 6.3181 5.83333 10 5.83333ZM10 7.5C7.23857 7.5 5 9.73859 5 12.5C5 15.2614 7.23857 17.5 10 17.5C12.7614 17.5 15 15.2614 15 12.5C15 9.73859 12.7614 7.5 10 7.5ZM10 8.75001L11.1021 10.9831L13.5665 11.3412L11.7832 13.0794L12.2042 15.5338L10 14.375L7.79581 15.5338L8.21676 13.0794L6.43354 11.3412L8.89791 10.9831L10 8.75001ZM15 1.66667V4.16667L13.8638 5.11463C12.9421 4.63142 11.9187 4.31571 10.8342 4.20791L10.8333 1.66583L15 1.66667ZM9.16667 1.66583L9.16641 4.20783C8.082 4.31553 7.05872 4.63113 6.13701 5.1142L5 4.16667V1.66667L9.16667 1.66583Z" fill="#A4A7AE"/>
</svg>
