<svg width="20" height="20" viewBox="0 0 20 20" fill="none" xmlns="http://www.w3.org/2000/svg">
<path d="M10 5.83352C13.6819 5.83352 16.6667 8.81825 16.6667 12.5002C16.6667 16.1821 13.6819 19.1668 10 19.1668C6.3181 19.1668 3.33333 16.1821 3.33333 12.5002C3.33333 8.81825 6.3181 5.83352 10 5.83352ZM10 8.75017L8.89792 10.9832L6.43354 11.3413L8.21677 13.0796L7.79581 15.534L10 14.3752L12.2042 15.534L11.7832 13.0796L13.5665 11.3413L11.1021 10.9832L10 8.75017ZM10.8333 1.66602L15 1.66685V4.16685L13.8638 5.11482C12.9421 4.63161 11.9187 4.31589 10.8342 4.20809L10.8333 1.66602ZM9.16667 1.66602L9.16642 4.20802C8.082 4.31572 7.05872 4.63132 6.13701 5.11438L5 4.16685V1.66685L9.16667 1.66602Z" fill="#FDFDFF"/>
</svg>
