<svg width="25" height="24" viewBox="0 0 25 24" fill="none" xmlns="http://www.w3.org/2000/svg">
<g clip-path="url(#clip0_695_5926)">
<path d="M10.4524 9.62272L12.0109 6.31816C12.211 5.89395 12.789 5.89395 12.9891 6.31816L14.5476 9.62272L18.0329 10.1559C18.4801 10.2243 18.6583 10.7996 18.3346 11.1296L15.813 13.7001L16.4081 17.3314C16.4845 17.7978 16.0168 18.1534 15.6167 17.9331L12.5 16.2177L9.38328 17.9331C8.98316 18.1534 8.51545 17.7978 8.59187 17.3314L9.18695 13.7001L6.66545 11.1296C6.3417 10.7996 6.51993 10.2243 6.96711 10.1559L10.4524 9.62272Z" stroke="#464646" stroke-width="1.5" stroke-linecap="round" stroke-linejoin="round"/>
<path d="M22.5 12H23.5" stroke="#464646" stroke-width="1.5" stroke-linecap="round" stroke-linejoin="round"/>
<path d="M12.5 2V1" stroke="#464646" stroke-width="1.5" stroke-linecap="round" stroke-linejoin="round"/>
<path d="M12.5 23V22" stroke="#464646" stroke-width="1.5" stroke-linecap="round" stroke-linejoin="round"/>
<path d="M20.5 20L19.5 19" stroke="#464646" stroke-width="1.5" stroke-linecap="round" stroke-linejoin="round"/>
<path d="M20.5 4L19.5 5" stroke="#464646" stroke-width="1.5" stroke-linecap="round" stroke-linejoin="round"/>
<path d="M4.5 20L5.5 19" stroke="#464646" stroke-width="1.5" stroke-linecap="round" stroke-linejoin="round"/>
<path d="M4.5 4L5.5 5" stroke="#464646" stroke-width="1.5" stroke-linecap="round" stroke-linejoin="round"/>
<path d="M1.5 12H2.5" stroke="#464646" stroke-width="1.5" stroke-linecap="round" stroke-linejoin="round"/>
</g>
<defs>
<clipPath id="clip0_695_5926">
<rect width="24" height="24" fill="white" transform="translate(0.5)"/>
</clipPath>
</defs>
</svg>
