<svg width="18" height="18" viewBox="0 0 18 18" fill="none" xmlns="http://www.w3.org/2000/svg">
<g clip-path="url(#clip0_232_10940)">
<path d="M16.5514 7.75974C16.5514 7.22987 16.5514 6.72756 16.5514 6.22461C16.5514 5.91258 16.545 5.59992 16.5546 5.28789C16.5585 5.15911 16.5155 5.09248 16.4013 5.02777C15.9657 4.78045 15.7842 4.31979 15.924 3.86104C16.0626 3.40486 16.4841 3.1191 16.971 3.15178C17.4246 3.18189 17.8005 3.53236 17.8833 4.00264C17.9532 4.39987 17.7466 4.80608 17.3745 5.03674C17.3078 5.07838 17.2321 5.17192 17.2315 5.2424C17.2218 6.05097 17.2257 6.86019 17.2276 7.66876C17.2276 7.69118 17.2392 7.71361 17.2494 7.75013C17.295 7.75333 17.3405 7.75717 17.3867 7.75974C17.7639 7.78408 17.9923 8.01346 17.9962 8.3934C18.0019 9.00975 18.0019 9.62675 17.9962 10.2431C17.9923 10.6404 17.746 10.8787 17.3444 10.8864C17.1038 10.8909 16.8626 10.8749 16.6226 10.8902C16.2108 10.9171 15.8913 10.8069 15.7733 10.3796H14.1034C14.1034 10.9505 14.1002 11.5085 14.1091 12.0666C14.1098 12.1121 14.1868 12.1736 14.2419 12.1979C14.7192 12.4081 14.9521 12.7752 14.9598 13.291C14.9624 13.4909 14.9681 13.692 14.9579 13.8913C14.9335 14.3648 14.7135 14.7184 14.2695 14.8998C14.1277 14.9574 14.0995 15.0305 14.1008 15.165C14.1053 15.9576 14.104 16.7508 14.1027 17.5433C14.1027 17.8938 13.9949 18.0008 13.644 18.0008C9.53055 18.0008 5.41771 18.0008 1.30423 18.0008C0.968715 18.0008 0.86158 17.8931 0.860939 17.5542C0.859014 16.7617 0.857089 15.9685 0.863505 15.1759C0.864788 15.0279 0.825013 14.9568 0.679386 14.8946C0.238656 14.7056 0.0154042 14.3558 0.00385674 13.8772C-0.00127549 13.669 -0.00063396 13.4607 0.00385674 13.2525C0.0134797 12.7643 0.238015 12.4093 0.689009 12.2197C0.825654 12.162 0.862222 12.0935 0.86158 11.9551C0.857731 10.1931 0.857731 8.43184 0.86158 6.6699C0.86158 6.53919 0.824371 6.47576 0.699273 6.42386C0.235448 6.23357 0.0109135 5.87286 0.00321521 5.37503C7.56816e-06 5.17513 -0.00063396 4.97459 0.00321521 4.77469C0.0141212 4.27622 0.251487 3.93152 0.705689 3.72201C0.779464 3.68805 0.856448 3.5913 0.871845 3.51186C1.06045 2.52325 1.8027 1.87485 2.81247 1.83705C3.09282 1.8268 3.3738 1.83961 3.65415 1.82936C3.72023 1.8268 3.8248 1.78771 3.84404 1.73902C4.10707 1.06564 4.64339 0.679293 5.27594 0.433262C6.7816 -0.153625 8.29818 -0.148499 9.7923 0.480674C10.3735 0.725424 10.854 1.10408 11.1074 1.71596C11.1312 1.77234 11.2345 1.82616 11.3031 1.82936C11.6232 1.8441 11.9446 1.82744 12.2647 1.84666C13.1578 1.90048 13.8878 2.54439 14.0559 3.42023C14.0873 3.5849 14.1335 3.69382 14.3151 3.76686C14.6936 3.91934 14.9066 4.23329 14.9451 4.63565C14.9733 4.9291 14.9746 5.22959 14.9457 5.52239C14.9046 5.94398 14.6769 6.25856 14.2779 6.41682C14.1297 6.47576 14.0963 6.55072 14.0989 6.69681C14.1079 7.20873 14.1021 7.72065 14.1021 8.27294H14.7763C14.9765 8.27294 15.1773 8.26525 15.3774 8.27486C15.6065 8.28576 15.7919 8.28768 15.9067 8.01025C16.0029 7.77832 16.2666 7.7418 16.5514 7.75974ZM1.54224 17.3107H13.4099V15.0042H1.54224V17.3107ZM7.47381 5.84082C8.33988 5.84082 9.20594 5.84082 10.072 5.84082C11.2986 5.84082 12.5258 5.8421 13.7524 5.84018C14.122 5.84018 14.2798 5.68065 14.2856 5.31544C14.2875 5.20332 14.2856 5.0912 14.2856 4.97907C14.2856 4.43383 14.1714 4.32107 13.6184 4.32107C9.52093 4.32107 5.42285 4.32107 1.32541 4.32107C1.25355 4.32107 1.18042 4.31786 1.10921 4.32427C0.836561 4.34926 0.687084 4.50431 0.677461 4.77533C0.671688 4.9355 0.675537 5.09568 0.676178 5.25586C0.67682 5.70563 0.812182 5.84018 1.26638 5.84082C3.33531 5.84082 5.40424 5.84082 7.47317 5.84082H7.47381ZM7.48472 14.3122H13.4259C14.2573 14.3122 14.2868 14.2828 14.2862 13.4447C14.2862 12.9219 14.1707 12.8047 13.6549 12.8047C9.5421 12.8047 5.42862 12.8047 1.31578 12.8047C1.25163 12.8047 1.18748 12.8027 1.12332 12.8059C0.84041 12.82 0.686443 12.9764 0.677461 13.264C0.672971 13.4082 0.676178 13.5524 0.676178 13.6965C0.676178 14.1969 0.793578 14.3122 1.30295 14.3122C3.36354 14.3122 5.42413 14.3122 7.48472 14.3122ZM1.55315 3.63487H13.3964C13.3496 3.05375 12.8723 2.56425 12.2814 2.52389C11.8343 2.49377 11.3839 2.51235 10.9355 2.50466C10.6314 2.49954 10.5596 2.40536 10.4896 2.11447C10.4434 1.92162 10.3536 1.71275 10.2189 1.57308C10.0457 1.39368 9.82181 1.24568 9.5947 1.1374C8.72543 0.72222 7.80035 0.618426 6.85153 0.726065C6.17728 0.802308 5.52742 0.970814 4.96223 1.36997C4.70883 1.54937 4.50354 1.76593 4.45991 2.09782C4.41629 2.43291 4.32968 2.50082 3.98903 2.50531C3.5483 2.51043 3.10565 2.49377 2.66684 2.52453C2.09331 2.56553 1.63783 3.03004 1.55379 3.63423L1.55315 3.63487ZM5.73655 6.5251V12.1153H9.22583V6.5251H5.73655ZM5.03921 6.52894H1.54609V12.1153H5.03985V6.52894H5.03921ZM9.9283 6.52574V12.1146H13.4086V6.52574H9.9283ZM16.4648 8.44209V10.1995H17.3072V8.44209H16.4648ZM15.7656 9.67993V8.95914H14.1143V9.67993H15.7656ZM16.8863 4.49149C17.0659 4.49021 17.2244 4.33004 17.2212 4.15192C17.218 3.97316 17.0538 3.81235 16.8754 3.82772C16.6817 3.84374 16.5681 3.95586 16.5566 4.15192C16.5457 4.33196 16.708 4.49342 16.8863 4.49214V4.49149Z" fill="#888888"/>
<path d="M7.48665 2.03483C7.79907 2.03483 8.11214 2.03099 8.42456 2.03611C8.67348 2.03996 8.80948 2.16361 8.80884 2.36864C8.8082 2.56918 8.66578 2.70245 8.422 2.70501C7.78881 2.71014 7.15498 2.71078 6.52179 2.70437C6.28122 2.70181 6.14457 2.56021 6.15163 2.35454C6.15804 2.15592 6.28571 2.0406 6.52436 2.03675C6.84512 2.03099 7.16588 2.03547 7.48665 2.03547V2.03483Z" fill="#888888"/>
<path d="M7.75981 8.42461C7.35565 8.42461 6.99511 8.43422 6.63585 8.4214C6.33626 8.41115 6.16369 8.12668 6.32792 7.91268C6.39079 7.83131 6.52487 7.7634 6.62815 7.76083C7.1959 7.7461 7.76494 7.74738 8.33269 7.75699C8.63293 7.76211 8.77599 8.01071 8.62523 8.2766C8.16461 9.08966 7.69437 9.89759 7.22157 10.7042C7.10802 10.8977 6.91556 10.9413 6.75004 10.8381C6.58325 10.7344 6.53834 10.5543 6.65125 10.3557C6.97073 9.79251 7.29727 9.23446 7.62124 8.67384C7.66037 8.60593 7.69758 8.53673 7.75917 8.42525L7.75981 8.42461Z" fill="#888888"/>
<path d="M3.5662 8.42405C3.16076 8.42405 2.80086 8.43366 2.44224 8.42085C2.14329 8.40996 1.972 8.12356 2.13816 7.91021C2.20103 7.82884 2.33575 7.76285 2.43968 7.76028C2.99973 7.74555 3.55979 7.74747 4.11984 7.75516C4.4483 7.75964 4.59008 8.00888 4.42457 8.29912C3.96972 9.0968 3.50782 9.89063 3.04336 10.6832C2.92018 10.8933 2.73286 10.944 2.55964 10.837C2.389 10.7312 2.35179 10.5454 2.47304 10.3327C2.78931 9.77787 3.11136 9.22558 3.43084 8.67265C3.46997 8.60473 3.5059 8.53554 3.56684 8.42405H3.5662Z" fill="#888888"/>
<path d="M11.9471 8.42522C11.5962 8.42522 11.2799 8.42715 10.963 8.42394C10.8758 8.4233 10.7853 8.42138 10.7019 8.39896C10.5319 8.35282 10.4498 8.22468 10.4652 8.05618C10.4806 7.88959 10.5794 7.76273 10.7571 7.76081C11.3653 7.75312 11.9741 7.748 12.5816 7.76338C12.8222 7.76914 12.9434 8.01453 12.8363 8.24198C12.7619 8.40024 12.6644 8.54824 12.5758 8.70009C12.196 9.35681 11.8227 10.018 11.4281 10.6664C11.3653 10.7702 11.2081 10.8631 11.0894 10.8708C10.9977 10.8766 10.8495 10.758 10.8136 10.6619C10.777 10.5639 10.8174 10.4101 10.8732 10.3083C11.1747 9.76302 11.4923 9.22675 11.8041 8.68727C11.8471 8.61295 11.8856 8.53671 11.9459 8.42587L11.9471 8.42522Z" fill="#888888"/>
</g>
<defs>
<clipPath id="clip0_232_10940">
<rect width="18" height="18" fill="white"/>
</clipPath>
</defs>
</svg>
