<svg width="16" height="17" viewBox="0 0 16 17" fill="none" xmlns="http://www.w3.org/2000/svg">
<path fill-rule="evenodd" clip-rule="evenodd" d="M8.00004 1.5249C4.31804 1.5249 1.33337 4.50957 1.33337 8.19157C1.33337 11.8736 4.31804 14.8582 8.00004 14.8582C11.682 14.8582 14.6667 11.8736 14.6667 8.19157C14.6667 4.50957 11.682 1.5249 8.00004 1.5249ZM2.66671 8.19157C2.66692 7.08158 3.01346 5.99932 3.658 5.09565C4.30255 4.19198 5.21298 3.51192 6.2624 3.15028C7.31182 2.78864 8.44793 2.76344 9.51235 3.07818C10.5768 3.39293 11.5165 4.03194 12.2005 4.90614C12.8845 5.78034 13.2786 6.84617 13.3281 7.95505C13.3775 9.06394 13.0798 10.1606 12.4763 11.0922C11.8728 12.0238 10.9937 12.7439 9.96151 13.1522C8.92932 13.5604 7.79548 13.6364 6.71804 13.3696L7.19671 11.1202C7.65471 11.5176 8.22337 11.6689 8.76937 11.6589C9.36804 11.6476 9.96937 11.4456 10.4727 11.1289C10.974 10.8136 11.422 10.3556 11.6674 9.7909C11.9325 9.18218 12.042 8.51702 11.9859 7.85542C11.9298 7.19382 11.7099 6.55659 11.346 6.00121C10.9821 5.44583 10.4857 4.98977 9.90155 4.67416C9.31738 4.35855 8.66384 4.19333 7.99987 4.19339C7.33589 4.19345 6.68238 4.35879 6.09826 4.67451C5.51415 4.99022 5.01782 5.44637 4.65403 6.00182C4.29025 6.55727 4.07045 7.19454 4.01447 7.85615C3.95849 8.51776 4.06809 9.18289 4.33337 9.79157C4.36657 9.87444 4.41607 9.9498 4.47894 10.0132C4.54181 10.0766 4.61677 10.1267 4.69937 10.1605C4.78197 10.1944 4.87053 10.2113 4.9598 10.2103C5.04906 10.2093 5.13722 10.1904 5.21903 10.1546C5.30084 10.1189 5.37464 10.0671 5.43606 10.0023C5.49748 9.93753 5.54526 9.86107 5.57656 9.77747C5.60787 9.69387 5.62207 9.60483 5.61831 9.51563C5.61456 9.42644 5.59293 9.33891 5.55471 9.25824C5.39669 8.89496 5.32159 8.50104 5.33488 8.1051C5.34816 7.70917 5.4495 7.32116 5.63152 6.9693C5.81354 6.61743 6.07167 6.31054 6.38716 6.07093C6.70264 5.83132 7.06754 5.66501 7.45535 5.5841C7.84315 5.50318 8.24412 5.50968 8.6291 5.60313C9.01407 5.69658 9.37339 5.87464 9.68094 6.12435C9.98849 6.37406 10.2365 6.68916 10.407 7.04674C10.5776 7.40433 10.6663 7.79541 10.6667 8.19157C10.6667 8.92157 10.3934 9.6029 9.76204 10.0002C9.43671 10.2056 9.06937 10.3202 8.74471 10.3256C8.42671 10.3322 8.18337 10.2362 8.01471 10.0596C7.84937 9.88624 7.66737 9.55157 7.66737 8.9249C7.66737 8.5249 7.82004 8.19157 8.00271 7.33024C8.02248 7.24403 8.0249 7.15476 8.00982 7.06762C7.99475 6.98047 7.9625 6.8972 7.91493 6.82264C7.86736 6.74808 7.80543 6.68374 7.73275 6.63335C7.66008 6.58296 7.5781 6.54753 7.49159 6.52914C7.40509 6.51074 7.31579 6.50974 7.22889 6.52619C7.142 6.54264 7.05925 6.57621 6.98545 6.62496C6.91166 6.67371 6.84831 6.73665 6.79908 6.81012C6.74985 6.88359 6.71573 6.96612 6.69871 7.0529L5.45871 12.8816C4.61395 12.4239 3.90856 11.7465 3.4171 10.9209C2.92564 10.0953 2.66637 9.15234 2.66671 8.19157Z" fill="#464646"/>
</svg>
