<svg width="20" height="20" viewBox="0 0 20 20" fill="none" xmlns="http://www.w3.org/2000/svg">
<path d="M2.78288 14.1669C2.42268 13.5429 2.15231 12.8919 1.96778 12.2284C2.77817 11.8149 3.3331 10.9724 3.3331 10.0002C3.3331 9.02877 2.779 8.18669 1.96961 7.77286C2.34188 6.43044 3.04881 5.18024 4.05395 4.15836C4.81725 4.65349 5.82446 4.7128 6.66643 4.22669C7.50841 3.74057 7.96064 2.83864 7.9135 1.93005C9.30108 1.57052 10.7373 1.58339 12.0859 1.9322C12.0396 2.84007 12.4917 3.74095 13.3331 4.22669C14.1751 4.71279 15.1823 4.65349 15.9455 4.15841C16.4277 4.6499 16.8564 5.20961 17.2167 5.83353C17.5768 6.45744 17.8472 7.10856 18.0317 7.77192C17.2213 8.18541 16.6664 9.02802 16.6664 10.0002C16.6664 10.9717 17.2205 11.8137 18.0299 12.2275C17.6577 13.5699 16.9508 14.8201 15.9456 15.842C15.1823 15.3469 14.1751 15.2876 13.3331 15.7737C12.4911 16.2598 12.0389 17.1618 12.086 18.0704C10.6985 18.4299 9.26233 18.417 7.91361 18.0682C7.95993 17.1603 7.50774 16.2594 6.66643 15.7737C5.82448 15.2876 4.81733 15.3469 4.05403 15.8419C3.57181 15.3504 3.1431 14.7908 2.78288 14.1669ZM7.49977 14.3304C8.40925 14.8554 9.06242 15.6856 9.37525 16.6383C9.7905 16.6778 10.2085 16.6784 10.6238 16.6396C10.9365 15.6864 11.5898 14.8557 12.4998 14.3304C13.4097 13.8049 14.4558 13.6546 15.4377 13.8604C15.6788 13.52 15.8873 13.1577 16.0608 12.7784C15.3922 12.0311 14.9998 11.0504 14.9998 10.0002C14.9998 8.95002 15.3922 7.96935 16.0608 7.2221C15.974 7.03377 15.8782 6.84854 15.7733 6.66686C15.6683 6.48518 15.5558 6.30959 15.4361 6.14037C14.4548 6.34565 13.4092 6.19514 12.4998 5.67006C11.5903 5.14498 10.9372 4.31475 10.6242 3.36214C10.2091 3.32264 9.791 3.32207 9.37575 3.36079C9.063 4.31394 8.40967 5.14472 7.49977 5.67006C6.58983 6.19541 5.54371 6.3458 4.5619 6.14004C4.32071 6.48036 4.11219 6.84266 3.9388 7.22199C4.60734 7.96928 4.99977 8.95002 4.99977 10.0002C4.99977 11.0504 4.60736 12.031 3.9388 12.7783C4.02556 12.9666 4.12137 13.1519 4.22627 13.3335C4.33116 13.5152 4.44367 13.6908 4.56343 13.86C5.54481 13.6548 6.59032 13.8053 7.49977 14.3304ZM9.99975 12.5002C8.61908 12.5002 7.49977 11.3809 7.49977 10.0002C7.49977 8.61952 8.61908 7.50019 9.99975 7.50019C11.3805 7.50019 12.4998 8.61952 12.4998 10.0002C12.4998 11.3809 11.3805 12.5002 9.99975 12.5002ZM9.99975 10.8335C10.46 10.8335 10.8331 10.4604 10.8331 10.0002C10.8331 9.53994 10.46 9.16685 9.99975 9.16685C9.5395 9.16685 9.16642 9.53994 9.16642 10.0002C9.16642 10.4604 9.5395 10.8335 9.99975 10.8335Z" fill="#A4A7AE"/>
</svg>
