<svg width="30" height="30" viewBox="0 0 30 30" fill="none" xmlns="http://www.w3.org/2000/svg">
<rect width="30" height="30" rx="15" fill="#64B6AC"/>
<path d="M9.16663 13.25C9.63075 13.25 10.0759 13.4343 10.4041 13.7625C10.7323 14.0907 10.9166 14.5358 10.9166 15C10.9166 15.4641 10.7323 15.9092 10.4041 16.2374C10.0759 16.5656 9.63075 16.75 9.16663 16.75V17.9166C9.16663 18.226 9.28954 18.5228 9.50833 18.7416C9.72713 18.9604 10.0239 19.0833 10.3333 19.0833H19.6666C19.976 19.0833 20.2728 18.9604 20.4916 18.7416C20.7104 18.5228 20.8333 18.226 20.8333 17.9166V16.75C20.3692 16.75 19.924 16.5656 19.5959 16.2374C19.2677 15.9092 19.0833 15.4641 19.0833 15C19.0833 14.5358 19.2677 14.0907 19.5959 13.7625C19.924 13.4343 20.3692 13.25 20.8333 13.25V12.0833C20.8333 11.7739 20.7104 11.4771 20.4916 11.2583C20.2728 11.0395 19.976 10.9166 19.6666 10.9166H10.3333C10.0239 10.9166 9.72713 11.0395 9.50833 11.2583C9.28954 11.4771 9.16663 11.7739 9.16663 12.0833V13.25Z" stroke="white" stroke-width="1.16667" stroke-linecap="round" stroke-linejoin="round"/>
<path d="M15.5834 10.9166V12.0833" stroke="white" stroke-width="1.16667" stroke-linecap="round" stroke-linejoin="round"/>
<path d="M15.5834 17.9166V19.0833" stroke="white" stroke-width="1.16667" stroke-linecap="round" stroke-linejoin="round"/>
<path d="M15.5834 14.4166V15.5833" stroke="white" stroke-width="1.16667" stroke-linecap="round" stroke-linejoin="round"/>
</svg>
