<svg width="30" height="30" viewBox="0 0 30 30" fill="none" xmlns="http://www.w3.org/2000/svg">
<rect width="30" height="30" rx="15" fill="#64B6AC"/>
<path d="M19.2083 12.0833V10.3333C19.2083 10.1786 19.1469 10.0303 19.0375 9.92085C18.9281 9.81146 18.7797 9.75 18.625 9.75H11.0417C10.7322 9.75 10.4355 9.87292 10.2167 10.0917C9.99792 10.3105 9.875 10.6072 9.875 10.9167C9.875 11.2261 9.99792 11.5228 10.2167 11.7416C10.4355 11.9604 10.7322 12.0833 11.0417 12.0833H19.7917C19.9464 12.0833 20.0947 12.1448 20.2041 12.2542C20.3135 12.3636 20.375 12.512 20.375 12.6667V15M20.375 15H18.625C18.3156 15 18.0188 15.1229 17.8 15.3417C17.5812 15.5605 17.4583 15.8572 17.4583 16.1667C17.4583 16.4761 17.5812 16.7728 17.8 16.9916C18.0188 17.2104 18.3156 17.3333 18.625 17.3333H20.375C20.5297 17.3333 20.6781 17.2719 20.7875 17.1625C20.8969 17.0531 20.9583 16.9047 20.9583 16.75V15.5833C20.9583 15.4286 20.8969 15.2803 20.7875 15.1709C20.6781 15.0615 20.5297 15 20.375 15Z" stroke="white" stroke-width="1.16667" stroke-linecap="round" stroke-linejoin="round"/>
<path d="M9.875 10.9166V19.0833C9.875 19.3927 9.99792 19.6895 10.2167 19.9083C10.4355 20.127 10.7322 20.25 11.0417 20.25H19.7917C19.9464 20.25 20.0947 20.1885 20.2041 20.0791C20.3135 19.9697 20.375 19.8213 20.375 19.6666V17.3333" stroke="white" stroke-width="1.16667" stroke-linecap="round" stroke-linejoin="round"/>
</svg>
