<svg width="30" height="30" viewBox="0 0 30 30" fill="none" xmlns="http://www.w3.org/2000/svg">
<rect width="30" height="30" rx="15" fill="#64B6AC"/>
<path d="M19.6667 12.6666H10.3333C10.0112 12.6666 9.75 12.9278 9.75 13.25V14.4166C9.75 14.7388 10.0112 15 10.3333 15H19.6667C19.9888 15 20.25 14.7388 20.25 14.4166V13.25C20.25 12.9278 19.9888 12.6666 19.6667 12.6666Z" stroke="white" stroke-width="1.16667" stroke-linecap="round" stroke-linejoin="round"/>
<path d="M15 12.6666V20.25" stroke="white" stroke-width="1.16667" stroke-linecap="round" stroke-linejoin="round"/>
<path d="M19.0833 15V19.0833C19.0833 19.3928 18.9604 19.6895 18.7416 19.9083C18.5228 20.1271 18.226 20.25 17.9166 20.25H12.0833C11.7739 20.25 11.4771 20.1271 11.2583 19.9083C11.0395 19.6895 10.9166 19.3928 10.9166 19.0833V15" stroke="white" stroke-width="1.16667" stroke-linecap="round" stroke-linejoin="round"/>
<path d="M12.375 12.6666C11.9882 12.6666 11.6173 12.5129 11.3438 12.2394C11.0703 11.9659 10.9166 11.595 10.9166 11.2082C10.9166 10.8214 11.0703 10.4505 11.3438 10.177C11.6173 9.90353 11.9882 9.74989 12.375 9.74989C12.9377 9.74008 13.4891 10.0131 13.9574 10.5334C14.4256 11.0537 14.789 11.797 15 12.6666C15.211 11.797 15.5743 11.0537 16.0425 10.5334C16.5108 10.0131 17.0622 9.74008 17.625 9.74989C18.0117 9.74989 18.3827 9.90353 18.6562 10.177C18.9296 10.4505 19.0833 10.8214 19.0833 11.2082C19.0833 11.595 18.9296 11.9659 18.6562 12.2394C18.3827 12.5129 18.0117 12.6666 17.625 12.6666" stroke="white" stroke-width="1.16667" stroke-linecap="round" stroke-linejoin="round"/>
</svg>
