<svg width="316" height="232" viewBox="0 0 316 232" fill="none" xmlns="http://www.w3.org/2000/svg">
<g clip-path="url(#clip0_1195_5561)">
<g filter="url(#filter0_d_1195_5561)">
<path d="M106.948 44.9239C105.696 46.3271 103.471 48.127 101.468 47.2062C98.2661 45.7349 100.04 40.3248 100.927 37.9362C99.5199 39.5054 98.18 41.1582 96.5182 42.4783C95.8394 43.0369 94.9446 43.5489 94.0735 43.1486C93.1152 42.7082 92.7262 41.316 92.9871 40.1169C93.2645 38.7672 93.8986 37.5023 94.5009 36.2491C95.5353 34.113 96.7558 32.0888 98.0198 30.0846C98.1935 29.8215 98.791 28.7508 99.0318 28.5713C99.3244 28.3365 99.6676 28.3359 99.9507 28.466C100.277 28.6162 100.536 28.9723 100.55 29.4008C100.573 30.0972 100.197 30.7423 99.8633 31.3539C99.3776 32.2386 98.8383 33.125 98.3208 34.0215C97.5295 35.3988 96.75 36.808 95.9805 38.1953C95.6067 38.894 95.2764 39.6127 94.9897 40.3514C94.8513 40.7099 94.6081 41.4686 94.8647 41.7712C95.5693 41.673 97.0434 40.1874 97.5315 39.6994C98.4958 38.6918 99.4265 37.6423 100.379 36.6029C101.073 35.8401 101.82 35.0755 102.513 34.3127C102.7 34.1349 102.897 33.9354 103.132 33.8848C103.302 33.8577 103.421 33.886 103.552 33.946C103.944 34.1262 104.144 34.6666 103.999 35.154C103.883 35.5225 103.788 35.9009 103.671 36.2694C103.057 38.1236 102.388 39.9795 101.98 41.902C101.848 42.4747 101.792 43.0557 101.758 43.6467C101.726 44.2912 101.88 45.3908 102.498 45.5958C103.748 46.0909 105.654 44.0656 106.302 43.2292C107.662 41.5328 108.756 39.5557 109.449 37.4737C109.614 36.9428 110.05 35.5342 109.798 35.0492C109.523 34.5005 110.072 33.9355 110.627 34.1639C110.975 34.3241 111.184 34.7891 111.24 35.1841C111.381 35.9087 111.182 36.6875 110.98 37.4127C110.277 40.1492 108.83 42.7815 106.948 44.9239ZM116.11 39.9812C115.888 40.4067 115.368 40.5633 114.954 40.3731C114.867 40.333 114.79 40.2712 114.713 40.2094C114.448 39.9822 114.38 39.5554 114.411 39.2005C114.416 39.018 114.506 38.822 114.564 38.6377C114.719 38.1286 115.425 36.7648 115.867 36.4928C116.097 36.3351 116.365 36.3263 116.583 36.4264C116.736 36.4965 116.88 36.6419 116.95 36.8326C117.241 37.5202 116.42 39.306 116.11 39.9812ZM111.936 48.7197C111.73 48.9946 111.347 49.0823 111.02 48.9322C110.323 48.6119 110.146 47.4487 110.371 46.7871C110.69 45.747 111.184 44.7869 111.668 43.8487C111.922 43.4114 112.176 42.974 112.441 42.5685C112.79 42.0958 113.307 41.489 113.982 41.7993C114.701 42.1296 114.513 42.9401 114.243 43.5281C113.627 45.0391 112.838 46.47 112.256 48.0228C112.206 48.1317 112.008 48.6209 111.936 48.7197ZM118.157 49.9433C117.55 50.403 116.963 50.8191 116.223 50.4788C114.763 49.8082 115.51 47.7245 115.913 46.6173C116.222 45.8886 117.144 43.9385 117.864 43.636C118.16 43.5083 118.461 43.5413 118.723 43.6614C119.202 43.8816 119.519 44.3967 119.312 44.9612C119.166 45.395 118.92 45.757 118.718 46.139C118.446 46.6734 118.174 47.2079 117.968 47.7724C118.427 47.4034 118.887 47.0343 119.369 46.6753C119.997 46.2256 120.636 45.7542 121.345 45.4735C121.769 45.2987 122.237 45.1975 122.669 45.2905C122.798 45.297 122.907 45.3471 123.016 45.3971C123.8 45.7574 124.138 46.5722 124.154 47.3974C124.152 48.3198 123.786 49.2328 123.461 50.1122C123.254 50.6767 123.069 51.2512 122.797 51.7856C122.597 52.2212 122.085 52.6456 121.584 52.4154C120.909 52.1051 120.901 51.2045 120.987 50.5581C121.089 49.7611 121.408 49.0106 121.683 48.2401C121.79 47.8934 121.906 47.525 121.916 47.16C121.735 47.2088 121.588 47.2995 121.441 47.3901C120.263 48.1152 119.265 49.0811 118.157 49.9433ZM134.598 64.6744C134.723 65.2066 134.111 65.5056 133.654 65.2954C132.913 64.9551 133.2 63.5836 133.395 62.9873C134.076 60.5304 135.244 58.2183 136.458 55.9798C135.717 56.6154 134.955 57.2411 134.113 57.7514C133.336 58.2381 132.354 58.7101 131.439 58.2897C130.938 58.0595 130.609 57.5126 130.506 56.9905C130.088 55.0309 132.191 52.4628 133.961 51.4823C134.689 51.1045 135.584 50.9356 136.346 51.2859C137 51.5862 137.493 52.2349 137.645 52.9378C138.236 52.3392 138.816 51.7088 139.331 51.0484C139.424 50.9595 139.718 50.4351 139.78 50.358C140.147 49.7882 140.503 49.1867 140.914 48.6369C141.181 48.2849 141.598 48.239 141.924 48.3892C142.273 48.5493 142.521 48.9273 142.365 49.3828C142.305 49.5135 142.233 49.6124 142.173 49.7431C141.016 51.7438 139.893 53.7862 138.801 55.817C137.437 58.3821 135.933 60.909 134.896 63.6243C134.838 63.8086 134.56 64.4719 134.598 64.6744ZM132.528 55.8623C132.398 56.1454 132.28 56.4603 132.354 56.7582C133.352 56.7683 135.783 54.6935 136.585 53.9808C136.471 53.77 136.41 53.5575 136.254 53.3803C136.165 53.2867 136.056 53.2367 135.947 53.1866C135.512 52.9865 135.182 53.0724 134.771 53.2789C133.769 53.7945 132.965 54.7969 132.528 55.8623ZM142.331 62.0557C142.064 62.0645 141.792 61.9662 141.541 61.8243C140.641 61.1997 140.455 60.1119 140.787 59.1035C141.046 58.1941 141.653 57.3913 142.272 56.6738C143.118 55.6378 144.726 54.3194 146.164 54.98C146.926 55.3303 147.138 55.9025 147.261 56.7243C147.343 56.6036 147.435 56.4612 147.55 56.3823C147.833 56.1692 148.186 56.1469 148.447 56.267C148.752 56.4071 148.955 56.7115 148.946 57.0765C148.945 57.3661 148.783 57.661 148.631 57.9341C147.88 59.2243 147.237 60.5646 146.66 61.9349C146.55 62.1745 146.452 62.4458 146.32 62.6754L146.23 62.8714C146.192 63.3552 145.687 63.6507 145.295 63.4705C145.252 63.4505 145.186 63.4205 145.153 63.3787C144.423 62.727 144.572 61.7139 144.846 60.8899C144.426 61.1718 144.006 61.4537 143.575 61.7038C143.195 61.8986 142.772 62.0734 142.331 62.0557ZM145.039 56.9689C144.348 57.4957 142.914 59.2374 142.804 60.1097C144.192 59.6136 145.383 58.6307 146.444 57.6413C146.313 57.5813 146.203 57.4776 146.134 57.3405C146.077 57.2351 145.977 56.8201 145.879 56.7483C145.659 56.5946 145.247 56.8012 145.039 56.9689ZM154.397 57.577C154.175 58.0026 153.655 58.1591 153.241 57.969C153.154 57.9289 153.077 57.8671 153 57.8053C152.735 57.578 152.667 57.1513 152.699 56.7963C152.703 56.6138 152.793 56.4178 152.852 56.2336C153.007 55.7244 153.712 54.3606 154.154 54.0887C154.385 53.931 154.653 53.9222 154.87 54.0223C155.023 54.0923 155.167 54.2377 155.238 54.4285C155.528 55.116 154.708 56.9019 154.397 57.577ZM150.223 66.3156C150.018 66.5905 149.634 66.6782 149.308 66.528C148.611 66.2077 148.433 65.0446 148.658 64.3829C148.978 63.3428 149.472 62.3828 149.956 61.4446C150.209 61.0072 150.463 60.5699 150.729 60.1643C151.078 59.6917 151.594 59.0849 152.269 59.3951C152.988 59.7254 152.8 60.536 152.53 61.124C151.915 62.635 151.125 64.0659 150.543 65.6187C150.493 65.7276 150.295 66.2167 150.223 66.3156ZM153.798 72.8385C153.794 73.3641 153.233 73.6078 152.798 73.4076C151.273 72.707 153.404 67.3817 153.893 66.261C154.73 64.3245 155.654 62.4279 156.666 60.5715C157.453 59.087 158.952 56.3994 160.312 55.3358C160.511 55.1899 160.757 55.1711 160.953 55.2611C161.105 55.3312 161.227 55.4666 161.276 55.6473C161.433 56.1677 161.151 56.7239 160.931 57.2031C160.71 57.6822 160.478 58.1295 160.236 58.5987C159.133 60.5976 158.085 62.6483 157.081 64.7191C155.916 67.1383 154.753 69.6111 153.969 72.1786C153.913 72.4164 153.791 72.6242 153.798 72.8385ZM163.226 78.174C162.311 79.3623 161.03 80.1981 159.527 79.5075C158.634 79.0971 157.824 78.2765 157.612 77.3611C157.586 77.244 157.605 77.1468 157.655 77.0379C157.761 76.6912 158.143 76.55 158.49 76.6566C158.664 76.7366 158.986 77.0693 159.096 77.1729C159.329 77.4119 159.583 77.6073 159.876 77.7157C160.05 77.7957 160.266 77.8423 160.458 77.8252C161.141 77.717 161.861 76.4385 162.141 75.8287C162.87 74.1853 163.24 72.4035 163.926 70.7401C163.39 71.1009 162.834 71.4516 162.231 71.7288C161.683 72.0043 161.117 72.0872 160.551 71.827C160.398 71.7569 160.256 71.6651 160.123 71.5514C159.27 70.7108 159.269 69.0485 159.458 67.9483C159.712 66.535 160.451 65.213 161.359 64.0999C161.699 63.7026 162.478 62.9263 163.088 63.2065C163.458 63.3767 163.607 63.9724 163.44 64.4498C163.205 65.1332 162.796 65.7365 162.452 66.3698C162.06 67.1657 161.733 67.9915 161.622 68.8638C161.581 69.2406 161.53 69.6391 161.586 70.0341C162.893 69.6586 164.71 68.1725 165.666 67.2402C165.77 67.1295 166.155 66.4626 166.237 66.342C166.584 65.8157 167.017 65.276 167.736 65.6063C168.215 65.8265 168.504 66.4605 168.18 67.0503C167.876 67.5965 167.628 68.1945 167.368 68.7608C166.785 69.9704 166.215 71.2118 165.785 72.4915C165.098 74.4445 164.491 76.5129 163.226 78.174ZM172.722 87.1806C172.396 87.7168 171.835 88.2501 171.181 87.9498C170.071 87.4393 170.593 85.3844 170.843 84.4968C171.516 81.8256 172.699 79.3093 174.046 76.8948C174.967 75.2343 175.932 73.5938 176.941 71.9734C177.32 71.4354 177.866 70.7633 178.607 71.1036C179.369 71.4539 179.165 72.4151 178.875 73.0467C177.59 75.7272 175.923 78.2059 174.66 80.8964C175.818 79.2389 181.031 72.0856 183.601 73.2667C184.82 73.8272 184.868 75.6167 184.648 76.7286C184.513 77.5374 184.272 78.3497 183.854 79.0284C182.846 80.6488 180.32 81.7829 178.556 80.9721C178.36 80.8821 178.174 80.7702 177.998 80.6366C177.81 80.4711 177.451 79.9896 177.432 79.7435C176.126 81.4381 174.974 83.2563 173.919 85.0928C173.513 85.8032 173.139 86.5019 172.722 87.1806ZM182.094 75.0537C180.746 75.8058 178.936 77.8494 177.989 79.0496C178.159 79.0225 178.355 79.1126 178.54 79.1709C178.898 79.3093 179.327 79.2952 179.733 79.2711C180.708 79.2176 181.803 78.6132 182.257 77.7403C182.681 76.9327 182.885 75.9714 182.77 75.0743C182.766 74.9672 182.753 74.8819 182.718 74.7865C182.493 74.8153 182.283 74.9295 182.094 75.0537ZM187.67 82.8922C187.331 83.343 186.839 83.7238 186.251 83.4536C185.467 83.0933 185.533 82.1473 185.746 81.4539C186.154 80.1643 186.669 78.8711 187.196 77.6097C187.485 76.9245 187.817 76.2594 188.226 75.656C188.389 75.4147 188.628 75.1816 188.928 75.1611C189.045 75.1358 189.164 75.164 189.251 75.2041C189.469 75.3042 189.627 75.5349 189.657 75.8128C189.705 76.2831 189.222 77.9077 189.075 78.3415C189.838 77.7159 190.925 76.8436 191.948 77.314C192.536 77.5843 192.942 78.193 193.059 78.8004C193.144 79.4197 192.388 79.9164 191.923 79.492C191.769 79.3684 191.511 79.0122 191.308 79.051C190.99 79.1687 190.696 79.35 190.413 79.5631C189.273 80.4371 188.478 81.7073 187.67 82.8922ZM198.862 78.0118C198.64 78.4373 198.12 78.5939 197.706 78.4037C197.619 78.3637 197.541 78.3018 197.464 78.24C197.2 78.0128 197.132 77.586 197.163 77.2311C197.168 77.0486 197.258 76.8526 197.316 76.6683C197.471 76.1592 198.177 74.7954 198.618 74.5235C198.849 74.3657 199.117 74.3569 199.335 74.457C199.487 74.5271 199.632 74.6725 199.702 74.8632C199.993 75.5508 199.172 77.3366 198.862 78.0118ZM194.688 86.7504C194.482 87.0252 194.099 87.1129 193.772 86.9628C193.075 86.6425 192.898 85.4793 193.123 84.8177C193.442 83.7776 193.936 82.8176 194.42 81.8793C194.674 81.442 194.928 81.0046 195.193 80.5991C195.542 80.1264 196.059 79.5196 196.734 79.8299C197.452 80.1602 197.265 80.9707 196.994 81.5588C196.379 83.0697 195.59 84.5007 195.008 86.0534C194.958 86.1623 194.759 86.6515 194.688 86.7504ZM198.853 88.0844C198.56 87.9761 198.277 87.846 198.066 87.617C197.842 87.3562 197.723 86.9847 197.766 86.6616C197.938 85.3689 201.005 83.402 202.03 82.6068C201.802 82.5285 201.01 82.2435 200.786 82.2723C200.678 82.2759 200.581 82.2576 200.494 82.2176C200.298 82.1275 200.13 81.9185 200.08 81.6842C200.022 81.2357 200.44 80.9002 200.892 80.9497C201.646 81.0322 202.54 81.1529 203.171 81.4432C203.716 81.6934 204.093 82.0778 204.007 82.7241C203.956 83.1226 203.732 83.4946 203.441 83.7831C202.382 84.826 201.089 85.63 199.996 86.6312C200.311 86.7495 200.994 86.9844 201.582 87.2547C202.039 87.4649 202.455 87.7086 202.601 87.9076C202.883 88.3273 202.581 88.9271 202.055 88.9229C201.895 88.9282 201.752 88.8364 201.59 88.7881C200.69 88.5066 199.754 88.4194 198.853 88.0844ZM209.101 92.4777C208.457 92.4453 207.832 92.3693 207.266 92.109C205.676 91.3784 204.801 89.5518 205.334 87.8183C205.535 87.0931 205.985 86.4026 206.491 85.8176C207.44 84.671 209.216 83.9047 210.654 84.5653C210.937 84.6954 211.19 84.8909 211.38 85.1099C211.646 85.3907 211.841 85.7704 211.885 86.1336C211.958 86.7211 211.733 87.3827 211.362 87.8453C210.413 88.9919 208.445 89.1424 207.206 88.3358C206.736 89.3594 207.175 90.6427 208.259 90.9825C208.605 91.0891 208.94 91.1638 209.287 91.2704C210.032 91.4282 209.887 92.5484 209.101 92.4777ZM207.857 87.2634C208.503 87.639 209.5 87.6491 210.119 87.2212C210.549 86.9175 210.72 86.2577 210.241 86.0375C210.067 85.9574 209.596 86.005 209.416 86.0539C208.8 86.2457 208.28 86.7454 207.857 87.2634ZM215.91 94.446C215.422 95.2771 214.419 95.7391 213.504 95.3187C212.959 95.0685 211.981 94.3285 211.846 93.8181C211.723 93.3395 212.159 92.9069 212.635 93.02C212.851 93.0665 212.997 93.2655 213.183 93.3773C213.357 93.4574 213.826 93.6994 214.007 93.6505C214.114 93.647 214.152 93.5063 214.17 93.4092C214.237 93.1496 214.206 92.8718 214.144 92.6057C213.995 91.6668 213.612 90.7785 213.602 89.8243C213.583 89.2351 213.734 88.6188 214.083 88.1462C214.801 87.1573 216.319 86.6677 217.451 87.1882C217.875 87.3566 218.241 87.7092 218.416 88.1324C218.555 88.4603 218.526 88.8688 218.429 89.1938C218.409 89.2373 218.421 89.2691 218.411 89.2909C218.371 89.7212 217.93 89.9931 217.56 89.8229C217.364 89.7329 217.239 89.5439 217.169 89.3532C217.145 89.2896 217.096 89.1089 217.021 89.1006C216.803 89.0005 216.504 89.0211 216.303 89.1135C216.102 89.2059 215.86 89.3319 215.813 89.5479C215.768 89.8175 215.831 90.0835 215.893 90.3496C216.045 91.0525 216.26 91.7318 216.327 92.4482C216.381 93.1328 216.255 93.8662 215.91 94.446Z" fill="#464646"/>
</g>
<g filter="url(#filter1_d_1195_5561)">
<path d="M82.933 55.8048C82.7257 56.0261 82.3726 56.0484 82.0894 55.9183C81.8499 55.8082 81.6703 55.5674 81.6716 55.2778C81.6663 55.1171 81.8141 54.3937 81.8524 54.253C82.0302 53.4643 82.4023 52.712 82.7762 52.0133C82.9381 51.7184 83.11 51.4018 83.3943 51.2423C83.6268 51.1381 83.8629 51.1411 84.0589 51.2311C84.2984 51.3412 84.478 51.582 84.4885 51.9034C84.4956 52.1177 84.2477 53.0589 84.1794 53.2649C83.8979 54.1643 83.5311 55.0773 82.933 55.8048ZM78.7425 66.9892C77.6022 68.8392 75.5087 71.3854 73.0259 70.2444C72.2201 69.8741 71.5191 69.1035 71.2984 68.2635C71.2496 68.0828 71.3897 67.7778 71.5251 67.6554C71.7341 67.4877 72.0437 67.4453 72.2733 67.5772C72.5246 67.7191 72.6624 67.9934 72.8819 68.1471C73.2439 68.3926 73.7095 68.5274 74.138 68.5133C74.5012 68.4692 74.8491 68.2862 75.1535 68.0831C75.5397 67.7594 75.8805 67.3621 76.156 66.9348C76.7707 66.0566 77.2311 65.0548 77.6597 64.0647C78.2167 62.738 78.6648 61.3612 79.2435 60.0444C79.4537 59.5871 80.0443 58.3021 80.5211 58.1256C80.7754 58.0314 81.0432 58.0226 81.2828 58.1327C81.5877 58.2728 81.8243 58.619 81.763 59.0393C81.6935 59.5349 81.5922 60.0423 81.4256 60.5197C80.7043 62.7205 79.9748 64.9967 78.7425 66.9892ZM87.097 66.2388C86.3624 66.4024 85.45 66.3787 84.7313 66.0484C83.4681 65.4679 83.2464 63.9416 83.6462 62.7272C84.0059 61.6 84.8748 60.6277 85.885 60.0368C86.6326 59.6154 87.787 59.1699 88.6364 59.5602C89.2897 59.8605 89.6576 60.6099 89.2602 61.245C89.9271 61.6306 90.4909 62.47 90.3666 63.2571C90.1946 64.5497 88.3956 65.9387 87.097 66.2388ZM85.4101 64.5139C85.479 64.6511 85.7821 64.7376 85.9228 64.7759C86.3649 64.8472 86.8252 64.8213 87.2385 64.6683C87.8206 64.4347 88.9226 63.7013 89.074 63.085C89.1305 62.8472 88.6308 62.3274 88.4631 62.1184C88.406 62.0131 88.3689 61.8641 88.3972 61.7452C88.2665 61.6852 88.1558 61.5816 88.077 61.4662C86.8084 61.7009 85.3573 62.9069 85.346 64.1943C85.3495 64.3014 85.3748 64.4186 85.4101 64.5139ZM96.5824 61.5502C96.3604 61.9757 95.8401 62.1322 95.4263 61.9421C95.3392 61.902 95.2621 61.8402 95.1849 61.7784C94.9201 61.5512 94.8524 61.1244 94.8837 60.7695C94.8884 60.587 94.9785 60.391 95.0368 60.2067C95.1916 59.6976 95.8975 58.3337 96.339 58.0618C96.5698 57.9041 96.8376 57.8953 97.0554 57.9954C97.2079 58.0655 97.3521 58.2109 97.4227 58.4016C97.7134 59.0891 96.8927 60.875 96.5824 61.5502ZM92.4081 70.2887C92.2026 70.5636 91.8194 70.6513 91.4927 70.5011C90.7958 70.1809 90.6182 69.0177 90.8431 68.3561C91.1628 67.316 91.6568 66.3559 92.1407 65.4177C92.3945 64.9804 92.6482 64.543 92.9137 64.1375C93.2629 63.6648 93.7791 63.058 94.4543 63.3683C95.173 63.6986 94.9851 64.5091 94.7149 65.0971C94.0996 66.6081 93.3101 68.039 92.7284 69.5918C92.6783 69.7007 92.4799 70.1898 92.4081 70.2887ZM98.6292 71.5123C98.0223 71.972 97.4354 72.3881 96.6949 72.0478C95.2357 71.3772 95.9823 69.2935 96.3856 68.1863C96.6941 67.4576 97.6167 65.5075 98.3361 65.205C98.6322 65.0773 98.9336 65.1103 99.1949 65.2304C99.674 65.4506 99.9913 65.9657 99.7846 66.5302C99.638 66.964 99.3925 67.326 99.1906 67.708C98.9185 68.2424 98.6465 68.7769 98.4399 69.3414C98.8996 68.9724 99.3594 68.6033 99.841 68.2443C100.47 67.7946 101.108 67.3232 101.818 67.0425C102.241 66.8677 102.71 66.7665 103.142 66.8595C103.271 66.866 103.379 66.9161 103.488 66.9661C104.272 67.3264 104.61 68.1411 104.627 68.9664C104.625 69.8888 104.258 70.8018 103.933 71.6812C103.726 72.2457 103.541 72.8202 103.269 73.3546C103.069 73.7902 102.558 74.2146 102.057 73.9844C101.381 73.6741 101.373 72.7735 101.459 72.1271C101.562 71.3301 101.88 70.5796 102.155 69.8091C102.262 69.4624 102.379 69.0939 102.388 68.729C102.207 68.7778 102.06 68.8685 101.913 68.9591C100.736 69.6842 99.7377 70.6501 98.6292 71.5123ZM112.628 84.0393C112.413 84.336 112.107 84.4855 111.736 84.3153C111.235 84.0851 111.218 83.5494 111.202 83.0673C111.138 80.7958 112.187 78.4554 113.128 76.4082C112.912 76.3617 112.706 76.2934 112.5 76.2251C112.262 76.1686 111.781 75.8948 111.709 75.6505C111.509 75.1101 112.04 74.6422 112.563 74.8824L112.585 74.8924C112.628 74.9124 112.704 74.9207 112.757 74.9189C113.092 74.9937 113.427 75.0685 113.772 75.1215C114.932 72.8848 116.092 70.6481 117.536 68.595C117.822 68.1459 118.233 67.5961 118.821 67.8664C119.605 68.2267 119.3 69.0626 119.04 69.6288C118.351 71.1851 117.541 72.6596 116.797 74.1641C116.545 74.655 116.283 75.1677 116.031 75.6586C116.378 75.7651 116.726 75.9253 117.043 76.0972C117.72 76.461 117.338 77.5783 116.583 77.4422C116.248 77.3674 115.913 77.2926 115.577 77.1643C115.511 77.1342 115.414 77.116 115.327 77.0759C114.303 79.1903 113.344 81.3346 112.763 83.5737C112.723 83.6608 112.68 83.984 112.628 84.0393ZM120.025 85.9878C119.628 86.3332 119.152 86.5098 118.651 86.2796C116.821 85.4388 118.767 80.6881 119.272 79.4167C120.345 76.7967 121.787 74.3469 123.405 72.0308C123.805 71.4492 124.51 70.7182 125.272 71.0685C125.838 71.3288 125.821 72.1122 125.623 72.6014C125.524 72.8727 125.382 73.1241 125.241 73.3754C124.539 74.5568 123.806 75.7499 123.117 76.963C121.994 79.0055 121.003 81.1616 120.272 83.3842C121.531 81.9057 122.803 80.4589 124.241 79.1676C124.979 78.4783 126.12 77.6043 127.193 77.6227C127.397 77.6374 127.603 77.7057 127.777 77.7858C128.539 78.1361 129.008 79.0108 128.963 79.9132C128.905 80.7838 128.559 81.6532 128.188 82.459C127.86 83.2313 126.757 85.5734 126.041 85.983C125.757 86.1425 125.414 86.1431 125.109 86.003C124.216 85.5926 124.537 84.6061 124.858 83.9091C125.452 82.7313 126.121 81.5617 126.584 80.3239C126.643 80.1396 126.806 79.5551 126.735 79.3644C125.773 79.4497 123.993 81.4279 123.341 82.1572C122.66 82.9518 121.99 83.7782 121.308 84.5728C120.905 85.0472 120.504 85.5752 120.025 85.9878ZM134.074 88.5402C133.429 88.5078 132.804 88.4318 132.238 88.1716C130.648 87.4409 129.773 85.6143 130.306 83.8808C130.507 83.1556 130.957 82.4651 131.463 81.8801C132.412 80.7335 134.189 79.9673 135.626 80.6278C135.909 80.758 136.162 80.9534 136.352 81.1724C136.618 81.4532 136.813 81.8329 136.857 82.1961C136.93 82.7836 136.705 83.4452 136.334 83.9078C135.385 85.0544 133.417 85.2049 132.178 84.3984C131.708 85.422 132.147 86.7052 133.231 87.045C133.577 87.1516 133.912 87.2264 134.259 87.3329C135.004 87.4908 134.859 88.6109 134.074 88.5402ZM132.83 83.3259C133.475 83.7015 134.472 83.7116 135.091 83.2837C135.521 82.98 135.692 82.3202 135.213 82.1C135.039 82.0199 134.569 82.0676 134.388 82.1164C133.772 82.3082 133.252 82.8079 132.83 83.3259ZM144.549 93.6182C144.21 94.0691 143.718 94.4499 143.13 94.1797C142.346 93.8193 142.412 92.8734 142.625 92.18C143.033 90.8903 143.548 89.5971 144.075 88.3357C144.363 87.6506 144.696 86.9854 145.105 86.3821C145.268 86.1408 145.507 85.9077 145.807 85.8871C145.924 85.8618 146.043 85.8901 146.13 85.9301C146.348 86.0302 146.506 86.261 146.536 86.5388C146.584 87.0092 146.101 88.6338 145.954 89.0676C146.717 88.4419 147.803 87.5697 148.827 88.0401C149.415 88.3103 149.821 88.919 149.938 89.5265C150.022 90.1458 149.267 90.6425 148.802 90.218C148.648 90.0944 148.39 89.7383 148.187 89.7771C147.869 89.8948 147.575 90.0761 147.292 90.2891C146.152 91.1632 145.357 92.4334 144.549 93.6182ZM151.894 96.9938C151.626 97.0026 151.355 96.9042 151.103 96.7624C150.203 96.1377 150.017 95.0499 150.349 94.0416C150.609 93.1321 151.215 92.3293 151.835 91.6118C152.68 90.5759 154.289 89.2575 155.726 89.9181C156.488 90.2684 156.7 90.8406 156.824 91.6623C156.905 91.5416 156.997 91.3992 157.113 91.3203C157.395 91.1073 157.748 91.0849 158.01 91.205C158.315 91.3452 158.518 91.6495 158.508 92.0145C158.507 92.3041 158.345 92.599 158.193 92.8721C157.442 94.1623 156.8 95.5026 156.223 96.8729C156.113 97.1125 156.014 97.3838 155.882 97.6134L155.792 97.8094C155.755 98.2933 155.25 98.5887 154.857 98.4085C154.814 98.3885 154.749 98.3585 154.715 98.3167C153.986 97.665 154.135 96.652 154.408 95.8279C153.988 96.1098 153.569 96.3917 153.137 96.6419C152.757 96.8367 152.334 97.0115 151.894 96.9938ZM154.601 91.907C153.91 92.4337 152.477 94.1754 152.366 95.0478C153.755 94.5517 154.945 93.5687 156.006 92.5793C155.876 92.5193 155.765 92.4157 155.696 92.2785C155.639 92.1731 155.54 91.7581 155.441 91.6863C155.221 91.5327 154.81 91.7392 154.601 91.907ZM157.895 108.984C157.676 109.174 157.408 109.182 157.19 109.082C157.037 109.012 156.893 108.867 156.834 108.708C156.719 108.444 156.849 108.16 156.85 107.871C156.866 107.72 156.893 107.548 156.941 107.385C157.747 104.484 158.693 101.622 159.91 98.8579L159.227 98.6229C159.075 98.5529 158.89 98.4946 158.758 98.381C158.173 97.8747 158.839 96.9412 159.486 97.3703L159.617 97.4304L160.461 97.66C161.644 95.1437 163.096 92.6721 165.025 90.6568C165.605 90.0264 166.377 89.379 167.27 89.7894C168.25 90.2398 168.275 91.3329 168.198 92.247C168.17 92.7091 167.975 93.3054 167.515 93.3312C167.408 93.3348 167.311 93.3165 167.224 93.2765C167.006 93.1764 166.86 92.9774 166.841 92.7314C166.824 92.5389 166.948 92.3847 166.974 92.2122C166.985 91.9008 167.036 91.1591 166.805 90.9737C166.475 91.0596 165.881 91.8942 165.697 92.1791C164.396 94.0344 163.358 96.0633 162.45 98.1523C162.548 98.1706 162.635 98.2106 162.732 98.2289C163.435 98.4203 164.117 98.6016 164.82 98.793C165.545 98.9944 165.515 100.036 164.767 100.114C164.596 100.141 163.831 100.027 163.669 99.9784C163.064 99.8589 162.458 99.6857 161.873 99.5226C161.178 101.208 160.548 102.923 159.896 104.628C159.433 105.866 159.013 107.124 158.354 108.272C158.212 108.523 158.125 108.826 157.895 108.984ZM166.305 112.849C166.086 113.039 165.818 113.048 165.6 112.948C165.448 112.877 165.304 112.732 165.245 112.573C165.129 112.309 165.259 112.026 165.26 111.736C165.277 111.585 165.303 111.413 165.351 111.25C166.157 108.35 167.103 105.487 168.321 102.723L167.637 102.488C167.485 102.418 167.301 102.36 167.168 102.246C166.583 101.74 167.25 100.806 167.897 101.236L168.027 101.296L168.871 101.525C170.054 99.0089 171.507 96.5373 173.435 94.522C174.015 93.8916 174.787 93.2442 175.68 93.6546C176.66 94.105 176.686 95.1981 176.608 96.1122C176.581 96.5743 176.386 97.1706 175.925 97.1964C175.818 97.2 175.721 97.1817 175.634 97.1417C175.416 97.0416 175.27 96.8426 175.251 96.5965C175.234 96.4041 175.358 96.2498 175.385 96.0774C175.396 95.766 175.446 95.0243 175.215 94.8389C174.885 94.9248 174.291 95.7594 174.107 96.0443C172.806 97.8996 171.768 99.9285 170.861 102.018C170.958 102.036 171.045 102.076 171.142 102.094C171.846 102.285 172.527 102.467 173.231 102.658C173.956 102.86 173.926 103.901 173.178 103.979C173.007 104.006 172.242 103.892 172.079 103.844C171.475 103.724 170.868 103.551 170.284 103.388C169.589 105.073 168.959 106.788 168.307 108.494C167.843 109.731 167.424 110.989 166.764 112.137C166.622 112.388 166.536 112.692 166.305 112.849ZM175.386 113.303C175.382 113.829 174.821 114.073 174.386 113.872C172.861 113.172 174.992 107.847 175.481 106.726C176.318 104.789 177.242 102.893 178.254 101.036C179.042 99.5518 180.541 96.8642 181.9 95.8007C182.099 95.6547 182.345 95.6359 182.541 95.726C182.693 95.7961 182.816 95.9315 182.865 96.1122C183.021 96.6326 182.739 97.1888 182.519 97.6679C182.299 98.1471 182.067 98.5944 181.825 99.0635C180.722 101.062 179.674 103.113 178.669 105.184C177.505 107.603 176.342 110.076 175.557 112.643C175.501 112.881 175.379 113.089 175.386 113.303ZM185.013 111.951C184.368 111.918 183.744 111.842 183.178 111.582C181.588 110.851 180.713 109.025 181.245 107.291C181.447 106.566 181.896 105.876 182.402 105.291C183.351 104.144 185.128 103.378 186.565 104.038C186.848 104.168 187.102 104.364 187.291 104.583C187.558 104.864 187.753 105.243 187.797 105.607C187.87 106.194 187.645 106.856 187.274 107.318C186.325 108.465 184.356 108.615 183.118 107.809C182.647 108.832 183.086 110.116 184.17 110.455C184.517 110.562 184.852 110.637 185.198 110.743C185.944 110.901 185.798 112.021 185.013 111.951ZM183.769 106.736C184.414 107.112 185.412 107.122 186.031 106.694C186.46 106.391 186.632 105.731 186.153 105.51C185.978 105.43 185.508 105.478 185.327 105.527C184.712 105.719 184.192 106.218 183.769 106.736ZM193.183 125.202C192.964 125.391 192.696 125.4 192.478 125.3C192.326 125.23 192.182 125.085 192.123 124.926C192.007 124.661 192.137 124.378 192.138 124.089C192.155 123.938 192.181 123.765 192.23 123.603C193.035 120.702 193.981 117.84 195.199 115.076L194.516 114.841C194.363 114.771 194.179 114.712 194.046 114.599C193.461 114.092 194.128 113.159 194.775 113.588L194.905 113.648L195.749 113.878C196.932 111.361 198.385 108.89 200.313 106.874C200.893 106.244 201.665 105.597 202.558 106.007C203.538 106.457 203.564 107.551 203.486 108.465C203.459 108.927 203.264 109.523 202.804 109.549C202.696 109.552 202.599 109.534 202.512 109.494C202.294 109.394 202.148 109.195 202.13 108.949C202.113 108.757 202.236 108.602 202.263 108.43C202.274 108.118 202.325 107.377 202.093 107.191C201.764 107.277 201.169 108.112 200.985 108.397C199.684 110.252 198.646 112.281 197.739 114.37C197.836 114.388 197.923 114.428 198.02 114.447C198.724 114.638 199.405 114.819 200.109 115.011C200.834 115.212 200.804 116.253 200.056 116.332C199.885 116.359 199.12 116.244 198.957 116.196C198.353 116.077 197.746 115.903 197.162 115.74C196.467 117.426 195.837 119.141 195.185 120.846C194.721 122.084 194.302 123.342 193.642 124.49C193.5 124.741 193.414 125.044 193.183 125.202ZM205.238 121.826C204.596 122.19 203.826 122.258 203.15 121.948C201.778 121.318 201.697 119.829 202.074 118.552C202.345 117.674 202.779 116.845 203.246 116.057C203.51 115.598 203.786 115.171 204.126 114.773C204.396 114.475 204.837 114.203 205.251 114.393C205.708 114.603 205.766 115.052 205.663 115.506C205.56 115.959 205.348 116.363 205.158 116.777C204.857 117.43 203.881 119.382 204.033 120.085C204.057 120.149 204.082 120.266 204.157 120.274C204.514 120.359 205.256 119.777 205.549 119.542C205.8 119.341 208.292 116.846 208.392 116.628C208.694 116.028 209.309 115.836 209.789 116.056C210.028 116.166 210.218 116.385 210.304 116.715C210.428 117.247 209.662 118.742 209.454 119.253C209.145 119.981 208.924 120.75 208.713 121.497C208.566 121.931 208.473 122.363 208.326 122.797C208.298 122.916 208.335 123.065 208.263 123.164C208.01 123.601 207.499 123.736 207.085 123.545C206.105 123.095 206.503 121.484 206.734 120.693C206.266 121.138 205.786 121.55 205.238 121.826ZM213.916 124.495C213.31 124.955 212.723 125.371 211.982 125.031C210.523 124.36 211.27 122.277 211.673 121.169C211.981 120.441 212.904 118.491 213.623 118.188C213.919 118.06 214.221 118.093 214.482 118.213C214.961 118.434 215.279 118.949 215.072 119.513C214.925 119.947 214.68 120.309 214.478 120.691C214.206 121.226 213.934 121.76 213.727 122.324C214.187 121.955 214.647 121.586 215.128 121.227C215.757 120.778 216.396 120.306 217.105 120.026C217.528 119.851 217.997 119.75 218.429 119.843C218.558 119.849 218.667 119.899 218.776 119.949C219.56 120.31 219.897 121.124 219.914 121.95C219.912 122.872 219.545 123.785 219.22 124.664C219.013 125.229 218.829 125.803 218.557 126.338C218.356 126.773 217.845 127.198 217.344 126.967C216.669 126.657 216.661 125.757 216.747 125.11C216.849 124.313 217.168 123.563 217.443 122.792C217.549 122.446 217.666 122.077 217.675 121.712C217.495 121.761 217.347 121.852 217.2 121.942C216.023 122.667 215.025 123.633 213.916 124.495Z" fill="#464646"/>
</g>
<g filter="url(#filter2_d_1195_5561)">
<path d="M66.3878 94.3761C66.3601 94.8382 65.865 95.1119 65.473 94.9317C65.1899 94.8016 64.8909 94.1894 64.8386 93.9015C64.5861 93.0733 64.7587 92.1238 65.0319 91.2997C65.4535 90.0954 66.071 88.9812 66.744 87.9187C67.4669 86.7474 68.2988 85.6261 69.1524 84.5149C68.2394 85.124 67.3363 85.7114 66.378 86.247C65.7675 86.5995 65.1253 86.9638 64.4107 87.0838C63.9739 87.1733 63.5 87.1138 63.118 86.9118C62.7913 86.7617 62.5247 86.4809 62.3535 86.1648C61.2305 84.3034 63.3788 80.4898 64.541 78.6498C64.8883 78.1236 65.2357 77.5974 65.6819 77.143C65.9827 76.8328 66.4595 76.6562 66.8733 76.8464C67.3307 77.0566 67.5325 77.6505 67.3359 78.1933C67.171 78.7242 66.8872 79.2269 66.5817 79.7195C66.166 80.4518 65.7186 81.1958 65.3029 81.928C64.7672 82.9216 64.1661 83.8851 63.8799 84.967C63.8334 85.183 63.8086 85.4091 63.8793 85.5998C63.9481 85.737 64.1942 85.7182 64.3331 85.7029C64.6427 85.6605 64.9388 85.5328 65.2249 85.4269C67.6202 84.2328 69.7989 82.6489 71.9123 81.0351C71.9859 80.9897 72.3268 80.5924 72.3886 80.5153C72.5858 80.3158 72.793 80.0945 73.0355 79.9686C73.2463 79.8544 73.5041 79.8674 73.7001 79.9574C73.9832 80.0875 74.1863 80.3919 74.1451 80.7686C74.1303 80.9729 73.7447 81.6398 73.6646 81.814C72.2175 84.4463 70.1906 86.733 68.5257 89.2651C68.0146 90.0327 67.569 90.8302 67.0915 91.6396C66.7159 92.2847 66.342 92.9834 66.2813 93.7468C66.2666 93.9511 66.4025 94.1719 66.3878 94.3761ZM75.4878 93.7573C74.7532 93.9209 73.8408 93.8973 73.1221 93.567C71.8589 92.9864 71.6371 91.4601 72.0369 90.2457C72.3967 89.1185 73.2656 88.1462 74.2758 87.5553C75.0234 87.1339 76.1778 86.6884 77.0272 87.0787C77.6805 87.379 78.0484 88.1284 77.651 88.7635C78.3179 89.1491 78.8817 89.9886 78.7574 90.7756C78.5854 92.0682 76.7864 93.4572 75.4878 93.7573ZM73.8009 92.0324C73.8698 92.1696 74.1729 92.2562 74.3136 92.2944C74.7557 92.3657 75.216 92.3399 75.6292 92.1868C76.2114 91.9532 77.3134 91.2199 77.4648 90.6036C77.5213 90.3658 77.0216 89.8459 76.8539 89.637C76.7968 89.5316 76.7597 89.3827 76.788 89.2638C76.6573 89.2037 76.5466 89.1001 76.4678 88.9847C75.1992 89.2195 73.7481 90.4254 73.7368 91.7128C73.7403 91.8199 73.7656 91.9371 73.8009 92.0324ZM82.5524 98.2966C81.9102 98.6609 81.1402 98.7291 80.4651 98.4188C79.093 97.7883 79.0119 96.3002 79.3882 95.0223C79.6596 94.1446 80.0935 93.3153 80.561 92.5277C80.8248 92.0686 81.1003 91.6413 81.4411 91.244C81.7102 90.9455 82.1517 90.6736 82.5655 90.8638C83.0228 91.074 83.0805 91.5225 82.9774 91.9764C82.8744 92.4302 82.6624 92.834 82.4722 93.2478C82.172 93.9012 81.1958 95.853 81.3476 96.5559C81.3712 96.6194 81.3965 96.7366 81.4718 96.7448C81.8285 96.8296 82.5709 96.2475 82.8634 96.0127C83.1142 95.8114 85.6062 93.3164 85.7063 93.0986C86.0083 92.4988 86.624 92.307 87.1032 92.5272C87.3427 92.6373 87.5323 92.8562 87.6182 93.1859C87.7429 93.718 86.9769 95.2125 86.7685 95.7234C86.46 96.4522 86.2386 97.2209 86.0272 97.9679C85.8806 98.4017 85.7875 98.8337 85.6409 99.2676C85.6127 99.3865 85.6497 99.5354 85.5779 99.6343C85.3242 100.072 84.8138 100.206 84.4 100.016C83.42 99.5658 83.8174 97.9547 84.0488 97.1642C83.5808 97.6086 83.1011 98.0212 82.5524 98.2966ZM96.7733 107.285C96.1381 107.864 95.2286 108.58 94.3357 108.17C94.1832 108.1 94.0508 107.986 93.9184 107.873C93.0396 106.915 93.5036 105.044 93.7998 103.94C94.3192 102.122 95.2288 100.429 96.2055 98.8206C97.2523 97.0595 98.4079 95.3485 99.6089 93.711C99.7526 93.5132 99.8962 93.3154 100.062 93.1277C100.393 92.7521 100.873 92.6827 101.265 92.8629C101.526 92.983 101.759 93.222 101.835 93.5734C101.915 94.032 101.716 94.5211 101.472 94.9367C101.23 95.4058 100.923 95.8449 100.638 96.294C99.5956 97.8727 98.5217 99.4631 97.5568 101.104C96.9274 102.186 96.2663 103.28 95.7794 104.455C95.4809 105.161 95.2159 105.91 95.2306 106.682C95.6203 106.465 95.9864 106.185 96.3408 105.873C97.7819 104.689 99.1324 103.358 100.418 101.996C102.201 100.125 103.96 98.1904 106.065 96.6519C106.422 96.3935 106.756 96.1251 107.179 95.9503C107.179 95.9503 107.211 95.9385 107.221 95.9167C107.505 95.7573 107.827 95.7467 108.11 95.8768C108.698 96.147 108.784 96.8199 108.707 97.3908C108.551 98.1896 108.178 98.9419 107.826 99.6506C107.072 101.177 106.263 102.651 105.465 104.158C104.749 105.543 103.98 106.931 103.525 108.436C103.448 108.718 103.312 109.473 103.45 109.747C103.803 110.358 103.147 110.98 102.581 110.719C102.516 110.689 102.417 110.618 102.35 110.534C101.06 109.15 101.357 107.414 102.034 105.825C103.2 103.117 104.898 100.626 106.369 98.0576C103.856 99.9098 101.856 102.367 99.655 104.574C98.7207 105.516 97.7747 106.427 96.7733 107.285ZM115.567 115.606C113.536 115.833 111.583 115.78 109.71 114.919C107.837 114.058 106.348 112.477 107.176 110.272C107.651 109.066 108.624 107.983 109.783 107.355C110.616 106.921 111.516 106.569 112.431 106.357C111.233 105.806 109.735 104.59 110.318 103.091C110.655 102.243 111.438 101.574 112.251 101.183C114.447 100.134 117.362 99.7597 119.667 100.714C120.103 100.914 120.55 101.146 120.852 101.522C120.965 101.679 121.067 101.858 121.17 102.037C121.542 102.604 120.94 103.224 120.351 102.9C120.111 102.79 120.035 102.439 119.806 102.307C119.378 102.031 118.857 101.845 118.34 101.765C116.605 101.522 114.191 102.127 112.855 103.254C112.698 103.366 112.552 103.511 112.472 103.685C112.863 104.155 113.481 104.36 114.046 104.566C114.838 104.851 115.648 105.039 116.439 105.271C116.667 105.349 116.904 105.405 117.132 105.484C117.437 105.624 117.826 105.697 118.049 105.958C118.57 106.487 118.449 107.382 117.774 107.704C117.414 107.855 116.984 107.816 116.587 107.818C114.764 107.824 112.553 108.101 110.966 109.086C110.156 109.585 108.811 110.734 108.96 111.672C109.078 112.334 109.879 112.886 110.707 113.267C112.035 113.877 114.085 114.239 115.514 114.342C115.612 114.36 115.687 114.368 115.774 114.409C116.297 114.649 116.261 115.529 115.567 115.606ZM130.532 112.46C128.999 114.762 123.6 121.804 120.769 120.502C118.417 119.422 120.292 113.504 120.91 111.757C121.755 109.402 122.881 107.123 124.271 105.019C124.555 104.516 124.979 104.052 125.611 104.342C125.828 104.442 126.028 104.639 126.09 104.905C126.237 105.447 125.967 106.035 125.758 106.546C125.239 107.732 124.624 108.9 124.061 110.066C122.93 112.527 121.486 115.899 121.481 118.667C121.462 118.764 121.493 119.042 121.538 119.115C121.584 119.189 121.669 119.175 121.754 119.162C123.232 119.102 125.968 116.192 126.857 115.176C128.76 113.043 130.472 110.638 131.554 107.997C131.603 107.834 131.597 107.673 131.689 107.531C131.895 107.256 132.224 107.17 132.486 107.29C133.03 107.541 132.785 108.246 132.627 108.648C132.092 109.985 131.35 111.253 130.532 112.46ZM138.81 126.288C136.78 126.516 134.827 126.462 132.954 125.601C131.081 124.74 129.591 123.159 130.42 120.955C130.895 119.749 131.868 118.666 133.027 118.038C133.86 117.603 134.76 117.251 135.675 117.039C134.477 116.489 132.979 115.272 133.562 113.773C133.899 112.925 134.681 112.256 135.494 111.865C137.691 110.817 140.606 110.442 142.911 111.396C143.347 111.596 143.794 111.828 144.096 112.204C144.208 112.361 144.311 112.54 144.413 112.719C144.786 113.286 144.184 113.906 143.594 113.583C143.355 113.473 143.279 113.121 143.049 112.989C142.622 112.714 142.101 112.527 141.584 112.448C139.849 112.204 137.434 112.809 136.099 113.936C135.941 114.049 135.796 114.193 135.716 114.367C136.107 114.837 136.725 115.042 137.289 115.249C138.082 115.533 138.892 115.721 139.683 115.953C139.91 116.031 140.148 116.088 140.376 116.166C140.681 116.306 141.069 116.379 141.293 116.64C141.814 117.17 141.693 118.064 141.017 118.386C140.658 118.538 140.227 118.498 139.831 118.5C138.008 118.507 135.797 118.783 134.21 119.768C133.4 120.267 132.055 121.416 132.203 122.355C132.322 123.016 133.123 123.569 133.95 123.949C135.279 124.559 137.328 124.921 138.758 125.024C138.855 125.042 138.931 125.051 139.018 125.091C139.54 125.331 139.505 126.212 138.81 126.288ZM143.055 129.874C142.861 129.838 142.705 129.66 142.592 129.503C142.399 129.177 142.439 128.747 142.458 128.36C142.466 128.285 142.443 128.221 142.451 128.146C142.509 127.618 142.664 127.109 142.818 126.6C143.718 123.61 145.061 120.746 146.492 117.974C147.008 117.024 147.534 116.053 148.192 115.194C148.533 114.797 149.068 114.436 149.613 114.687C150.005 114.867 150.225 115.364 150.133 115.849C150.016 116.507 149.606 117.111 149.294 117.732C148.326 119.609 147.414 121.537 146.424 123.403C147.739 121.634 149.293 119.974 151.117 118.702C152.406 117.791 153.893 117.023 155.462 117.744C156.354 118.154 156.897 118.984 156.833 119.983C156.804 120.735 156.475 121.507 156.013 122.112C155.251 123.081 154.159 123.793 153.052 124.365C151.976 124.926 150.845 125.435 149.724 125.923C149.132 126.178 148.518 126.423 147.961 126.774C148.688 128.005 150.304 130.172 151.654 130.793C152.177 131.033 152.201 131.783 151.641 132.026C151.44 132.119 151.181 132.052 150.965 132.006C150.315 131.813 149.702 131.425 149.184 131.002C148.27 130.293 146.325 128.211 145.943 127.034C145.871 126.789 145.84 126.511 145.896 126.274C145.265 127.303 144.7 128.361 144.035 129.349C143.913 129.556 143.748 129.744 143.515 129.848C143.388 129.895 143.195 129.912 143.055 129.874ZM152.235 119.427C149.87 120.899 147.982 123.17 146.418 125.484L146.889 125.147C148.583 124.158 150.437 123.454 152.188 122.57C153.18 122.077 154.256 121.516 154.902 120.626C155.138 120.286 155.338 119.85 155.26 119.445C155.198 119.179 154.998 118.982 154.759 118.872C153.887 118.471 152.971 118.973 152.235 119.427ZM159.462 144.484C159.137 145.02 158.575 145.554 157.922 145.253C156.811 144.743 157.333 142.688 157.583 141.8C158.257 139.129 159.44 136.613 160.787 134.198C161.708 132.538 162.673 130.897 163.681 129.277C164.061 128.739 164.607 128.067 165.347 128.407C166.11 128.757 165.905 129.719 165.615 130.35C164.33 133.031 162.664 135.509 161.401 138.2C162.558 136.542 167.771 129.389 170.341 130.57C171.561 131.131 171.609 132.92 171.388 134.032C171.254 134.841 171.012 135.653 170.595 136.332C169.586 137.952 167.06 139.086 165.296 138.276C165.1 138.186 164.914 138.074 164.738 137.94C164.551 137.775 164.192 137.293 164.173 137.047C162.866 138.742 161.714 140.56 160.659 142.396C160.254 143.107 159.88 143.805 159.462 144.484ZM168.834 132.357C167.486 133.109 165.676 135.153 164.729 136.353C164.9 136.326 165.096 136.416 165.28 136.474C165.639 136.613 166.067 136.599 166.474 136.575C167.448 136.521 168.544 135.917 168.997 135.044C169.421 134.236 169.626 133.275 169.51 132.378C169.507 132.271 169.493 132.185 169.458 132.09C169.234 132.119 169.023 132.233 168.834 132.357ZM174.323 140.156C174.056 140.164 173.784 140.066 173.533 139.924C172.633 139.3 172.447 138.212 172.778 137.203C173.038 136.294 173.644 135.491 174.264 134.774C175.11 133.738 176.718 132.419 178.155 133.08C178.918 133.43 179.13 134.002 179.253 134.824C179.335 134.704 179.427 134.561 179.542 134.482C179.825 134.269 180.178 134.247 180.439 134.367C180.744 134.507 180.947 134.811 180.938 135.176C180.937 135.466 180.775 135.761 180.623 136.034C179.872 137.324 179.229 138.664 178.652 140.035C178.542 140.274 178.444 140.546 178.312 140.775L178.222 140.971C178.184 141.455 177.679 141.751 177.287 141.57C177.243 141.55 177.178 141.52 177.145 141.479C176.415 140.827 176.564 139.814 176.838 138.99C176.418 139.272 175.998 139.554 175.567 139.804C175.187 139.999 174.764 140.173 174.323 140.156ZM177.03 135.069C176.34 135.596 174.906 137.337 174.796 138.21C176.184 137.714 177.375 136.731 178.436 135.741C178.305 135.681 178.195 135.578 178.126 135.44C178.069 135.335 177.969 134.92 177.87 134.848C177.651 134.695 177.239 134.901 177.03 135.069ZM184.927 151.544C184.011 152.733 182.73 153.568 181.228 152.878C180.335 152.467 179.525 151.647 179.312 150.731C179.287 150.614 179.305 150.517 179.355 150.408C179.462 150.061 179.843 149.92 180.19 150.027C180.364 150.107 180.686 150.44 180.797 150.543C181.03 150.782 181.283 150.978 181.576 151.086C181.75 151.166 181.966 151.213 182.159 151.195C182.842 151.087 183.561 149.809 183.841 149.199C184.57 147.556 184.941 145.774 185.626 144.11C185.091 144.471 184.534 144.822 183.932 145.099C183.383 145.375 182.818 145.457 182.251 145.197C182.099 145.127 181.956 145.035 181.824 144.922C180.971 144.081 180.97 142.419 181.159 141.319C181.412 139.905 182.152 138.583 183.059 137.47C183.4 137.073 184.179 136.297 184.789 136.577C185.159 136.747 185.307 137.343 185.141 137.82C184.906 138.503 184.496 139.107 184.153 139.74C183.761 140.536 183.434 141.362 183.323 142.234C183.282 142.611 183.23 143.009 183.286 143.404C184.593 143.029 186.41 141.543 187.367 140.61C187.47 140.5 187.856 139.833 187.938 139.712C188.285 139.186 188.718 138.646 189.436 138.977C189.915 139.197 190.204 139.831 189.881 140.421C189.577 140.967 189.328 141.565 189.068 142.131C188.486 143.341 187.915 144.582 187.486 145.862C186.799 147.815 186.191 149.883 184.927 151.544ZM200.046 150.553C199.559 151.384 198.555 151.846 197.64 151.425C197.096 151.175 196.117 150.435 195.982 149.925C195.859 149.446 196.295 149.014 196.771 149.127C196.987 149.173 197.133 149.372 197.319 149.484C197.493 149.564 197.962 149.806 198.143 149.757C198.25 149.754 198.288 149.613 198.307 149.516C198.373 149.256 198.343 148.978 198.28 148.712C198.131 147.774 197.748 146.885 197.738 145.931C197.719 145.342 197.87 144.726 198.22 144.253C198.938 143.264 200.455 142.774 201.588 143.295C202.012 143.463 202.377 143.816 202.552 144.239C202.691 144.567 202.662 144.976 202.565 145.3C202.545 145.344 202.557 145.376 202.547 145.398C202.508 145.828 202.066 146.1 201.696 145.93C201.5 145.84 201.376 145.651 201.305 145.46C201.282 145.396 201.233 145.216 201.157 145.207C200.94 145.107 200.64 145.128 200.439 145.22C200.238 145.313 199.996 145.439 199.949 145.655C199.905 145.924 199.967 146.19 200.029 146.456C200.181 147.159 200.397 147.838 200.463 148.555C200.518 149.239 200.392 149.973 200.046 150.553ZM203.931 157.403C203.535 157.748 203.058 157.925 202.557 157.695C200.727 156.854 202.673 152.103 203.179 150.832C204.251 148.212 205.693 145.762 207.312 143.446C207.711 142.864 208.416 142.133 209.178 142.483C209.744 142.744 209.727 143.527 209.529 144.016C209.431 144.288 209.289 144.539 209.147 144.79C208.446 145.972 207.713 147.165 207.023 148.378C205.9 150.42 204.909 152.577 204.178 154.799C205.438 153.321 206.709 151.874 208.147 150.583C208.886 149.893 210.026 149.019 211.099 149.038C211.303 149.052 211.509 149.121 211.683 149.201C212.446 149.551 212.914 150.426 212.869 151.328C212.812 152.199 212.465 153.068 212.094 153.874C211.766 154.646 210.663 156.988 209.947 157.398C209.663 157.557 209.32 157.558 209.015 157.418C208.122 157.008 208.443 156.021 208.764 155.324C209.358 154.146 210.027 152.977 210.491 151.739C210.549 151.555 210.712 150.97 210.641 150.779C209.679 150.865 207.899 152.843 207.248 153.572C206.566 154.367 205.896 155.193 205.214 155.988C204.811 156.462 204.411 156.99 203.931 157.403ZM219.244 150.776C219.022 151.202 218.501 151.358 218.088 151.168C218.001 151.128 217.923 151.066 217.846 151.004C217.581 150.777 217.514 150.35 217.545 149.995C217.55 149.813 217.64 149.617 217.698 149.433C217.853 148.923 218.559 147.56 219 147.288C219.231 147.13 219.499 147.121 219.717 147.221C219.869 147.291 220.013 147.437 220.084 147.627C220.375 148.315 219.554 150.101 219.244 150.776ZM215.069 159.515C214.864 159.789 214.481 159.877 214.154 159.727C213.457 159.407 213.28 158.244 213.504 157.582C213.824 156.542 214.318 155.582 214.802 154.644C215.056 154.206 215.31 153.769 215.575 153.363C215.924 152.891 216.441 152.284 217.116 152.594C217.834 152.924 217.647 153.735 217.376 154.323C216.761 155.834 215.971 157.265 215.39 158.818C215.34 158.927 215.141 159.416 215.069 159.515ZM216.655 170.768C216.329 171.304 215.767 171.838 215.114 171.537C214.003 171.027 214.526 168.972 214.775 168.084C215.449 165.413 216.632 162.897 217.979 160.482C218.9 158.822 219.865 157.181 220.874 155.561C221.253 155.023 221.799 154.351 222.54 154.691C223.302 155.041 223.098 156.003 222.807 156.634C221.523 159.315 219.856 161.793 218.593 164.484C219.75 162.827 224.964 155.673 227.533 156.854C228.753 157.415 228.801 159.204 228.58 160.316C228.446 161.125 228.205 161.937 227.787 162.616C226.779 164.236 224.253 165.37 222.489 164.56C222.293 164.47 222.107 164.358 221.931 164.224C221.743 164.059 221.384 163.577 221.365 163.331C220.059 165.026 218.907 166.844 217.852 168.68C217.446 169.391 217.072 170.09 216.655 170.768ZM226.026 158.641C224.678 159.393 222.869 161.437 221.921 162.637C222.092 162.61 222.288 162.7 222.472 162.759C222.831 162.897 223.259 162.883 223.666 162.859C224.64 162.805 225.736 162.201 226.19 161.328C226.614 160.52 226.818 159.559 226.703 158.662C226.699 158.555 226.686 158.469 226.65 158.374C226.426 158.403 226.215 158.517 226.026 158.641ZM227.979 175.972C227.653 176.509 227.092 177.042 226.438 176.742C225.328 176.231 225.85 174.176 226.1 173.289C226.773 170.617 227.956 168.101 229.303 165.687C230.224 164.026 231.189 162.386 232.198 160.765C232.577 160.227 233.123 159.555 233.864 159.895C234.626 160.246 234.422 161.207 234.131 161.839C232.847 164.519 231.18 166.998 229.917 169.688C231.075 168.031 236.288 160.878 238.858 162.059C240.077 162.619 240.125 164.409 239.904 165.521C239.77 166.329 239.529 167.142 239.111 167.82C238.103 169.441 235.577 170.575 233.813 169.764C233.617 169.674 233.431 169.562 233.255 169.428C233.067 169.263 232.708 168.781 232.689 168.535C231.383 170.23 230.231 172.048 229.176 173.885C228.77 174.595 228.396 175.294 227.979 175.972ZM237.351 163.846C236.002 164.598 234.193 166.641 233.246 167.841C233.416 167.814 233.612 167.904 233.797 167.963C234.155 168.101 234.584 168.087 234.99 168.063C235.964 168.01 237.06 167.405 237.514 166.532C237.938 165.725 238.142 164.763 238.027 163.866C238.023 163.759 238.01 163.674 237.975 163.578C237.75 163.607 237.54 163.721 237.351 163.846ZM246.687 163.388C246.465 163.814 245.944 163.97 245.531 163.78C245.444 163.74 245.366 163.678 245.289 163.616C245.024 163.389 244.957 162.962 244.988 162.607C244.993 162.425 245.083 162.229 245.141 162.045C245.296 161.536 246.002 160.172 246.443 159.9C246.674 159.742 246.942 159.733 247.16 159.833C247.312 159.903 247.456 160.049 247.527 160.24C247.818 160.927 246.997 162.713 246.687 163.388ZM242.512 172.127C242.307 172.402 241.924 172.489 241.597 172.339C240.9 172.019 240.723 170.856 240.947 170.194C241.267 169.154 241.761 168.194 242.245 167.256C242.499 166.818 242.753 166.381 243.018 165.975C243.367 165.503 243.884 164.896 244.559 165.206C245.277 165.537 245.089 166.347 244.819 166.935C244.204 168.446 243.414 169.877 242.833 171.43C242.783 171.539 242.584 172.028 242.512 172.127ZM248.734 173.35C248.127 173.81 247.54 174.226 246.799 173.886C245.34 173.215 246.087 171.131 246.49 170.024C246.799 169.296 247.721 167.345 248.44 167.043C248.737 166.915 249.038 166.948 249.299 167.068C249.778 167.289 250.096 167.804 249.889 168.368C249.742 168.802 249.497 169.164 249.295 169.546C249.023 170.08 248.751 170.615 248.544 171.179C249.004 170.81 249.464 170.441 249.945 170.082C250.574 169.633 251.213 169.161 251.922 168.88C252.345 168.706 252.814 168.604 253.246 168.697C253.375 168.704 253.484 168.754 253.593 168.804C254.377 169.164 254.715 169.979 254.731 170.804C254.729 171.727 254.362 172.64 254.037 173.519C253.831 174.084 253.646 174.658 253.374 175.193C253.173 175.628 252.662 176.053 252.161 175.822C251.486 175.512 251.478 174.611 251.564 173.965C251.666 173.168 251.985 172.418 252.26 171.647C252.366 171.3 252.483 170.932 252.492 170.567C252.312 170.616 252.164 170.706 252.017 170.797C250.84 171.522 249.842 172.488 248.734 173.35ZM258.488 186.09C257.151 187.163 254.445 188.057 252.79 187.296C251.897 186.886 251.593 186.113 251.38 185.197C251.267 184.697 251.714 184.243 252.213 184.419C252.56 184.526 252.681 184.951 252.924 185.168C253.588 185.79 255.214 185.35 256.017 184.981C257.033 184.55 257.84 183.655 258.409 182.703C259.038 181.621 259.557 180.435 260.109 179.291C259.081 179.979 257.134 181.115 255.871 180.535C255.523 180.374 255.202 180.095 255.009 179.769C254.815 179.39 254.735 178.931 254.753 178.491C254.802 177.695 255.098 176.935 255.462 176.258C256.048 175.156 256.884 174.141 257.89 173.443C259.034 172.676 260.652 171.969 262.002 172.59C262.503 172.82 262.924 173.224 263.144 173.721C263.465 173.367 263.888 173.193 264.345 173.403C264.737 173.583 264.987 174.014 264.874 174.49C264.808 174.75 264.644 174.991 264.556 175.241C264.399 175.696 264.189 176.153 263.989 176.589C263.61 177.47 263.188 178.331 262.798 179.181C262.175 180.477 261.575 181.784 260.887 183.051C260.281 184.197 259.48 185.253 258.488 186.09ZM257.605 177.164C257.319 177.613 257.079 178.135 256.99 178.675C258.52 178.56 260.947 176.378 261.921 175.349C261.963 175.315 261.926 175.166 261.912 175.081C261.889 175.017 261.744 174.872 261.689 174.82C261.458 174.634 261.133 174.538 260.833 174.559C259.583 174.696 258.194 176.168 257.605 177.164Z" fill="#464646"/>
</g>
<path d="M12.171 7.49147C12.7058 10.0036 13.2354 12.515 13.7791 15.0264C15.1372 21.3073 16.7951 27.4953 19.4588 33.3728C22.4484 39.9706 26.335 45.9118 32.028 50.5096C35.8697 53.6127 40.2681 55.5996 45.0168 56.8595C49.1412 57.953 53.3521 58.4237 57.5987 58.6929C58.2605 58.7342 58.9319 59.0602 59.5375 59.3716C59.7818 59.4974 59.8637 59.9377 60.0207 60.2343C59.724 60.3772 59.4297 60.6373 59.1294 60.6433C58.225 60.6607 57.3158 60.5978 56.412 60.5337C48.2769 59.9483 40.5325 58.0431 33.4882 53.7549C27.517 50.1194 23.0373 45.0578 19.4589 39.1186C15.1285 31.9292 12.5781 24.0669 10.7463 15.9387C9.99952 12.6255 9.36194 9.28775 8.67161 5.96161C8.61343 5.68362 8.53891 5.40905 8.31139 5.12382C8.10299 6.27859 7.92413 7.43856 7.68271 8.58772C6.62535 13.6382 5.55246 18.6852 4.47081 23.7311C4.42028 23.9681 4.27144 24.3036 4.08832 24.3693C3.20756 24.6873 2.43595 24.3088 1.69581 23.8578C1.06658 23.4745 0.989858 22.9285 1.14905 22.2591C1.76403 19.6623 2.42059 17.0738 2.94192 14.4591C3.78509 10.2312 4.5416 5.98608 5.3187 1.74693C5.57535 0.344248 5.56026 0.489643 6.98661 0.435245C8.63024 0.372363 9.62192 1.13092 10.5743 2.33523C14.0642 6.74484 18.433 9.99591 23.6755 12.0577C24.2062 12.2664 24.7183 12.6041 25.1358 12.9947C25.5963 13.4257 25.3647 14.0318 24.7363 14.0387C24.1665 14.0453 23.5614 13.9432 23.0283 13.7395C19.369 12.3347 16.0241 10.3742 12.9779 7.90239C12.7755 7.73708 12.565 7.57971 12.3585 7.41925C12.2973 7.44229 12.2342 7.46688 12.173 7.48992L12.171 7.49147Z" fill="#464646"/>
</g>
<defs>
<filter id="filter0_d_1195_5561" x="81.0683" y="21.0045" width="147.487" height="93.7057" filterUnits="userSpaceOnUse" color-interpolation-filters="sRGB">
<feFlood flood-opacity="0" result="BackgroundImageFix"/>
<feColorMatrix in="SourceAlpha" type="matrix" values="0 0 0 0 0 0 0 0 0 0 0 0 0 0 0 0 0 0 127 0" result="hardAlpha"/>
<feOffset dy="1.42433"/>
<feGaussianBlur stdDeviation="3.56082"/>
<feComposite in2="hardAlpha" operator="out"/>
<feColorMatrix type="matrix" values="0 0 0 0 1 0 0 0 0 0.3625 0 0 0 0 0.3625 0 0 0 0.1 0"/>
<feBlend mode="normal" in2="BackgroundImageFix" result="effect1_dropShadow_1195_5561"/>
<feBlend mode="normal" in="SourceGraphic" in2="effect1_dropShadow_1195_5561" result="shape"/>
</filter>
<filter id="filter1_d_1195_5561" x="63.5574" y="42.9805" width="167.477" height="100.951" filterUnits="userSpaceOnUse" color-interpolation-filters="sRGB">
<feFlood flood-opacity="0" result="BackgroundImageFix"/>
<feColorMatrix in="SourceAlpha" type="matrix" values="0 0 0 0 0 0 0 0 0 0 0 0 0 0 0 0 0 0 127 0" result="hardAlpha"/>
<feOffset dy="1.42433"/>
<feGaussianBlur stdDeviation="3.56082"/>
<feComposite in2="hardAlpha" operator="out"/>
<feColorMatrix type="matrix" values="0 0 0 0 1 0 0 0 0 0.3625 0 0 0 0 0.3625 0 0 0 0.1 0"/>
<feBlend mode="normal" in2="BackgroundImageFix" result="effect1_dropShadow_1195_5561"/>
<feBlend mode="normal" in="SourceGraphic" in2="effect1_dropShadow_1195_5561" result="shape"/>
</filter>
<filter id="filter2_d_1195_5561" x="47.8432" y="69.9816" width="226.912" height="129.537" filterUnits="userSpaceOnUse" color-interpolation-filters="sRGB">
<feFlood flood-opacity="0" result="BackgroundImageFix"/>
<feColorMatrix in="SourceAlpha" type="matrix" values="0 0 0 0 0 0 0 0 0 0 0 0 0 0 0 0 0 0 127 0" result="hardAlpha"/>
<feOffset dy="1.42433"/>
<feGaussianBlur stdDeviation="3.56082"/>
<feComposite in2="hardAlpha" operator="out"/>
<feColorMatrix type="matrix" values="0 0 0 0 1 0 0 0 0 0.3625 0 0 0 0 0.3625 0 0 0 0.1 0"/>
<feBlend mode="normal" in2="BackgroundImageFix" result="effect1_dropShadow_1195_5561"/>
<feBlend mode="normal" in="SourceGraphic" in2="effect1_dropShadow_1195_5561" result="shape"/>
</filter>
<clipPath id="clip0_1195_5561">
<rect width="316" height="232" fill="white"/>
</clipPath>
</defs>
</svg>
