<svg width="15" height="17" viewBox="0 0 15 17" fill="none" xmlns="http://www.w3.org/2000/svg">
<path d="M13.3333 6.66667H14.1667C14.6269 6.66667 15 7.03975 15 7.5V15.8333C15 16.2936 14.6269 16.6667 14.1667 16.6667H0.833333C0.3731 16.6667 0 16.2936 0 15.8333V7.5C0 7.03975 0.3731 6.66667 0.833333 6.66667H1.66667V5.83333C1.66667 2.61168 4.27834 0 7.5 0C10.7217 0 13.3333 2.61168 13.3333 5.83333V6.66667ZM1.66667 8.33333V15H13.3333V8.33333H1.66667ZM6.66667 10H8.33333V13.3333H6.66667V10ZM11.6667 6.66667V5.83333C11.6667 3.53215 9.80117 1.66667 7.5 1.66667C5.19882 1.66667 3.33333 3.53215 3.33333 5.83333V6.66667H11.6667Z" fill="#FDFDFF"/>
</svg>
